<svg width="85" height="20" viewBox="0 0 85 20" fill="none" xmlns="http://www.w3.org/2000/svg">
<rect width="85" height="20" rx="10" fill="#7BAFD4"/>
<path d="M23.812 14L23.044 11.792H19.624L18.88 14H17.62L20.692 5.684H22.012L25.084 14H23.812ZM19.936 10.868H22.732L21.328 6.788L19.936 10.868ZM30.182 13.772C29.718 14.012 29.182 14.132 28.574 14.132C27.63 14.132 26.906 13.864 26.402 13.328C25.906 12.784 25.658 12 25.658 10.976C25.658 9.96 25.914 9.176 26.426 8.624C26.946 8.064 27.678 7.784 28.622 7.784C29.158 7.784 29.662 7.896 30.134 8.12V8.972C29.678 8.828 29.23 8.756 28.79 8.756C28.118 8.756 27.634 8.928 27.338 9.272C27.042 9.608 26.894 10.148 26.894 10.892V11.048C26.894 11.776 27.042 12.312 27.338 12.656C27.642 12.992 28.118 13.16 28.766 13.16C29.198 13.16 29.67 13.08 30.182 12.92V13.772ZM35.5375 13.772C35.0735 14.012 34.5375 14.132 33.9295 14.132C32.9855 14.132 32.2615 13.864 31.7575 13.328C31.2615 12.784 31.0135 12 31.0135 10.976C31.0135 9.96 31.2695 9.176 31.7815 8.624C32.3015 8.064 33.0335 7.784 33.9775 7.784C34.5135 7.784 35.0175 7.896 35.4895 8.12V8.972C35.0335 8.828 34.5855 8.756 34.1455 8.756C33.4735 8.756 32.9895 8.928 32.6935 9.272C32.3975 9.608 32.2495 10.148 32.2495 10.892V11.048C32.2495 11.776 32.3975 12.312 32.6935 12.656C32.9975 12.992 33.4735 13.16 34.1215 13.16C34.5535 13.16 35.0255 13.08 35.5375 12.92V13.772ZM37.521 11.216C37.537 11.904 37.705 12.412 38.025 12.74C38.353 13.068 38.857 13.232 39.537 13.232C40.169 13.232 40.813 13.108 41.469 12.86V13.712C40.893 14.024 40.189 14.18 39.357 14.18C38.373 14.18 37.629 13.908 37.125 13.364C36.621 12.82 36.369 12.016 36.369 10.952C36.369 9.936 36.621 9.148 37.125 8.588C37.629 8.02 38.333 7.736 39.237 7.736C39.997 7.736 40.581 7.952 40.989 8.384C41.397 8.808 41.601 9.412 41.601 10.196C41.601 10.572 41.569 10.912 41.505 11.216H37.521ZM39.177 8.636C38.673 8.636 38.281 8.788 38.001 9.092C37.721 9.388 37.561 9.832 37.521 10.424H40.509C40.517 10.36 40.521 10.256 40.521 10.112C40.521 9.624 40.405 9.256 40.173 9.008C39.949 8.76 39.617 8.636 39.177 8.636ZM43.0325 16.472V7.916H44.0285L44.1365 8.54C44.7445 8.004 45.4205 7.736 46.1645 7.736C46.9405 7.736 47.5525 8.02 48.0005 8.588C48.4485 9.148 48.6725 9.912 48.6725 10.88C48.6725 11.864 48.4365 12.652 47.9645 13.244C47.4925 13.836 46.8645 14.132 46.0805 14.132C45.3605 14.132 44.7405 13.896 44.2205 13.424V16.472H43.0325ZM45.8285 8.696C45.2605 8.696 44.7245 8.88 44.2205 9.248V12.596C44.7405 12.98 45.2685 13.172 45.8045 13.172C46.9085 13.172 47.4605 12.428 47.4605 10.94C47.4605 10.18 47.3245 9.616 47.0525 9.248C46.7885 8.88 46.3805 8.696 45.8285 8.696ZM53.5541 13.856C53.1621 14.008 52.7181 14.084 52.2221 14.084C51.0861 14.084 50.5181 13.516 50.5181 12.38V8.852H49.4141V8.084L50.5541 7.94L50.7341 6.212H51.7061V7.916H53.5061V8.852H51.7061V12.32C51.7061 12.616 51.7701 12.824 51.8981 12.944C52.0341 13.064 52.2621 13.124 52.5821 13.124C52.9101 13.124 53.2341 13.084 53.5541 13.004V13.856ZM55.5678 11.216C55.5838 11.904 55.7518 12.412 56.0718 12.74C56.3998 13.068 56.9038 13.232 57.5838 13.232C58.2158 13.232 58.8598 13.108 59.5158 12.86V13.712C58.9398 14.024 58.2358 14.18 57.4038 14.18C56.4198 14.18 55.6758 13.908 55.1718 13.364C54.6678 12.82 54.4158 12.016 54.4158 10.952C54.4158 9.936 54.6678 9.148 55.1718 8.588C55.6758 8.02 56.3798 7.736 57.2838 7.736C58.0438 7.736 58.6278 7.952 59.0358 8.384C59.4438 8.808 59.6478 9.412 59.6478 10.196C59.6478 10.572 59.6158 10.912 59.5518 11.216H55.5678ZM57.2238 8.636C56.7198 8.636 56.3278 8.788 56.0478 9.092C55.7678 9.388 55.6078 9.832 55.5678 10.424H58.5558C58.5638 10.36 58.5678 10.256 58.5678 10.112C58.5678 9.624 58.4518 9.256 58.2198 9.008C57.9958 8.76 57.6638 8.636 57.2238 8.636ZM65.3994 14L65.2434 13.376C64.9794 13.616 64.6794 13.804 64.3434 13.94C64.0074 14.068 63.6674 14.132 63.3234 14.132C62.8194 14.132 62.3754 14.008 61.9914 13.76C61.6074 13.512 61.3074 13.152 61.0914 12.68C60.8754 12.2 60.7674 11.636 60.7674 10.988C60.7674 10.34 60.8714 9.772 61.0794 9.284C61.2874 8.796 61.5834 8.416 61.9674 8.144C62.3594 7.872 62.8234 7.736 63.3594 7.736C64.0394 7.736 64.6514 7.96 65.1954 8.408V5.12H66.3834V14H65.3994ZM63.6834 13.172C64.1794 13.172 64.6834 12.988 65.1954 12.62V9.224C64.9474 9.04 64.6954 8.908 64.4394 8.828C64.1914 8.74 63.9154 8.696 63.6114 8.696C62.5234 8.696 61.9794 9.448 61.9794 10.952C61.9794 12.432 62.5474 13.172 63.6834 13.172Z" fill="white"/>
</svg>
