<svg width="22" height="24" viewBox="0 0 22 24" fill="none" xmlns="http://www.w3.org/2000/svg">
<path d="M15.9293 0.205078C19.5622 0.205078 21.585 2.29845 21.585 5.88541V18.034C21.585 21.6798 19.5622 23.7261 15.9293 23.7261H6.07283C2.49763 23.7261 0.416016 21.6798 0.416016 18.034V5.88541C0.416016 2.29845 2.49763 0.205078 6.07283 0.205078H15.9293ZM6.39036 16.364C6.03755 16.3288 5.69649 16.4934 5.50832 16.7992C5.32016 17.0932 5.32016 17.4813 5.50832 17.7871C5.69649 18.0811 6.03755 18.2575 6.39036 18.2104H15.6106C16.0799 18.1634 16.4339 17.7624 16.4339 17.2931C16.4339 16.8109 16.0799 16.4111 15.6106 16.364H6.39036ZM15.6106 11.0001H6.39036C5.88349 11.0001 5.47304 11.4129 5.47304 11.9186C5.47304 12.4243 5.88349 12.8359 6.39036 12.8359H15.6106C16.1163 12.8359 16.5279 12.4243 16.5279 11.9186C16.5279 11.4129 16.1163 11.0001 15.6106 11.0001ZM9.90559 5.67372H6.39036V5.68548C5.88349 5.68548 5.47304 6.0971 5.47304 6.60281C5.47304 7.10851 5.88349 7.52013 6.39036 7.52013H9.90559C10.4125 7.52013 10.8241 7.10851 10.8241 6.58987C10.8241 6.08534 10.4125 5.67372 9.90559 5.67372Z" fill="#232F3E"/>
</svg>
