<svg width="131" height="26" viewBox="0 0 131 26" fill="none" xmlns="http://www.w3.org/2000/svg">
<path d="M44.6241 14.5448L43.2001 9.90478L41.8081 14.5448H44.6241ZM38.4481 18.8008C38.2348 18.8008 38.1281 18.7208 38.1281 18.5608C38.1281 18.5074 38.1388 18.4434 38.1601 18.3688C38.1921 18.2834 38.2241 18.1928 38.2561 18.0968L41.8081 8.12878C41.8508 8.02211 41.8935 7.94211 41.9361 7.88878C41.9895 7.82478 42.0481 7.78211 42.1121 7.76078C42.1761 7.72878 42.2668 7.71278 42.3841 7.71278H44.1601C44.3308 7.71278 44.4535 7.74478 44.5281 7.80878C44.6135 7.87278 44.6828 7.97945 44.7361 8.12878L48.2881 18.0968C48.3201 18.1928 48.3468 18.2834 48.3681 18.3688C48.4001 18.4434 48.4161 18.5074 48.4161 18.5608C48.4161 18.7208 48.3095 18.8008 48.0961 18.8008H46.3361C46.1761 18.8008 46.0535 18.7741 45.9681 18.7208C45.8935 18.6568 45.8295 18.5448 45.7761 18.3848L45.1201 16.2728H41.2961L40.6721 18.3848C40.6188 18.5448 40.5495 18.6568 40.4641 18.7208C40.3895 18.7741 40.2668 18.8008 40.0961 18.8008H38.4481ZM51.8728 18.9128C50.4328 18.9128 49.7128 18.1074 49.7128 16.4968V7.36078C49.7128 7.21145 49.7448 7.11011 49.8088 7.05678C49.8728 6.99278 49.9741 6.96078 50.1128 6.96078H51.6488C51.7981 6.96078 51.8994 6.99278 51.9528 7.05678C52.0168 7.11011 52.0488 7.21145 52.0488 7.36078V16.3048C52.0488 16.8488 52.2461 17.1208 52.6408 17.1208C52.7368 17.1208 52.8168 17.1154 52.8808 17.1048C52.9448 17.0941 52.9981 17.0888 53.0408 17.0888C53.1368 17.0888 53.2061 17.1154 53.2488 17.1688C53.2914 17.2221 53.3128 17.3128 53.3128 17.4408V18.2248C53.3128 18.3954 53.2914 18.5181 53.2488 18.5928C53.2061 18.6568 53.1101 18.7154 52.9608 18.7688C52.6621 18.8648 52.2994 18.9128 51.8728 18.9128ZM57.0759 18.9128C55.6359 18.9128 54.9159 18.1074 54.9159 16.4968V7.36078C54.9159 7.21145 54.9479 7.11011 55.0119 7.05678C55.0759 6.99278 55.1772 6.96078 55.3159 6.96078H56.8519C57.0012 6.96078 57.1026 6.99278 57.1559 7.05678C57.2199 7.11011 57.2519 7.21145 57.2519 7.36078V16.3048C57.2519 16.8488 57.4492 17.1208 57.8439 17.1208C57.9399 17.1208 58.0199 17.1154 58.0839 17.1048C58.1479 17.0941 58.2012 17.0888 58.2439 17.0888C58.3399 17.0888 58.4092 17.1154 58.4519 17.1688C58.4946 17.2221 58.5159 17.3128 58.5159 17.4408V18.2248C58.5159 18.3954 58.4946 18.5181 58.4519 18.5928C58.4092 18.6568 58.3132 18.7154 58.1639 18.7688C57.8652 18.8648 57.5026 18.9128 57.0759 18.9128ZM64.8665 18.8008C64.7279 18.8008 64.6265 18.7688 64.5625 18.7048C64.4985 18.6408 64.4665 18.5394 64.4665 18.4008V8.11278C64.4665 7.96345 64.4985 7.86211 64.5625 7.80878C64.6265 7.74478 64.7279 7.71278 64.8665 7.71278H68.7385C69.8905 7.71278 70.8025 8.01678 71.4745 8.62478C72.1465 9.23278 72.4825 10.0594 72.4825 11.1048C72.4825 11.7448 72.3065 12.3208 71.9545 12.8328C71.6025 13.3448 71.1065 13.7448 70.4665 14.0328L72.9305 18.1608C73.0372 18.3314 73.0905 18.4594 73.0905 18.5448C73.0905 18.7154 72.9732 18.8008 72.7385 18.8008H71.1705C71.0212 18.8008 70.9092 18.7848 70.8345 18.7528C70.7705 18.7101 70.7012 18.6301 70.6265 18.5128L68.3385 14.4968H66.7705V18.4008C66.7705 18.5394 66.7385 18.6408 66.6745 18.7048C66.6212 18.7688 66.5199 18.8008 66.3705 18.8008H64.8665ZM68.4345 12.8328C69.5545 12.8328 70.1145 12.2674 70.1145 11.1368C70.1145 10.0274 69.5652 9.47278 68.4665 9.47278H66.7705V12.8328H68.4345ZM78.0818 19.0408C76.7271 19.0408 75.6924 18.6728 74.9778 17.9368C74.2738 17.2008 73.9218 16.1234 73.9218 14.7048C73.9218 13.3394 74.2738 12.2781 74.9778 11.5208C75.6818 10.7634 76.6578 10.3848 77.9058 10.3848C78.9618 10.3848 79.7724 10.6781 80.3378 11.2648C80.9138 11.8408 81.2018 12.6674 81.2018 13.7448C81.2018 14.0754 81.1751 14.4541 81.1218 14.8808C81.1004 15.0408 81.0578 15.1474 80.9938 15.2008C80.9298 15.2541 80.8338 15.2808 80.7058 15.2808H76.0818C76.1244 15.9848 76.3378 16.4968 76.7218 16.8168C77.1058 17.1261 77.7084 17.2808 78.5298 17.2808C79.1164 17.2808 79.7991 17.1794 80.5778 16.9768C80.6098 16.9661 80.6418 16.9608 80.6738 16.9608C80.7058 16.9501 80.7324 16.9448 80.7538 16.9448C80.9351 16.9448 81.0258 17.0674 81.0258 17.3128V18.0488C81.0258 18.2194 80.9991 18.3421 80.9458 18.4168C80.9031 18.4808 80.8124 18.5394 80.6738 18.5928C79.8631 18.8914 78.9991 19.0408 78.0818 19.0408ZM79.2018 13.8408V13.5688C79.2018 12.5234 78.7431 12.0008 77.8258 12.0008C77.3031 12.0008 76.8871 12.1608 76.5778 12.4808C76.2791 12.7901 76.1084 13.2434 76.0658 13.8408H79.2018ZM88.61 22.0968C88.4714 22.0968 88.37 22.0648 88.306 22.0008C88.242 21.9474 88.21 21.8461 88.21 21.6968V18.1768C87.5594 18.7101 86.8127 18.9768 85.97 18.9768C85.2767 18.9768 84.674 18.8008 84.162 18.4488C83.65 18.0861 83.2554 17.5901 82.978 16.9608C82.7114 16.3208 82.578 15.5848 82.578 14.7528C82.578 13.8568 82.722 13.0781 83.01 12.4168C83.298 11.7554 83.698 11.2541 84.21 10.9128C84.7327 10.5608 85.33 10.3848 86.002 10.3848C86.9727 10.3848 87.7887 10.6994 88.45 11.3288L88.546 10.9768C88.578 10.8488 88.626 10.7581 88.69 10.7048C88.7647 10.6514 88.866 10.6248 88.994 10.6248H90.146C90.2954 10.6248 90.3967 10.6568 90.45 10.7208C90.514 10.7741 90.546 10.8754 90.546 11.0248V21.6968C90.546 21.8461 90.514 21.9474 90.45 22.0008C90.3967 22.0648 90.2954 22.0968 90.146 22.0968H88.61ZM86.738 17.2168C87.25 17.2168 87.7407 17.0674 88.21 16.7688V12.5448C87.7514 12.2781 87.2234 12.1448 86.626 12.1448C86.0607 12.1448 85.6394 12.3581 85.362 12.7848C85.0847 13.2008 84.946 13.8354 84.946 14.6888C84.946 15.5421 85.09 16.1768 85.378 16.5928C85.6767 17.0088 86.13 17.2168 86.738 17.2168ZM95.0309 19.0408C94.3056 19.0408 93.7402 18.8274 93.3349 18.4008C92.9296 17.9634 92.7269 17.3661 92.7269 16.6088V11.0248C92.7269 10.8754 92.7589 10.7741 92.8229 10.7208C92.8869 10.6568 92.9882 10.6248 93.1269 10.6248H94.6629C94.8122 10.6248 94.9136 10.6568 94.9669 10.7208C95.0309 10.7741 95.0629 10.8754 95.0629 11.0248V15.9528C95.0629 16.8168 95.4362 17.2488 96.1829 17.2488C96.7376 17.2488 97.2816 17.0781 97.8149 16.7368V11.0248C97.8149 10.8754 97.8469 10.7741 97.9109 10.7208C97.9749 10.6568 98.0762 10.6248 98.2149 10.6248H99.7509C99.9002 10.6248 100.002 10.6568 100.055 10.7208C100.119 10.7741 100.151 10.8754 100.151 11.0248V18.4008C100.151 18.5394 100.119 18.6408 100.055 18.7048C100.002 18.7688 99.9002 18.8008 99.7509 18.8008H98.5989C98.4709 18.8008 98.3696 18.7741 98.2949 18.7208C98.2309 18.6674 98.1829 18.5768 98.1509 18.4488L98.0069 17.9368C97.0576 18.6728 96.0656 19.0408 95.0309 19.0408ZM106.129 19.0408C104.774 19.0408 103.739 18.6728 103.025 17.9368C102.321 17.2008 101.969 16.1234 101.969 14.7048C101.969 13.3394 102.321 12.2781 103.025 11.5208C103.729 10.7634 104.705 10.3848 105.953 10.3848C107.009 10.3848 107.819 10.6781 108.385 11.2648C108.961 11.8408 109.249 12.6674 109.249 13.7448C109.249 14.0754 109.222 14.4541 109.169 14.8808C109.147 15.0408 109.105 15.1474 109.041 15.2008C108.977 15.2541 108.881 15.2808 108.753 15.2808H104.129C104.171 15.9848 104.385 16.4968 104.769 16.8168C105.153 17.1261 105.755 17.2808 106.577 17.2808C107.163 17.2808 107.846 17.1794 108.625 16.9768C108.657 16.9661 108.689 16.9608 108.721 16.9608C108.753 16.9501 108.779 16.9448 108.801 16.9448C108.982 16.9448 109.073 17.0674 109.073 17.3128V18.0488C109.073 18.2194 109.046 18.3421 108.993 18.4168C108.95 18.4808 108.859 18.5394 108.721 18.5928C107.91 18.8914 107.046 19.0408 106.129 19.0408ZM107.249 13.8408V13.5688C107.249 12.5234 106.79 12.0008 105.873 12.0008C105.35 12.0008 104.934 12.1608 104.625 12.4808C104.326 12.7901 104.155 13.2434 104.113 13.8408H107.249ZM113.377 19.0568C112.428 19.0568 111.574 18.8914 110.817 18.5608C110.668 18.4968 110.572 18.4328 110.529 18.3688C110.486 18.2941 110.465 18.1768 110.465 18.0168V17.2968C110.465 17.0514 110.556 16.9288 110.737 16.9288C110.79 16.9288 110.865 16.9448 110.961 16.9768C111.313 17.0941 111.702 17.1848 112.129 17.2488C112.566 17.3128 112.977 17.3448 113.361 17.3448C114.129 17.3448 114.513 17.0781 114.513 16.5448C114.513 16.3314 114.449 16.1661 114.321 16.0488C114.204 15.9314 113.958 15.8034 113.585 15.6648L112.337 15.1688C111.686 14.9128 111.217 14.5981 110.929 14.2248C110.641 13.8514 110.497 13.3768 110.497 12.8008C110.497 12.0754 110.785 11.4941 111.361 11.0568C111.948 10.6088 112.726 10.3848 113.697 10.3848C114.454 10.3848 115.164 10.5128 115.825 10.7688C115.964 10.8221 116.054 10.8861 116.097 10.9608C116.15 11.0248 116.177 11.1421 116.177 11.3128V12.0168C116.177 12.2621 116.086 12.3848 115.905 12.3848C115.841 12.3848 115.692 12.3528 115.457 12.2888C115.009 12.1608 114.492 12.0968 113.905 12.0968C113.468 12.0968 113.148 12.1501 112.945 12.2568C112.742 12.3634 112.641 12.5341 112.641 12.7688C112.641 12.9501 112.7 13.0994 112.817 13.2168C112.945 13.3234 113.206 13.4568 113.601 13.6168L114.817 14.1128C115.478 14.3794 115.948 14.6888 116.225 15.0408C116.513 15.3928 116.657 15.8514 116.657 16.4168C116.657 17.2061 116.353 17.8461 115.745 18.3368C115.148 18.8168 114.358 19.0568 113.377 19.0568ZM121.094 18.9288C120.187 18.9288 119.515 18.7154 119.078 18.2888C118.651 17.8621 118.438 17.2008 118.438 16.3048V12.3528H117.606C117.467 12.3528 117.366 12.3208 117.302 12.2568C117.238 12.1928 117.206 12.0914 117.206 11.9528V11.2968C117.206 11.1581 117.233 11.0568 117.286 10.9928C117.35 10.9288 117.451 10.8808 117.59 10.8488L118.502 10.6568L118.79 8.83278C118.811 8.68345 118.854 8.57678 118.918 8.51278C118.993 8.44878 119.099 8.41678 119.238 8.41678H120.374C120.523 8.41678 120.625 8.44878 120.678 8.51278C120.742 8.56611 120.774 8.66745 120.774 8.81678V10.6248H122.582C122.731 10.6248 122.833 10.6568 122.886 10.7208C122.95 10.7741 122.982 10.8754 122.982 11.0248V11.9528C122.982 12.0914 122.95 12.1928 122.886 12.2568C122.833 12.3208 122.731 12.3528 122.582 12.3528H120.774V16.1928C120.774 16.5341 120.859 16.7741 121.03 16.9128C121.201 17.0514 121.489 17.1208 121.894 17.1208C122.065 17.1208 122.23 17.1101 122.39 17.0888C122.55 17.0568 122.673 17.0408 122.758 17.0408C122.939 17.0408 123.03 17.1581 123.03 17.3928V18.1768C123.03 18.3581 123.003 18.4861 122.95 18.5608C122.897 18.6354 122.806 18.6888 122.678 18.7208C122.209 18.8594 121.681 18.9288 121.094 18.9288ZM126.799 19.0568C125.849 19.0568 124.996 18.8914 124.239 18.5608C124.089 18.4968 123.993 18.4328 123.951 18.3688C123.908 18.2941 123.887 18.1768 123.887 18.0168V17.2968C123.887 17.0514 123.977 16.9288 124.159 16.9288C124.212 16.9288 124.287 16.9448 124.383 16.9768C124.735 17.0941 125.124 17.1848 125.551 17.2488C125.988 17.3128 126.399 17.3448 126.783 17.3448C127.551 17.3448 127.935 17.0781 127.935 16.5448C127.935 16.3314 127.871 16.1661 127.743 16.0488C127.625 15.9314 127.38 15.8034 127.007 15.6648L125.759 15.1688C125.108 14.9128 124.639 14.5981 124.351 14.2248C124.063 13.8514 123.919 13.3768 123.919 12.8008C123.919 12.0754 124.207 11.4941 124.783 11.0568C125.369 10.6088 126.148 10.3848 127.119 10.3848C127.876 10.3848 128.585 10.5128 129.247 10.7688C129.385 10.8221 129.476 10.8861 129.519 10.9608C129.572 11.0248 129.599 11.1421 129.599 11.3128V12.0168C129.599 12.2621 129.508 12.3848 129.327 12.3848C129.263 12.3848 129.113 12.3528 128.879 12.2888C128.431 12.1608 127.913 12.0968 127.327 12.0968C126.889 12.0968 126.569 12.1501 126.367 12.2568C126.164 12.3634 126.063 12.5341 126.063 12.7688C126.063 12.9501 126.121 13.0994 126.239 13.2168C126.367 13.3234 126.628 13.4568 127.023 13.6168L128.239 14.1128C128.9 14.3794 129.369 14.6888 129.647 15.0408C129.935 15.3928 130.079 15.8514 130.079 16.4168C130.079 17.2061 129.775 17.8461 129.167 18.3368C128.569 18.8168 127.78 19.0568 126.799 19.0568Z" fill="#232F3E"/>
<path d="M16.1686 1.80078C19.8014 1.80078 21.8242 3.89416 21.8242 7.48112V19.6297C21.8242 23.2755 19.8014 25.3218 16.1686 25.3218H6.31209C2.73689 25.3218 0.655273 23.2755 0.655273 19.6297V7.48112C0.655273 3.89416 2.73689 1.80078 6.31209 1.80078H16.1686ZM6.62962 17.9597C6.27681 17.9245 5.93575 18.0891 5.74758 18.3949C5.55941 18.6889 5.55941 19.077 5.74758 19.3828C5.93575 19.6768 6.27681 19.8532 6.62962 19.8062H15.8499C16.3191 19.7591 16.6731 19.3581 16.6731 18.8888C16.6731 18.4066 16.3191 18.0068 15.8499 17.9597H6.62962ZM15.8499 12.5958H6.62962C6.12274 12.5958 5.7123 13.0086 5.7123 13.5143C5.7123 14.02 6.12274 14.4316 6.62962 14.4316H15.8499C16.3556 14.4316 16.7672 14.02 16.7672 13.5143C16.7672 13.0086 16.3556 12.5958 15.8499 12.5958ZM10.1448 7.26943H6.62962V7.28119C6.12274 7.28119 5.7123 7.69281 5.7123 8.19851C5.7123 8.70421 6.12274 9.11583 6.62962 9.11583H10.1448C10.6517 9.11583 11.0633 8.70421 11.0633 8.18557C11.0633 7.68105 10.6517 7.26943 10.1448 7.26943Z" fill="#232F3E"/>
</svg>
