<svg width="384" height="101" viewBox="0 0 384 101" fill="none" xmlns="http://www.w3.org/2000/svg">
<path d="M151.77 73.2663C135.64 80.1441 118.228 83.5831 102.281 83.5831C78.8196 83.5831 55.9081 77.0672 37.3955 66.2074C35.7459 65.3024 34.6461 66.9314 35.9292 68.1984C53.1587 83.5831 75.7036 92.9949 100.815 92.9949C118.594 92.9949 139.673 87.203 153.786 76.5242C156.169 74.8952 154.336 72.3613 151.77 73.2663Z" fill="#232F3E"/>
<path d="M142.604 67.2933C141.321 68.1983 141.504 69.4653 142.971 69.2843C147.553 68.7413 158.001 67.4743 159.834 69.8272C161.667 72.1802 157.817 82.135 155.984 86.4789C155.435 87.7459 156.534 88.2889 157.817 87.3839C165.699 80.868 167.532 67.1123 166.066 65.1213C164.416 63.1304 150.852 61.5014 142.604 67.2933Z" fill="#232F3E"/>
<path d="M171.749 51.1848C167.35 48.8318 162.218 48.1078 157.452 48.2888L170.466 30.1892C171.749 28.5602 172.482 27.4742 172.482 26.7502V22.0443C172.482 21.3203 171.749 20.7773 171.016 20.7773H146.088C145.172 20.7773 144.622 21.3203 144.622 22.0443V27.6552C144.622 28.3792 145.355 28.9222 146.088 28.9222H159.285L144.255 50.0988C143.339 51.3658 143.339 52.9947 143.339 53.8997V59.5106C143.339 60.2346 144.255 61.3206 145.172 60.7776C153.787 56.2527 164.051 56.7956 171.749 60.7776C172.666 61.3206 173.582 60.4156 173.582 59.5106V53.5377C173.032 52.6327 172.666 51.7277 171.749 51.1848Z" fill="#232F3E"/>
<path d="M43.4439 61.8636H51.1422C52.0586 61.8636 52.6085 61.3206 52.6085 60.4156V39.782C52.6085 35.2571 52.2419 28.9222 57.924 28.9222C63.4228 28.9222 62.6896 35.4381 62.6896 39.782V60.5966C62.6896 61.3206 63.2395 62.0446 64.1559 62.0446H71.8542C72.7707 62.0446 73.3206 61.5016 73.3206 60.5966V39.782C73.3206 37.6101 73.1373 34.1711 74.0537 32.3612C74.9702 30.3702 76.8031 29.1032 78.636 29.1032C80.8355 29.1032 82.6685 29.8272 83.2183 32.3612C83.5849 33.8092 83.5849 37.9721 83.5849 39.782V60.5966C83.5849 61.3206 84.1348 62.0446 85.0513 62.0446H92.7495C93.666 62.0446 94.2159 61.3206 94.2159 60.5966V35.8001C94.2159 31.6372 94.7658 26.7503 92.1997 23.4924C90.0002 20.5964 86.3343 19.1484 83.2183 19.1484C78.636 19.1484 74.4203 21.5014 72.5874 26.5693C70.3879 21.5014 67.4552 19.1484 62.5063 19.1484C57.7407 19.1484 54.2581 21.5014 52.2419 26.5693H52.0586V21.5014C52.0586 20.7774 51.3255 20.2344 50.5923 20.0534H43.4439C42.5274 20.0534 41.9775 20.7774 41.9775 21.5014V60.5966C41.9775 61.3206 42.7107 61.8636 43.4439 61.8636Z" fill="#232F3E"/>
<path d="M193.559 19.1484C182.195 19.1484 175.963 28.7413 175.963 41.049C175.963 53.3568 182.195 63.1306 193.559 63.1306C204.557 63.1306 211.338 53.5378 211.338 41.411C211.338 28.9222 205.106 19.1484 193.559 19.1484ZM193.559 54.9857C187.51 54.9857 187.51 44.6689 187.51 39.963C187.51 35.0761 187.877 27.2933 193.559 27.2933C196.125 27.2933 197.775 28.3793 198.691 31.0942C199.608 34.3521 199.791 38.1531 199.791 41.592C199.791 46.6599 199.608 54.9857 193.559 54.9857Z" fill="#232F3E"/>
<path d="M247.082 23.6733C244.882 20.4154 241.399 19.1484 237.917 19.1484C232.418 19.1484 229.302 21.6824 227.103 27.1123H226.919V21.1394C226.736 20.5964 226.186 20.0534 225.453 20.0534H218.121C217.205 20.0534 216.655 20.5964 216.472 21.3204V60.5966C216.472 61.3206 217.022 62.0446 217.938 62.0446H225.82C226.736 62.0446 227.469 61.5016 227.469 60.5966V39.42C227.469 36.7051 227.653 34.3521 228.752 31.9992C229.669 30.0082 231.502 28.7413 233.335 28.7413C238.833 28.7413 238.283 35.0761 238.283 39.239V60.5966C238.467 61.3206 239.017 61.8636 239.75 61.8636H247.631C248.365 61.8636 249.098 61.3206 249.281 60.5966V35.9811C249.098 32.1802 249.098 26.9313 247.082 23.6733Z" fill="#232F3E"/>
<path d="M123.725 35.4388C119.326 35.9818 113.461 36.1628 109.245 37.9727C104.296 39.9637 100.997 44.1266 100.997 50.2805C100.997 58.0633 105.946 62.0453 112.544 62.0453C118.043 62.0453 120.976 60.7783 125.192 56.6154C126.658 58.6063 127.025 59.5113 129.591 61.6833C130.141 62.0453 130.874 62.0452 131.424 61.5023C132.89 60.2353 135.823 57.8823 137.289 56.4344C137.839 55.8914 137.839 54.9864 137.289 54.4434C135.823 52.4524 134.356 51.0045 134.356 47.5655V35.8008C134.356 30.9139 134.723 26.2079 131.057 22.95C128.124 20.2351 123.175 19.3301 119.51 19.3301C112.361 19.3301 104.113 22.045 102.463 30.7329C102.28 31.6378 103.013 31.9998 103.563 32.1808L110.895 32.9048C111.628 32.9048 112.178 32.1808 112.361 31.6378C113.094 28.5609 115.477 27.1129 118.41 27.1129C119.876 27.1129 121.709 27.6559 122.809 29.1039C123.909 30.5519 123.725 32.7238 123.725 34.5338V35.4388ZM122.442 51.0045C121.159 52.9954 119.326 54.4434 117.127 54.4434C114.194 54.4434 112.361 52.2714 112.361 49.0135C112.361 42.6786 118.227 41.4117 123.725 41.4117V43.0406C123.725 46.1176 123.909 48.4705 122.442 51.0045Z" fill="#232F3E"/>
<path d="M36.4781 54.442C35.0118 52.4511 33.5455 51.0031 33.5455 47.5642V35.7994C33.5455 30.9125 33.912 26.2066 30.2462 22.9486C27.3135 20.2337 22.5479 19.3287 18.6988 19.3287C11.3671 19.1477 3.30219 21.8627 1.46927 30.5505C1.28598 31.4555 2.01915 31.9985 2.56902 31.9985L9.90072 32.9034C10.6339 32.9034 11.1838 32.1795 11.3671 31.4555C12.1002 28.3785 14.483 26.9306 17.4157 26.9306C18.8821 26.9306 20.715 27.4735 21.6314 28.9215C22.7312 30.3695 22.5479 32.5415 22.5479 34.3514V35.4374C18.3322 35.9804 12.4668 36.1614 8.25109 37.9713C3.48549 39.9623 0.00292969 44.1252 0.00292969 50.2791C0.00292969 58.062 4.95183 62.0439 11.5504 62.0439C17.0491 62.0439 19.9818 60.7769 24.1975 56.614C25.6639 58.605 26.0305 59.6909 28.5966 61.6819C29.1464 62.0439 29.8796 62.0439 30.4295 61.5009C31.8958 60.0529 34.6452 57.881 36.2948 56.433C37.028 55.89 36.8447 55.166 36.4781 54.442ZM22.9145 43.0392C22.9145 45.9352 23.0978 48.2881 21.4482 51.0031C20.1651 53.1751 18.3322 54.623 15.9494 54.623C13.0167 54.623 11.1838 52.4511 11.1838 49.1931C11.1838 42.8583 17.0491 41.5913 22.5479 41.5913L22.9145 43.0392Z" fill="#232F3E"/>
<path d="M279.157 62.7667C275.125 62.7667 272.009 61.6807 269.626 59.5087C267.243 57.3368 266.144 54.2598 266.144 50.4589C266.144 46.477 267.61 43.219 270.543 40.8661C273.475 38.5131 277.324 37.2462 282.273 37.2462C285.389 37.2462 288.872 37.7891 292.721 38.6941V33.2642C292.721 30.3683 291.988 28.1963 290.705 26.9294C289.422 25.6624 287.039 25.1194 283.74 25.1194C279.89 25.1194 276.225 25.6624 272.559 26.7484C271.276 27.1104 270.543 27.2913 270.176 27.2913C269.443 27.2913 269.26 26.7484 269.26 25.8434V23.6714C269.26 22.9474 269.443 22.4044 269.626 22.0425C269.809 21.6805 270.359 21.4995 270.909 21.1375C272.559 20.4135 274.758 19.6895 277.324 19.3275C280.074 18.7845 282.64 18.6035 285.206 18.6035C290.521 18.6035 294.371 19.6895 296.937 21.8615C299.503 24.0334 300.603 27.2913 300.603 31.8163V59.8707C300.603 60.9567 300.053 61.4997 298.953 61.4997H295.287C294.187 61.4997 293.637 60.9567 293.454 59.8707L293.088 57.1558C291.071 58.7847 288.872 60.2327 286.489 61.1377C283.923 62.2237 281.54 62.7667 279.157 62.7667ZM281.174 56.6128C283.006 56.6128 284.839 56.2508 286.856 55.5268C288.872 54.8028 290.705 53.7168 292.538 52.4499V44.124C289.605 43.4 286.672 43.038 283.74 43.038C277.508 43.038 274.392 45.391 274.392 50.2779C274.392 52.4499 274.942 53.8978 276.225 55.1648C277.324 56.0698 278.974 56.6128 281.174 56.6128Z" fill="#232F3E"/>
<path d="M325.347 62.587C321.681 62.587 318.565 61.682 315.816 59.8721C313.066 58.0621 311.05 55.5281 309.584 52.2702C308.117 49.0123 307.567 45.2113 307.567 41.0484C307.567 36.5235 308.301 32.5416 309.767 29.2836C311.233 25.8447 313.433 23.3108 316.182 21.5008C318.932 19.6908 322.048 18.7858 325.53 18.7858C330.296 18.7858 334.511 20.2338 338.361 23.3108V2.49616C338.361 1.41018 338.91 0.867188 340.01 0.867188H344.959C346.059 0.867188 346.609 1.41018 346.609 2.49616V60.053C346.609 61.139 346.059 61.682 344.959 61.682H341.293C340.743 61.682 340.377 61.501 340.01 61.32C339.644 61.139 339.46 60.596 339.277 60.053L338.544 57.3381C336.711 58.9671 334.695 60.234 332.312 61.139C330.112 62.225 327.913 62.587 325.347 62.587ZM327.913 56.0711C331.395 56.0711 334.878 54.8041 338.361 52.2702V28.9216C336.711 27.6547 334.878 26.7497 333.045 26.2067C331.395 25.6637 329.379 25.3017 327.363 25.3017C319.848 25.3017 315.999 30.3696 315.999 40.6864C316.182 51.0032 320.031 56.0711 327.913 56.0711Z" fill="#232F3E"/>
<path d="M367.87 62.9477C363.287 62.9477 359.072 62.2237 355.223 60.5947C354.489 60.2327 354.123 60.0517 353.756 59.6897C353.573 59.3277 353.39 58.7847 353.39 58.0607V55.8888C353.39 54.9838 353.756 54.4408 354.306 54.4408C354.673 54.4408 355.406 54.6218 356.322 54.9838C359.988 56.0698 363.837 56.7938 367.686 56.7938C370.436 56.7938 372.452 56.2508 373.918 55.1648C375.385 54.0788 376.118 52.6309 376.118 50.6399C376.118 49.3729 375.751 48.2869 374.835 47.382C373.918 46.477 372.452 45.753 370.253 44.848L363.104 42.1331C356.872 39.9611 353.94 35.9792 353.94 30.5493C353.94 26.9294 355.406 24.0334 358.155 21.8615C360.905 19.6895 364.754 18.6035 369.153 18.6035C372.819 18.6035 376.301 19.1465 379.784 20.4135C380.517 20.5945 380.884 20.9565 381.25 21.3185C381.617 21.6805 381.617 22.2234 381.617 22.9474V25.1194C381.617 26.0244 381.25 26.5674 380.517 26.5674C380.15 26.5674 379.417 26.3864 378.684 26.2054C375.751 25.3004 372.819 24.9384 369.703 24.9384C364.387 24.9384 361.638 26.7484 361.638 30.3683C361.638 31.8163 362.004 32.9022 362.921 33.8072C363.837 34.7122 365.487 35.6172 368.236 36.5222L374.652 39.0561C377.951 40.3231 380.334 41.7711 381.8 43.581C383.266 45.21 383.999 47.563 383.999 50.2779C383.999 54.0788 382.533 57.3368 379.6 59.5087C376.668 61.8617 372.819 62.9477 367.87 62.9477Z" fill="#232F3E"/>
</svg>
