<svg width="1053" height="281" viewBox="0 0 1053 281" fill="none" xmlns="http://www.w3.org/2000/svg">
<path d="M416.18 203.458C371.949 222.558 324.2 232.108 280.472 232.108C216.136 232.108 153.309 214.013 102.544 183.856C98.0202 181.343 95.0044 185.866 98.5228 189.385C145.769 232.108 207.592 258.244 276.451 258.244C325.205 258.244 383.007 242.16 421.709 212.505C428.243 207.982 423.217 200.945 416.18 203.458Z" fill="#232F3F"/>
<path d="M391.046 186.871C387.528 189.384 388.03 192.903 392.051 192.4C404.617 190.892 433.266 187.374 438.293 193.908C443.319 200.442 432.764 228.086 427.738 240.149C426.23 243.668 429.245 245.175 432.764 242.662C454.377 224.568 459.403 186.369 455.382 180.84C450.858 175.311 413.664 170.787 391.046 186.871Z" fill="#232F3F"/>
<path d="M470.967 142.14C458.904 135.606 444.831 133.595 431.762 134.098L467.449 83.8356C470.967 79.312 472.978 76.2962 472.978 74.2858V61.2176C472.978 59.2071 470.967 57.6992 468.957 57.6992H400.6C398.087 57.6992 396.579 59.2071 396.579 61.2176V76.7989C396.579 78.8094 398.589 80.3172 400.6 80.3172H436.789L395.574 139.124C393.061 142.642 393.061 147.166 393.061 149.679V165.26C393.061 167.271 395.574 170.287 398.087 168.779C421.71 156.213 449.857 157.721 470.967 168.779C473.48 170.287 475.993 167.774 475.993 165.26V148.674C474.485 146.161 473.48 143.648 470.967 142.14Z" fill="#232F3F"/>
<path d="M119.13 171.792H140.24C142.754 171.792 144.261 170.284 144.261 167.771V110.472C144.261 97.9062 143.256 80.3145 158.838 80.3145C173.916 80.3145 171.906 98.4089 171.906 110.472V168.273C171.906 170.284 173.414 172.294 175.927 172.294H197.037C199.55 172.294 201.058 170.786 201.058 168.273V110.472C201.058 104.44 200.555 94.8905 203.068 89.8643C205.581 84.3354 210.608 80.8171 215.634 80.8171C221.665 80.8171 226.692 82.8276 228.199 89.8643C229.205 93.8853 229.205 105.446 229.205 110.472V168.273C229.205 170.284 230.713 172.294 233.226 172.294H254.336C256.849 172.294 258.357 170.284 258.357 168.273V99.4141C258.357 87.8538 259.865 74.283 252.828 65.2358C246.796 57.1938 236.744 53.1729 228.199 53.1729C215.634 53.1729 204.074 59.7069 199.047 73.7804C193.016 59.7069 184.974 53.1729 171.403 53.1729C158.335 53.1729 148.785 59.7069 143.256 73.7804H142.754V59.7069C142.754 57.6965 140.743 56.1886 138.733 55.686H119.13C116.617 55.686 115.109 57.6965 115.109 59.7069V168.273C115.109 170.284 117.12 171.792 119.13 171.792Z" fill="#232F3F"/>
<path d="M530.775 53.1729C499.613 53.1729 482.523 79.8118 482.523 113.99C482.523 148.168 499.613 175.31 530.775 175.31C560.933 175.31 579.53 148.671 579.53 114.995C579.53 80.3145 562.44 53.1729 530.775 53.1729ZM530.775 152.692C514.189 152.692 514.189 124.043 514.189 110.974C514.189 97.4036 515.194 75.7909 530.775 75.7909C537.812 75.7909 542.335 78.8066 544.849 86.3459C547.362 95.3931 547.864 105.948 547.864 115.498C547.864 129.571 547.362 152.692 530.775 152.692Z" fill="#232F3F"/>
<path d="M677.543 65.7384C671.512 56.6912 661.962 53.1729 652.412 53.1729C637.334 53.1729 628.789 60.2096 622.758 75.2882H622.255V58.7017C621.752 57.1938 620.244 55.686 618.234 55.686H598.129C595.616 55.686 594.108 57.1938 593.605 59.2043V168.273C593.605 170.284 595.113 172.294 597.626 172.294H619.239C621.752 172.294 623.763 170.786 623.763 168.273V109.467C623.763 101.927 624.265 95.3931 627.281 88.859C629.794 83.3302 634.821 79.8118 639.847 79.8118C654.925 79.8118 653.418 97.4036 653.418 108.964V168.273C653.92 170.284 655.428 171.792 657.439 171.792H679.051C681.062 171.792 683.072 170.284 683.575 168.273V99.9167C683.072 89.3617 683.072 74.7856 677.543 65.7384Z" fill="#232F3F"/>
<path d="M339.278 98.4131C327.215 99.9209 311.131 100.424 299.571 105.45C286 110.979 276.953 122.539 276.953 139.628C276.953 161.241 290.524 172.299 308.618 172.299C323.697 172.299 331.739 168.78 343.299 157.22C347.32 162.749 348.325 165.262 355.362 171.293C356.87 172.299 358.881 172.299 360.388 170.791C364.409 167.272 372.451 160.738 376.472 156.717C377.98 155.209 377.98 152.696 376.472 151.188C372.451 145.66 368.43 141.639 368.43 132.089V99.4183C368.43 85.8475 369.436 72.7793 359.383 63.7321C351.341 56.1928 337.77 53.6797 327.718 53.6797C308.116 53.6797 285.498 61.219 280.974 85.3449C280.471 87.858 282.482 88.8632 283.99 89.3659L304.095 91.3764C306.105 91.3764 307.613 89.3659 308.116 87.858C310.126 79.3134 316.66 75.2924 324.702 75.2924C328.723 75.2924 333.749 76.8003 336.765 80.8213C339.781 84.8423 339.278 90.8737 339.278 95.9V98.4131ZM335.76 141.639C332.242 147.167 327.215 151.188 321.184 151.188C313.142 151.188 308.116 145.157 308.116 136.11C308.116 118.518 324.2 115 339.278 115V119.523C339.278 128.068 339.781 134.602 335.76 141.639Z" fill="#232F3F"/>
<path d="M100.03 151.187C96.0087 145.658 91.9877 141.637 91.9877 132.088V99.4172C91.9877 85.8464 92.9929 72.7782 82.9405 63.731C74.8985 56.1917 61.8304 53.6786 51.2753 53.6786C31.1704 53.176 9.05501 60.7153 4.02879 84.8412C3.52617 87.3543 5.53666 88.8621 7.04453 88.8621L27.1494 91.3753C29.1599 91.3753 30.6678 89.3648 31.1704 87.3543C33.1809 78.8097 39.715 74.7887 47.7569 74.7887C51.7779 74.7887 56.8041 76.2966 59.3172 80.3176C62.333 84.3385 61.8304 90.37 61.8304 95.3962V98.412C50.27 99.9198 34.1861 100.422 22.6258 105.449C9.55764 110.978 0.0078125 122.538 0.0078125 139.627C0.0078125 161.24 13.5786 172.297 31.673 172.297C46.7517 172.297 54.7936 168.779 66.354 157.219C70.3749 162.748 71.3802 165.763 78.4169 171.292C79.9248 172.297 81.9352 172.297 83.4431 170.79C87.4641 166.769 95.0034 160.737 99.527 156.716C101.538 155.208 101.035 153.198 100.03 151.187ZM62.8356 119.522C62.8356 127.564 63.3382 134.098 58.8146 141.637C55.2963 147.669 50.27 151.69 43.736 151.69C35.694 151.69 30.6678 145.658 30.6678 136.611C30.6678 119.019 46.7517 115.501 61.8304 115.501L62.8356 119.522Z" fill="#232F3F"/>
<path d="M765.503 174.304C754.445 174.304 745.9 171.288 739.366 165.257C732.832 159.225 729.816 150.681 729.816 140.126C729.816 129.068 733.837 120.021 741.879 113.487C749.921 106.953 760.476 103.434 774.047 103.434C782.592 103.434 792.142 104.942 802.697 107.455V92.3765C802.697 84.3345 800.686 78.303 797.168 74.7847C793.649 71.2663 787.115 69.7585 778.068 69.7585C767.513 69.7585 757.461 71.2663 747.408 74.2821C743.89 75.2873 741.879 75.7899 740.874 75.7899C738.864 75.7899 738.361 74.2821 738.361 71.769V65.7375C738.361 63.727 738.864 62.2191 739.366 61.2139C739.869 60.2086 741.377 59.706 742.885 58.7008C747.408 56.6903 753.44 54.6798 760.476 53.6746C768.016 52.1667 775.052 51.6641 782.089 51.6641C796.665 51.6641 807.22 54.6798 814.257 60.7113C821.294 66.7427 824.309 75.7899 824.309 88.3555V166.262C824.309 169.278 822.802 170.786 819.786 170.786H809.733C806.718 170.786 805.21 169.278 804.707 166.262L803.702 158.723C798.173 163.246 792.142 167.267 785.608 169.78C778.571 172.796 772.037 174.304 765.503 174.304ZM771.031 157.215C776.058 157.215 781.084 156.21 786.613 154.199C792.142 152.189 797.168 149.173 802.194 145.654V122.534C794.152 120.523 786.11 119.518 778.068 119.518C760.979 119.518 752.434 126.052 752.434 139.623C752.434 145.654 753.942 149.675 757.461 153.194C760.476 155.707 765 157.215 771.031 157.215Z" fill="#232F3F"/>
<path d="M892.163 173.803C882.11 173.803 873.566 171.29 866.026 166.264C858.487 161.238 852.958 154.201 848.937 145.154C844.916 136.107 843.408 125.552 843.408 113.991C843.408 101.426 845.419 90.3681 849.44 81.3209C853.461 71.7711 859.492 64.7343 867.031 59.7081C874.571 54.6819 883.115 52.1688 892.665 52.1688C905.733 52.1688 917.294 56.1898 927.849 64.7343V6.93278C927.849 3.91705 929.357 2.40918 932.372 2.40918H945.943C948.959 2.40918 950.467 3.91705 950.467 6.93278V166.767C950.467 169.782 948.959 171.29 945.943 171.29H935.891C934.383 171.29 933.378 170.788 932.372 170.285C931.367 169.782 930.865 168.275 930.362 166.767L928.351 159.227C923.325 163.751 917.796 167.269 911.262 169.782C905.231 172.798 899.199 173.803 892.163 173.803ZM899.199 155.709C908.749 155.709 918.299 152.191 927.849 145.154V80.3156C923.325 76.7973 918.299 74.2842 913.273 72.7763C908.749 71.2684 903.22 70.2632 897.691 70.2632C877.084 70.2632 866.529 84.3366 866.529 112.986C867.031 141.636 877.586 155.709 899.199 155.709Z" fill="#232F3F"/>
<path d="M1008.77 174.807C996.204 174.807 984.644 172.796 974.089 168.272C972.078 167.267 971.073 166.765 970.068 165.759C969.565 164.754 969.062 163.246 969.062 161.236V155.204C969.062 152.691 970.068 151.183 971.576 151.183C972.581 151.183 974.591 151.686 977.104 152.691C987.157 155.707 997.712 157.717 1008.27 157.717C1015.81 157.717 1021.34 156.209 1025.36 153.194C1029.38 150.178 1031.39 146.157 1031.39 140.628C1031.39 137.11 1030.38 134.094 1027.87 131.581C1025.36 129.068 1021.34 127.057 1015.3 124.544L995.701 117.005C978.612 110.973 970.57 99.9158 970.57 84.8371C970.57 74.7847 974.591 66.7427 982.131 60.7113C989.67 54.6798 1000.23 51.6641 1012.29 51.6641C1022.34 51.6641 1031.89 53.1719 1041.44 56.6903C1043.45 57.1929 1044.46 58.1982 1045.46 59.2034C1046.47 60.2086 1046.47 61.7165 1046.47 63.727V69.7585C1046.47 72.2716 1045.46 73.7794 1043.45 73.7794C1042.45 73.7794 1040.43 73.2768 1038.42 72.7742C1030.38 70.2611 1022.34 69.2558 1013.8 69.2558C999.22 69.2558 991.681 74.2821 991.681 84.3345C991.681 88.3555 992.686 91.3712 995.199 93.8843C997.712 96.3974 1002.24 98.9106 1009.77 101.424L1027.37 108.46C1036.41 111.979 1042.95 116 1046.97 121.026C1050.99 125.55 1053 132.084 1053 139.623C1053 150.178 1048.98 159.225 1040.94 165.257C1032.9 171.791 1022.34 174.807 1008.77 174.807Z" fill="#232F3F"/>
</svg>
