<svg width="200" height="34" viewBox="0 0 200 34" fill="none" xmlns="http://www.w3.org/2000/svg">
<rect x="0.5" y="0.5" width="199" height="33" rx="16.5" fill="white"/>
<path d="M38.2815 23V11.912H41.9455C42.9802 11.912 43.8122 12.1787 44.4415 12.712C45.0708 13.2453 45.3855 13.9547 45.3855 14.84C45.3855 15.3947 45.2575 15.8747 45.0015 16.28C44.7455 16.6747 44.3775 16.9787 43.8975 17.192C44.5802 17.3947 45.1028 17.7307 45.4655 18.2C45.8282 18.6587 46.0095 19.2293 46.0095 19.912C46.0095 20.8507 45.6788 21.6027 45.0175 22.168C44.3562 22.7227 43.4708 23 42.3615 23H38.2815ZM39.8335 17.944V21.752H42.3295C43.6842 21.752 44.3615 21.1173 44.3615 19.848C44.3615 19.2187 44.1855 18.744 43.8335 18.424C43.4922 18.104 42.9802 17.944 42.2975 17.944H39.8335ZM39.8335 13.16V16.728H41.7855C43.1082 16.728 43.7695 16.136 43.7695 14.952C43.7695 14.3653 43.6042 13.9227 43.2735 13.624C42.9535 13.3147 42.4735 13.16 41.8335 13.16H39.8335ZM52.702 23L52.574 22.168C52.19 22.4987 51.7633 22.7547 51.294 22.936C50.8353 23.1173 50.3767 23.208 49.918 23.208C49.1607 23.208 48.5527 22.9947 48.094 22.568C47.646 22.1307 47.422 21.5493 47.422 20.824C47.422 20.0453 47.6993 19.4267 48.254 18.968C48.8087 18.4987 49.5553 18.264 50.494 18.264C51.1127 18.264 51.7847 18.3547 52.51 18.536V17.48C52.51 16.904 52.3767 16.4987 52.11 16.264C51.854 16.0293 51.4113 15.912 50.782 15.912C49.8753 15.912 48.9367 16.0773 47.966 16.408V15.288C48.35 15.0853 48.8193 14.9307 49.374 14.824C49.9287 14.7067 50.4887 14.648 51.054 14.648C52.0673 14.648 52.814 14.8613 53.294 15.288C53.774 15.704 54.014 16.344 54.014 17.208V23H52.702ZM50.302 22.008C51.0273 22.008 51.7633 21.736 52.51 21.192V19.56C51.9553 19.4213 51.39 19.352 50.814 19.352C49.6087 19.352 49.006 19.816 49.006 20.744C49.006 21.1493 49.118 21.464 49.342 21.688C49.566 21.9013 49.886 22.008 50.302 22.008ZM61.9875 22.696C61.3688 23.016 60.6542 23.176 59.8435 23.176C58.5848 23.176 57.6195 22.8187 56.9475 22.104C56.2862 21.3787 55.9555 20.3333 55.9555 18.968C55.9555 17.6133 56.2968 16.568 56.9795 15.832C57.6728 15.0853 58.6488 14.712 59.9075 14.712C60.6222 14.712 61.2942 14.8613 61.9235 15.16V16.296C61.3155 16.104 60.7182 16.008 60.1315 16.008C59.2355 16.008 58.5902 16.2373 58.1955 16.696C57.8008 17.144 57.6035 17.864 57.6035 18.856V19.064C57.6035 20.0347 57.8008 20.7493 58.1955 21.208C58.6008 21.656 59.2355 21.88 60.0995 21.88C60.6755 21.88 61.3048 21.7733 61.9875 21.56V22.696ZM63.7465 23V11.16H65.3305V18.424L68.7705 14.888H70.7065L66.8665 18.744L70.9625 23H68.9625L65.3305 19.16V23H63.7465ZM80.9159 22.808C80.3932 23.0107 79.8012 23.112 79.1399 23.112C77.6252 23.112 76.8679 22.3547 76.8679 20.84V16.136H75.3959V15.112L76.9159 14.92L77.1559 12.616H78.4519V14.888H80.8519V16.136H78.4519V20.76C78.4519 21.1547 78.5372 21.432 78.7079 21.592C78.8892 21.752 79.1932 21.832 79.6199 21.832C80.0572 21.832 80.4892 21.7787 80.9159 21.672V22.808ZM85.9369 23.24C84.7209 23.24 83.7715 22.8613 83.0889 22.104C82.4062 21.3467 82.0649 20.2907 82.0649 18.936C82.0649 17.592 82.4062 16.5413 83.0889 15.784C83.7715 15.0267 84.7209 14.648 85.9369 14.648C87.1529 14.648 88.1022 15.0267 88.7849 15.784C89.4675 16.5413 89.8089 17.592 89.8089 18.936C89.8089 20.2907 89.4675 21.3467 88.7849 22.104C88.1022 22.8613 87.1529 23.24 85.9369 23.24ZM85.9369 21.96C87.4409 21.96 88.1929 20.952 88.1929 18.936C88.1929 16.9307 87.4409 15.928 85.9369 15.928C84.4329 15.928 83.6809 16.9307 83.6809 18.936C83.6809 20.952 84.4329 21.96 85.9369 21.96ZM103.182 23L102.158 20.056H97.5976L96.6056 23H94.9256L99.0216 11.912H100.782L104.878 23H103.182ZM98.0136 18.824H101.742L99.8696 13.384L98.0136 18.824ZM109.111 22.888C108.759 23.016 108.375 23.08 107.959 23.08C107.394 23.08 106.962 22.92 106.663 22.6C106.365 22.2693 106.215 21.8 106.215 21.192V11.16H107.799V21.096C107.799 21.3413 107.847 21.5227 107.943 21.64C108.05 21.7467 108.221 21.8 108.455 21.8C108.669 21.8 108.887 21.784 109.111 21.752V22.888ZM113.674 22.888C113.322 23.016 112.938 23.08 112.522 23.08C111.956 23.08 111.524 22.92 111.226 22.6C110.927 22.2693 110.778 21.8 110.778 21.192V11.16H112.362V21.096C112.362 21.3413 112.41 21.5227 112.506 21.64C112.612 21.7467 112.783 21.8 113.018 21.8C113.231 21.8 113.45 21.784 113.674 21.752V22.888ZM119.688 23V11.912H123.736C124.813 11.912 125.672 12.2107 126.312 12.808C126.952 13.3947 127.272 14.1893 127.272 15.192C127.272 15.928 127.069 16.568 126.664 17.112C126.269 17.6453 125.709 18.0347 124.984 18.28L127.928 23H126.152L123.432 18.536H121.272V23H119.688ZM121.272 17.24H123.528C124.21 17.24 124.728 17.0693 125.08 16.728C125.442 16.3867 125.624 15.88 125.624 15.208C125.624 14.5467 125.453 14.0507 125.112 13.72C124.77 13.3787 124.264 13.208 123.592 13.208H121.272V17.24ZM130.304 19.288C130.325 20.2053 130.549 20.8827 130.976 21.32C131.413 21.7573 132.085 21.976 132.992 21.976C133.835 21.976 134.693 21.8107 135.568 21.48V22.616C134.8 23.032 133.861 23.24 132.752 23.24C131.44 23.24 130.448 22.8773 129.776 22.152C129.104 21.4267 128.768 20.3547 128.768 18.936C128.768 17.5813 129.104 16.5307 129.776 15.784C130.448 15.0267 131.387 14.648 132.592 14.648C133.605 14.648 134.384 14.936 134.928 15.512C135.472 16.0773 135.744 16.8827 135.744 17.928C135.744 18.4293 135.701 18.8827 135.616 19.288H130.304ZM132.512 15.848C131.84 15.848 131.317 16.0507 130.944 16.456C130.571 16.8507 130.357 17.4427 130.304 18.232H134.288C134.299 18.1467 134.304 18.008 134.304 17.816C134.304 17.1653 134.149 16.6747 133.84 16.344C133.541 16.0133 133.099 15.848 132.512 15.848ZM143.141 26.296V22.232C142.789 22.5307 142.394 22.7653 141.957 22.936C141.53 23.096 141.093 23.176 140.645 23.176C139.973 23.176 139.381 23.0107 138.869 22.68C138.357 22.3493 137.957 21.8693 137.669 21.24C137.381 20.6 137.237 19.848 137.237 18.984C137.237 18.12 137.37 17.3627 137.637 16.712C137.914 16.0613 138.314 15.5547 138.837 15.192C139.359 14.8293 139.973 14.648 140.677 14.648C141.69 14.648 142.554 14.984 143.269 15.656L143.397 14.888H144.725V26.296H143.141ZM141.125 21.896C141.786 21.896 142.458 21.6507 143.141 21.16V16.632C142.81 16.3867 142.474 16.2107 142.133 16.104C141.802 15.9867 141.434 15.928 141.029 15.928C139.578 15.928 138.853 16.9307 138.853 18.936C138.853 20.9093 139.61 21.896 141.125 21.896ZM152.61 23L152.434 22.136C151.442 22.872 150.424 23.24 149.378 23.24C148.621 23.24 148.04 23.0267 147.634 22.6C147.229 22.1733 147.026 21.5707 147.026 20.792V14.888H148.61V20.28C148.61 20.856 148.722 21.2827 148.946 21.56C149.17 21.8267 149.528 21.96 150.018 21.96C150.786 21.96 151.56 21.704 152.338 21.192V14.888H153.922V23H152.61ZM157.413 19.288C157.435 20.2053 157.659 20.8827 158.085 21.32C158.523 21.7573 159.195 21.976 160.101 21.976C160.944 21.976 161.803 21.8107 162.677 21.48V22.616C161.909 23.032 160.971 23.24 159.861 23.24C158.549 23.24 157.557 22.8773 156.885 22.152C156.213 21.4267 155.877 20.3547 155.877 18.936C155.877 17.5813 156.213 16.5307 156.885 15.784C157.557 15.0267 158.496 14.648 159.701 14.648C160.715 14.648 161.493 14.936 162.037 15.512C162.581 16.0773 162.853 16.8827 162.853 17.928C162.853 18.4293 162.811 18.8827 162.725 19.288H157.413ZM159.621 15.848C158.949 15.848 158.427 16.0507 158.053 16.456C157.68 16.8507 157.467 17.4427 157.413 18.232H161.397C161.408 18.1467 161.413 18.008 161.413 17.816C161.413 17.1653 161.259 16.6747 160.949 16.344C160.651 16.0133 160.208 15.848 159.621 15.848ZM168.57 20.824C168.57 20.568 168.485 20.36 168.314 20.2C168.154 20.04 167.855 19.88 167.418 19.72L166.058 19.208C164.874 18.7707 164.282 18.024 164.282 16.968C164.282 16.2747 164.549 15.7147 165.082 15.288C165.626 14.8613 166.335 14.648 167.21 14.648C168.053 14.648 168.847 14.8187 169.594 15.16V16.28C168.762 16.0133 167.994 15.88 167.29 15.88C166.266 15.88 165.754 16.2267 165.754 16.92C165.754 17.1973 165.839 17.416 166.01 17.576C166.181 17.736 166.517 17.912 167.018 18.104L168.266 18.584C168.895 18.8293 169.349 19.1227 169.626 19.464C169.903 19.7947 170.042 20.2267 170.042 20.76C170.042 21.5173 169.759 22.12 169.194 22.568C168.629 23.016 167.877 23.24 166.938 23.24C165.882 23.24 164.965 23.0373 164.186 22.632V21.512C165.189 21.8427 166.117 22.008 166.97 22.008C167.493 22.008 167.887 21.9067 168.154 21.704C168.431 21.5013 168.57 21.208 168.57 20.824ZM176.228 22.808C175.706 23.0107 175.114 23.112 174.452 23.112C172.938 23.112 172.18 22.3547 172.18 20.84V16.136H170.708V15.112L172.228 14.92L172.468 12.616H173.764V14.888H176.164V16.136H173.764V20.76C173.764 21.1547 173.85 21.432 174.02 21.592C174.202 21.752 174.506 21.832 174.932 21.832C175.37 21.832 175.802 21.7787 176.228 21.672V22.808ZM181.601 20.824C181.601 20.568 181.516 20.36 181.345 20.2C181.185 20.04 180.887 19.88 180.449 19.72L179.089 19.208C177.905 18.7707 177.313 18.024 177.313 16.968C177.313 16.2747 177.58 15.7147 178.113 15.288C178.657 14.8613 179.367 14.648 180.241 14.648C181.084 14.648 181.879 14.8187 182.625 15.16V16.28C181.793 16.0133 181.025 15.88 180.321 15.88C179.297 15.88 178.785 16.2267 178.785 16.92C178.785 17.1973 178.871 17.416 179.041 17.576C179.212 17.736 179.548 17.912 180.049 18.104L181.297 18.584C181.927 18.8293 182.38 19.1227 182.657 19.464C182.935 19.7947 183.073 20.2267 183.073 20.76C183.073 21.5173 182.791 22.12 182.225 22.568C181.66 23.016 180.908 23.24 179.969 23.24C178.913 23.24 177.996 23.0373 177.217 22.632V21.512C178.22 21.8427 179.148 22.008 180.001 22.008C180.524 22.008 180.919 21.9067 181.185 21.704C181.463 21.5013 181.601 21.208 181.601 20.824Z" fill="#232F3E"/>
<rect x="0.5" y="0.5" width="199" height="33" rx="16.5" stroke="#232F3E"/>
<path d="M15.3929 16.2617H29.3048C29.4893 16.2617 29.6662 16.335 29.7967 16.4655C29.9271 16.5959 30.0004 16.7728 30.0004 16.9573C30.0004 17.1418 29.9271 17.3187 29.7967 17.4492C29.6662 17.5796 29.4893 17.6529 29.3048 17.6529H15.3929C15.2084 17.6529 15.0315 17.5796 14.901 17.4492C14.7706 17.3187 14.6973 17.1418 14.6973 16.9573C14.6973 16.7728 14.7706 16.5959 14.901 16.4655C15.0315 16.335 15.2084 16.2617 15.3929 16.2617Z" fill="#232F3E"/>
<path d="M15.6804 16.9569L21.4497 22.7248C21.5803 22.8554 21.6537 23.0325 21.6537 23.2172C21.6537 23.402 21.5803 23.5791 21.4497 23.7097C21.3191 23.8403 21.1419 23.9137 20.9572 23.9137C20.7725 23.9137 20.5954 23.8403 20.4647 23.7097L14.2044 17.4493C14.1396 17.3847 14.0882 17.308 14.0531 17.2235C14.0181 17.1389 14 17.0483 14 16.9569C14 16.8654 14.0181 16.7748 14.0531 16.6903C14.0882 16.6057 14.1396 16.529 14.2044 16.4644L20.4647 10.204C20.5954 10.0734 20.7725 10 20.9572 10C21.1419 10 21.3191 10.0734 21.4497 10.204C21.5803 10.3346 21.6537 10.5118 21.6537 10.6965C21.6537 10.8812 21.5803 11.0583 21.4497 11.189L15.6804 16.9569Z" fill="#232F3E"/>
</svg>
