<svg width="860" height="333" viewBox="0 0 860 333" fill="none" xmlns="http://www.w3.org/2000/svg">
<g filter="url(#filter0_d_751_3377)">
<rect x="15" y="15" width="820" height="293" rx="20" fill="white"/>
<path d="M53.736 248.799V239.295L50.648 240.495V239.215L53.848 237.711H55.336V248.799H53.736ZM63.063 247.695C63.9057 247.695 64.5243 247.343 64.919 246.639C65.3137 245.924 65.511 244.793 65.511 243.247C65.511 241.721 65.3137 240.601 64.919 239.887C64.5243 239.172 63.9057 238.815 63.063 238.815C62.2203 238.815 61.6017 239.172 61.207 239.887C60.8123 240.601 60.615 241.721 60.615 243.247C60.615 244.783 60.8123 245.908 61.207 246.623C61.6017 247.337 62.2203 247.695 63.063 247.695ZM63.063 249.039C61.751 249.039 60.743 248.543 60.039 247.551C59.335 246.548 58.983 245.113 58.983 243.247C58.983 241.391 59.3297 239.967 60.023 238.975C60.727 237.972 61.7403 237.471 63.063 237.471C64.375 237.471 65.383 237.967 66.087 238.959C66.791 239.951 67.143 241.38 67.143 243.247C67.143 245.113 66.791 246.548 66.087 247.551C65.3937 248.543 64.3857 249.039 63.063 249.039ZM68.006 251.103L73.446 236.735H75.046L69.606 251.103H68.006ZM76.3689 248.799V247.551C77.9049 245.993 79.0249 244.804 79.7289 243.983C80.4435 243.151 80.9342 242.484 81.2009 241.983C81.4675 241.481 81.6009 241.007 81.6009 240.559C81.6009 240.025 81.4355 239.609 81.1049 239.311C80.7849 239.001 80.3475 238.847 79.7929 238.847C78.8435 238.847 77.8035 239.247 76.6729 240.047V238.687C77.1955 238.271 77.7235 237.967 78.2569 237.775C78.8009 237.572 79.3929 237.471 80.0329 237.471C81.0035 237.471 81.7822 237.743 82.3689 238.287C82.9662 238.831 83.2649 239.551 83.2649 240.447C83.2649 241.044 83.1049 241.652 82.7849 242.271C82.4649 242.879 81.9422 243.588 81.2169 244.399C80.5022 245.209 79.4995 246.233 78.2089 247.471H83.7769V248.799H76.3689ZM85.7439 248.799V247.551C87.2799 245.993 88.3999 244.804 89.1039 243.983C89.8185 243.151 90.3092 242.484 90.5759 241.983C90.8425 241.481 90.9759 241.007 90.9759 240.559C90.9759 240.025 90.8105 239.609 90.4799 239.311C90.1599 239.001 89.7225 238.847 89.1679 238.847C88.2185 238.847 87.1785 239.247 86.0479 240.047V238.687C86.5705 238.271 87.0985 237.967 87.6319 237.775C88.1759 237.572 88.7679 237.471 89.4079 237.471C90.3785 237.471 91.1572 237.743 91.7439 238.287C92.3412 238.831 92.6399 239.551 92.6399 240.447C92.6399 241.044 92.4799 241.652 92.1599 242.271C91.8399 242.879 91.3172 243.588 90.5919 244.399C89.8772 245.209 88.8745 246.233 87.5839 247.471H93.1519V248.799H85.7439ZM94.3029 251.103L99.7429 236.735H101.343L95.9029 251.103H94.3029ZM102.666 248.799V247.551C104.202 245.993 105.322 244.804 106.026 243.983C106.74 243.151 107.231 242.484 107.498 241.983C107.764 241.481 107.898 241.007 107.898 240.559C107.898 240.025 107.732 239.609 107.402 239.311C107.082 239.001 106.644 238.847 106.09 238.847C105.14 238.847 104.1 239.247 102.97 240.047V238.687C103.492 238.271 104.02 237.967 104.554 237.775C105.098 237.572 105.69 237.471 106.33 237.471C107.3 237.471 108.079 237.743 108.666 238.287C109.263 238.831 109.562 239.551 109.562 240.447C109.562 241.044 109.402 241.652 109.082 242.271C108.762 242.879 108.239 243.588 107.514 244.399C106.799 245.209 105.796 246.233 104.506 247.471H110.074V248.799H102.666ZM115.657 247.695C116.499 247.695 117.118 247.343 117.513 246.639C117.907 245.924 118.105 244.793 118.105 243.247C118.105 241.721 117.907 240.601 117.513 239.887C117.118 239.172 116.499 238.815 115.657 238.815C114.814 238.815 114.195 239.172 113.801 239.887C113.406 240.601 113.209 241.721 113.209 243.247C113.209 244.783 113.406 245.908 113.801 246.623C114.195 247.337 114.814 247.695 115.657 247.695ZM115.657 249.039C114.345 249.039 113.337 248.543 112.633 247.551C111.929 246.548 111.577 245.113 111.577 243.247C111.577 241.391 111.923 239.967 112.617 238.975C113.321 237.972 114.334 237.471 115.657 237.471C116.969 237.471 117.977 237.967 118.681 238.959C119.385 239.951 119.737 241.38 119.737 243.247C119.737 245.113 119.385 246.548 118.681 247.551C117.987 248.543 116.979 249.039 115.657 249.039ZM121.416 248.799V247.551C122.952 245.993 124.072 244.804 124.776 243.983C125.49 243.151 125.981 242.484 126.248 241.983C126.514 241.481 126.648 241.007 126.648 240.559C126.648 240.025 126.482 239.609 126.152 239.311C125.832 239.001 125.394 238.847 124.84 238.847C123.89 238.847 122.85 239.247 121.72 240.047V238.687C122.242 238.271 122.77 237.967 123.304 237.775C123.848 237.572 124.44 237.471 125.08 237.471C126.05 237.471 126.829 237.743 127.416 238.287C128.013 238.831 128.312 239.551 128.312 240.447C128.312 241.044 128.152 241.652 127.832 242.271C127.512 242.879 126.989 243.588 126.264 244.399C125.549 245.209 124.546 246.233 123.256 247.471H128.824V248.799H121.416ZM130.791 248.799V247.551C132.327 245.993 133.447 244.804 134.151 243.983C134.865 243.151 135.356 242.484 135.623 241.983C135.889 241.481 136.023 241.007 136.023 240.559C136.023 240.025 135.857 239.609 135.527 239.311C135.207 239.001 134.769 238.847 134.215 238.847C133.265 238.847 132.225 239.247 131.095 240.047V238.687C131.617 238.271 132.145 237.967 132.679 237.775C133.223 237.572 133.815 237.471 134.455 237.471C135.425 237.471 136.204 237.743 136.791 238.287C137.388 238.831 137.687 239.551 137.687 240.447C137.687 241.044 137.527 241.652 137.207 242.271C136.887 242.879 136.364 243.588 135.639 244.399C134.924 245.209 133.921 246.233 132.631 247.471H138.199V248.799H130.791Z" fill="#232F3E"/>
<path d="M475.827 248.799V239.295L472.739 240.495V239.215L475.939 237.711H477.427V248.799H475.827ZM480.722 251.103L486.162 236.735H487.762L482.322 251.103H480.722ZM489.085 248.799V247.551C490.621 245.993 491.741 244.804 492.445 243.983C493.159 243.151 493.65 242.484 493.917 241.983C494.183 241.481 494.317 241.007 494.317 240.559C494.317 240.025 494.151 239.609 493.821 239.311C493.501 239.001 493.063 238.847 492.509 238.847C491.559 238.847 490.519 239.247 489.389 240.047V238.687C489.911 238.271 490.439 237.967 490.973 237.775C491.517 237.572 492.109 237.471 492.749 237.471C493.719 237.471 494.498 237.743 495.085 238.287C495.682 238.831 495.981 239.551 495.981 240.447C495.981 241.044 495.821 241.652 495.501 242.271C495.181 242.879 494.658 243.588 493.933 244.399C493.218 245.209 492.215 246.233 490.925 247.471H496.493V248.799H489.085ZM499.692 248.799L504.124 239.023H498.22V237.711H505.74V238.975L501.404 248.799H499.692ZM507.019 251.103L512.459 236.735H514.059L508.619 251.103H507.019ZM515.382 248.799V247.551C516.918 245.993 518.038 244.804 518.742 243.983C519.456 243.151 519.947 242.484 520.214 241.983C520.48 241.481 520.614 241.007 520.614 240.559C520.614 240.025 520.448 239.609 520.118 239.311C519.798 239.001 519.36 238.847 518.806 238.847C517.856 238.847 516.816 239.247 515.686 240.047V238.687C516.208 238.271 516.736 237.967 517.27 237.775C517.814 237.572 518.406 237.471 519.046 237.471C520.016 237.471 520.795 237.743 521.382 238.287C521.979 238.831 522.278 239.551 522.278 240.447C522.278 241.044 522.118 241.652 521.798 242.271C521.478 242.879 520.955 243.588 520.23 244.399C519.515 245.209 518.512 246.233 517.222 247.471H522.79V248.799H515.382ZM528.373 247.695C529.215 247.695 529.834 247.343 530.229 246.639C530.623 245.924 530.821 244.793 530.821 243.247C530.821 241.721 530.623 240.601 530.229 239.887C529.834 239.172 529.215 238.815 528.373 238.815C527.53 238.815 526.911 239.172 526.517 239.887C526.122 240.601 525.925 241.721 525.925 243.247C525.925 244.783 526.122 245.908 526.517 246.623C526.911 247.337 527.53 247.695 528.373 247.695ZM528.373 249.039C527.061 249.039 526.053 248.543 525.349 247.551C524.645 246.548 524.293 245.113 524.293 243.247C524.293 241.391 524.639 239.967 525.333 238.975C526.037 237.972 527.05 237.471 528.373 237.471C529.685 237.471 530.693 237.967 531.397 238.959C532.101 239.951 532.453 241.38 532.453 243.247C532.453 245.113 532.101 246.548 531.397 247.551C530.703 248.543 529.695 249.039 528.373 249.039ZM534.132 248.799V247.551C535.668 245.993 536.788 244.804 537.492 243.983C538.206 243.151 538.697 242.484 538.964 241.983C539.23 241.481 539.364 241.007 539.364 240.559C539.364 240.025 539.198 239.609 538.868 239.311C538.548 239.001 538.11 238.847 537.556 238.847C536.606 238.847 535.566 239.247 534.436 240.047V238.687C534.958 238.271 535.486 237.967 536.02 237.775C536.564 237.572 537.156 237.471 537.796 237.471C538.766 237.471 539.545 237.743 540.132 238.287C540.729 238.831 541.028 239.551 541.028 240.447C541.028 241.044 540.868 241.652 540.548 242.271C540.228 242.879 539.705 243.588 538.98 244.399C538.265 245.209 537.262 246.233 535.972 247.471H541.54V248.799H534.132ZM546.819 242.463C546.872 242.452 546.925 242.447 546.979 242.447C547.032 242.447 547.085 242.447 547.139 242.447C548.195 242.447 549.032 242.735 549.651 243.311C550.269 243.876 550.579 244.639 550.579 245.599C550.579 246.644 550.2 247.481 549.443 248.111C548.696 248.729 547.688 249.039 546.419 249.039C545.416 249.039 544.424 248.825 543.443 248.399V247.119C544.605 247.503 545.597 247.695 546.419 247.695C547.229 247.695 547.853 247.513 548.291 247.151C548.728 246.788 548.947 246.271 548.947 245.599C548.947 244.308 548.131 243.663 546.499 243.663C545.987 243.663 545.48 243.689 544.979 243.743V242.687L548.339 239.023H543.603V237.711H550.115V238.975L546.819 242.463Z" fill="#232F3E"/>
<circle cx="59" cy="61" r="20" fill="#232F3E"/>
<path d="M60.048 69.7949C59.696 69.7949 59.52 69.6189 59.52 69.2669V66.3389H52.176C51.824 66.3389 51.648 66.1629 51.648 65.8109V64.8509C51.648 64.5789 51.672 64.3709 51.72 64.2269C51.768 64.0829 51.88 63.8829 52.056 63.6269L59.112 53.5709C59.24 53.3949 59.344 53.2829 59.424 53.2349C59.52 53.1869 59.664 53.1629 59.856 53.1629H61.56C61.912 53.1629 62.088 53.3389 62.088 53.6909V64.0829H63.792C64.144 64.0829 64.32 64.2589 64.32 64.6109V65.8109C64.32 66.1629 64.144 66.3389 63.792 66.3389H62.088V69.2669C62.088 69.6189 61.912 69.7949 61.56 69.7949H60.048ZM59.52 64.0829V56.7629L54.408 64.0829H59.52Z" fill="white"/>
<path d="M95.496 72C95.144 72 94.968 71.824 94.968 71.472V55.896C94.968 55.544 95.144 55.368 95.496 55.368H100.656C102.24 55.368 103.512 55.776 104.472 56.592C105.432 57.392 105.912 58.456 105.912 59.784C105.912 60.6 105.72 61.304 105.336 61.896C104.968 62.488 104.416 62.944 103.68 63.264C104.704 63.568 105.48 64.072 106.008 64.776C106.552 65.464 106.824 66.32 106.824 67.344C106.824 68.768 106.312 69.904 105.288 70.752C104.28 71.584 102.912 72 101.184 72H95.496ZM101.112 69.816C102.984 69.816 103.92 68.952 103.92 67.224C103.92 65.464 102.952 64.584 101.016 64.584H97.752V69.816H101.112ZM100.32 62.448C102.144 62.448 103.056 61.624 103.056 59.976C103.056 58.36 102.184 57.552 100.44 57.552H97.752V62.448H100.32ZM113.043 72.36C111.907 72.36 111.027 72.048 110.403 71.424C109.795 70.784 109.491 69.872 109.491 68.688V60.312C109.491 59.96 109.667 59.784 110.019 59.784H111.795C112.147 59.784 112.323 59.96 112.323 60.312V67.848C112.323 68.632 112.483 69.208 112.803 69.576C113.123 69.944 113.635 70.128 114.339 70.128C115.331 70.128 116.331 69.8 117.339 69.144V60.312C117.339 59.96 117.515 59.784 117.867 59.784H119.643C119.995 59.784 120.171 59.96 120.171 60.312V71.472C120.171 71.824 119.995 72 119.643 72H118.371C118.147 72 117.987 71.968 117.891 71.904C117.811 71.84 117.755 71.72 117.723 71.544L117.531 70.656C116.027 71.792 114.531 72.36 113.043 72.36ZM128.066 72.264C126.53 72.264 125.298 71.696 124.37 70.56C123.458 69.408 123.002 67.864 123.002 65.928C123.002 64.6 123.218 63.448 123.65 62.472C124.098 61.48 124.714 60.728 125.498 60.216C126.282 59.688 127.186 59.424 128.21 59.424C129.49 59.424 130.658 59.84 131.714 60.672V54.768C131.714 54.416 131.89 54.24 132.242 54.24H134.018C134.37 54.24 134.546 54.416 134.546 54.768V71.472C134.546 71.824 134.37 72 134.018 72H132.626C132.274 72 132.066 71.84 132.002 71.52L131.834 70.824C130.746 71.784 129.49 72.264 128.066 72.264ZM128.954 70.032C129.898 70.032 130.818 69.728 131.714 69.12V62.52C130.898 61.944 129.994 61.656 129.002 61.656C127.93 61.656 127.138 62 126.626 62.688C126.13 63.36 125.882 64.4 125.882 65.808C125.882 68.624 126.906 70.032 128.954 70.032ZM142.53 77.232C141.314 77.232 140.122 77 138.954 76.536C138.714 76.44 138.554 76.336 138.474 76.224C138.394 76.128 138.354 75.968 138.354 75.744V74.76C138.354 74.456 138.466 74.304 138.69 74.304C138.754 74.304 138.818 74.312 138.882 74.328C138.962 74.36 139.114 74.408 139.338 74.472C140.362 74.808 141.37 74.976 142.362 74.976C143.562 74.976 144.434 74.696 144.978 74.136C145.522 73.592 145.794 72.696 145.794 71.448V70.416C144.754 71.312 143.578 71.76 142.266 71.76C140.778 71.76 139.586 71.208 138.69 70.104C137.81 68.984 137.37 67.496 137.37 65.64C137.37 64.376 137.578 63.272 137.994 62.328C138.426 61.384 139.018 60.664 139.77 60.168C140.522 59.672 141.386 59.424 142.362 59.424C143.754 59.424 144.962 59.912 145.986 60.888L146.13 60.264C146.194 59.944 146.402 59.784 146.754 59.784H148.05C148.402 59.784 148.578 59.96 148.578 60.312V71.16C148.578 73.096 148.05 74.592 146.994 75.648C145.954 76.704 144.466 77.232 142.53 77.232ZM143.106 69.576C144.05 69.576 144.946 69.264 145.794 68.64V62.496C144.962 61.92 144.074 61.632 143.13 61.632C142.154 61.632 141.426 61.952 140.946 62.592C140.482 63.232 140.25 64.216 140.25 65.544C140.25 68.232 141.202 69.576 143.106 69.576ZM157.553 72.36C155.537 72.36 154.009 71.816 152.969 70.728C151.929 69.64 151.409 68.056 151.409 65.976C151.409 63.912 151.913 62.304 152.921 61.152C153.945 60 155.369 59.424 157.193 59.424C158.761 59.424 159.961 59.856 160.793 60.72C161.641 61.568 162.065 62.776 162.065 64.344C162.065 64.888 162.025 65.456 161.945 66.048C161.913 66.256 161.849 66.4 161.753 66.48C161.673 66.544 161.561 66.576 161.417 66.576H154.025C154.073 67.792 154.409 68.688 155.033 69.264C155.673 69.824 156.649 70.104 157.961 70.104C158.921 70.104 159.929 69.952 160.985 69.648C161.113 69.616 161.209 69.592 161.273 69.576C161.337 69.56 161.393 69.552 161.441 69.552C161.681 69.552 161.801 69.712 161.801 70.032V70.896C161.801 71.136 161.761 71.312 161.681 71.424C161.617 71.52 161.457 71.616 161.201 71.712C160.129 72.144 158.913 72.36 157.553 72.36ZM159.569 64.68V64.488C159.569 63.512 159.353 62.768 158.921 62.256C158.505 61.744 157.889 61.488 157.073 61.488C156.209 61.488 155.505 61.776 154.961 62.352C154.417 62.928 154.105 63.704 154.025 64.68H159.569ZM169.198 72.168C167.934 72.168 166.998 71.872 166.39 71.28C165.782 70.688 165.478 69.784 165.478 68.568V61.944H163.942C163.59 61.944 163.414 61.768 163.414 61.416V60.72C163.414 60.512 163.454 60.368 163.534 60.288C163.614 60.192 163.742 60.128 163.918 60.096L165.574 59.856L165.934 56.952C165.95 56.76 166.006 56.624 166.102 56.544C166.198 56.464 166.342 56.424 166.534 56.424H167.782C168.134 56.424 168.31 56.6 168.31 56.952V59.784H171.262C171.614 59.784 171.79 59.96 171.79 60.312V61.416C171.79 61.768 171.614 61.944 171.262 61.944H168.31V68.424C168.31 68.968 168.438 69.36 168.694 69.6C168.966 69.824 169.414 69.936 170.038 69.936C170.406 69.936 170.702 69.912 170.926 69.864C171.15 69.816 171.334 69.792 171.478 69.792C171.75 69.792 171.886 69.944 171.886 70.248V71.112C171.886 71.368 171.838 71.552 171.742 71.664C171.662 71.76 171.502 71.84 171.262 71.904C170.59 72.08 169.902 72.168 169.198 72.168ZM183.439 72.36C182.319 72.36 181.407 72.024 180.703 71.352C180.015 70.68 179.671 69.808 179.671 68.736C179.671 67.552 180.095 66.608 180.943 65.904C181.807 65.2 182.959 64.848 184.399 64.848C185.247 64.848 186.175 64.968 187.183 65.208V63.792C187.183 62.976 187.007 62.408 186.655 62.088C186.303 61.768 185.687 61.608 184.807 61.608C184.279 61.608 183.695 61.664 183.055 61.776C182.415 61.872 181.807 62.016 181.231 62.208C181.071 62.256 180.935 62.28 180.823 62.28C180.615 62.28 180.511 62.128 180.511 61.824V60.936C180.511 60.712 180.543 60.552 180.607 60.456C180.671 60.36 180.839 60.256 181.111 60.144C182.359 59.664 183.743 59.424 185.263 59.424C186.831 59.424 187.983 59.744 188.719 60.384C189.471 61.024 189.847 62.024 189.847 63.384V71.472C189.847 71.824 189.671 72 189.319 72H188.047C187.695 72 187.495 71.84 187.447 71.52L187.327 70.824C186.767 71.304 186.143 71.68 185.455 71.952C184.783 72.224 184.111 72.36 183.439 72.36ZM184.231 70.344C184.695 70.344 185.183 70.248 185.695 70.056C186.207 69.848 186.703 69.56 187.183 69.192V66.888C186.335 66.712 185.583 66.624 184.927 66.624C183.263 66.624 182.431 67.272 182.431 68.568C182.431 69.128 182.591 69.568 182.911 69.888C183.231 70.192 183.671 70.344 184.231 70.344ZM193.764 72C193.412 72 193.236 71.824 193.236 71.472V60.312C193.236 59.96 193.412 59.784 193.764 59.784H195.036C195.26 59.784 195.412 59.816 195.492 59.88C195.588 59.944 195.652 60.064 195.684 60.24L195.876 61.128C197.38 59.992 198.948 59.424 200.58 59.424C201.748 59.424 202.636 59.736 203.244 60.36C203.852 60.968 204.156 61.856 204.156 63.024V71.472C204.156 71.824 203.98 72 203.628 72H201.852C201.5 72 201.324 71.824 201.324 71.472V63.912C201.324 63.128 201.164 62.56 200.844 62.208C200.524 61.84 200.012 61.656 199.308 61.656C198.252 61.656 197.172 62.008 196.068 62.712V71.472C196.068 71.824 195.892 72 195.54 72H193.764ZM211.973 72.264C210.437 72.264 209.205 71.696 208.277 70.56C207.365 69.408 206.909 67.864 206.909 65.928C206.909 64.6 207.125 63.448 207.557 62.472C208.005 61.48 208.621 60.728 209.405 60.216C210.189 59.688 211.093 59.424 212.117 59.424C213.397 59.424 214.565 59.84 215.621 60.672V54.768C215.621 54.416 215.797 54.24 216.149 54.24H217.925C218.277 54.24 218.453 54.416 218.453 54.768V71.472C218.453 71.824 218.277 72 217.925 72H216.533C216.181 72 215.973 71.84 215.909 71.52L215.741 70.824C214.653 71.784 213.397 72.264 211.973 72.264ZM212.861 70.032C213.805 70.032 214.725 69.728 215.621 69.12V62.52C214.805 61.944 213.901 61.656 212.909 61.656C211.837 61.656 211.045 62 210.533 62.688C210.037 63.36 209.789 64.4 209.789 65.808C209.789 68.624 210.813 70.032 212.861 70.032ZM232.717 72.408C232.013 72.408 231.285 72.344 230.533 72.216C229.797 72.088 229.141 71.92 228.565 71.712C228.309 71.632 228.141 71.536 228.061 71.424C227.981 71.312 227.941 71.136 227.941 70.896V69.72C227.941 69.576 227.973 69.464 228.037 69.384C228.101 69.288 228.189 69.24 228.301 69.24C228.461 69.24 228.733 69.296 229.117 69.408C229.629 69.552 230.221 69.68 230.893 69.792C231.565 69.888 232.173 69.936 232.717 69.936C233.853 69.936 234.725 69.736 235.333 69.336C235.941 68.92 236.245 68.328 236.245 67.56C236.245 67.016 236.061 66.568 235.693 66.216C235.325 65.864 234.677 65.512 233.749 65.16L231.613 64.344C230.269 63.832 229.293 63.224 228.685 62.52C228.077 61.8 227.773 60.904 227.773 59.832C227.773 58.344 228.293 57.168 229.333 56.304C230.389 55.424 231.805 54.984 233.581 54.984C234.781 54.984 236.069 55.192 237.445 55.608C237.701 55.688 237.869 55.784 237.949 55.896C238.029 56.008 238.069 56.184 238.069 56.424V57.576C238.069 57.72 238.037 57.84 237.973 57.936C237.909 58.016 237.821 58.056 237.709 58.056C237.565 58.056 237.293 58 236.893 57.888C235.789 57.6 234.765 57.456 233.821 57.456C231.693 57.456 230.629 58.168 230.629 59.592C230.629 60.136 230.821 60.584 231.205 60.936C231.589 61.288 232.269 61.64 233.245 61.992L235.285 62.736C236.629 63.232 237.597 63.832 238.189 64.536C238.797 65.24 239.101 66.136 239.101 67.224C239.101 68.84 238.533 70.112 237.397 71.04C236.261 71.952 234.701 72.408 232.717 72.408ZM247.241 72.264C245.369 72.264 243.929 71.72 242.921 70.632C241.913 69.544 241.409 68 241.409 66C241.409 63.952 241.929 62.36 242.969 61.224C244.009 60.088 245.465 59.52 247.337 59.52C248.297 59.52 249.161 59.664 249.929 59.952C250.169 60.048 250.329 60.152 250.409 60.264C250.489 60.36 250.529 60.536 250.529 60.792V61.656C250.529 61.976 250.409 62.136 250.169 62.136C250.089 62.136 249.929 62.104 249.689 62.04C249.049 61.864 248.417 61.776 247.793 61.776C246.593 61.776 245.705 62.104 245.129 62.76C244.569 63.4 244.289 64.4 244.289 65.76V66.072C244.289 67.416 244.569 68.408 245.129 69.048C245.705 69.688 246.593 70.008 247.793 70.008C248.337 70.008 248.993 69.92 249.761 69.744C249.905 69.712 250.009 69.688 250.073 69.672C250.137 69.656 250.201 69.648 250.265 69.648C250.505 69.648 250.625 69.808 250.625 70.128V70.968C250.625 71.224 250.585 71.408 250.505 71.52C250.425 71.616 250.265 71.712 250.025 71.808C249.177 72.112 248.249 72.264 247.241 72.264ZM253.694 72C253.342 72 253.166 71.824 253.166 71.472V54.768C253.166 54.416 253.342 54.24 253.694 54.24H255.47C255.822 54.24 255.998 54.416 255.998 54.768V60.984C257.486 59.944 258.99 59.424 260.51 59.424C261.678 59.424 262.566 59.736 263.174 60.36C263.782 60.968 264.086 61.856 264.086 63.024V71.472C264.086 71.824 263.91 72 263.557 72H261.782C261.43 72 261.254 71.824 261.254 71.472V63.912C261.254 63.128 261.094 62.56 260.774 62.208C260.454 61.84 259.942 61.656 259.238 61.656C258.182 61.656 257.102 62.008 255.998 62.712V71.472C255.998 71.824 255.822 72 255.47 72H253.694ZM272.982 72.36C270.966 72.36 269.438 71.816 268.398 70.728C267.358 69.64 266.838 68.056 266.838 65.976C266.838 63.912 267.342 62.304 268.35 61.152C269.374 60 270.798 59.424 272.622 59.424C274.19 59.424 275.39 59.856 276.222 60.72C277.07 61.568 277.494 62.776 277.494 64.344C277.494 64.888 277.454 65.456 277.374 66.048C277.342 66.256 277.278 66.4 277.182 66.48C277.102 66.544 276.99 66.576 276.846 66.576H269.454C269.502 67.792 269.838 68.688 270.462 69.264C271.102 69.824 272.078 70.104 273.39 70.104C274.35 70.104 275.358 69.952 276.414 69.648C276.542 69.616 276.638 69.592 276.702 69.576C276.766 69.56 276.822 69.552 276.87 69.552C277.11 69.552 277.23 69.712 277.23 70.032V70.896C277.23 71.136 277.19 71.312 277.11 71.424C277.046 71.52 276.886 71.616 276.63 71.712C275.558 72.144 274.342 72.36 272.982 72.36ZM274.998 64.68V64.488C274.998 63.512 274.782 62.768 274.35 62.256C273.934 61.744 273.318 61.488 272.502 61.488C271.638 61.488 270.934 61.776 270.39 62.352C269.846 62.928 269.534 63.704 269.454 64.68H274.998ZM284.699 72.264C283.163 72.264 281.931 71.696 281.003 70.56C280.091 69.408 279.635 67.864 279.635 65.928C279.635 64.6 279.851 63.448 280.283 62.472C280.731 61.48 281.347 60.728 282.131 60.216C282.915 59.688 283.819 59.424 284.843 59.424C286.123 59.424 287.291 59.84 288.347 60.672V54.768C288.347 54.416 288.523 54.24 288.875 54.24H290.651C291.003 54.24 291.179 54.416 291.179 54.768V71.472C291.179 71.824 291.003 72 290.651 72H289.259C288.907 72 288.699 71.84 288.635 71.52L288.467 70.824C287.379 71.784 286.123 72.264 284.699 72.264ZM285.587 70.032C286.531 70.032 287.451 69.728 288.347 69.12V62.52C287.531 61.944 286.627 61.656 285.635 61.656C284.563 61.656 283.771 62 283.259 62.688C282.763 63.36 282.515 64.4 282.515 65.808C282.515 68.624 283.539 70.032 285.587 70.032ZM298.058 72.36C296.922 72.36 296.042 72.048 295.418 71.424C294.81 70.784 294.506 69.872 294.506 68.688V60.312C294.506 59.96 294.682 59.784 295.034 59.784H296.81C297.162 59.784 297.338 59.96 297.338 60.312V67.848C297.338 68.632 297.498 69.208 297.818 69.576C298.138 69.944 298.65 70.128 299.354 70.128C300.346 70.128 301.346 69.8 302.354 69.144V60.312C302.354 59.96 302.53 59.784 302.882 59.784H304.658C305.01 59.784 305.186 59.96 305.186 60.312V71.472C305.186 71.824 305.01 72 304.658 72H303.386C303.162 72 303.002 71.968 302.906 71.904C302.826 71.84 302.77 71.72 302.738 71.544L302.546 70.656C301.042 71.792 299.546 72.36 298.058 72.36ZM311.522 72.144C310.578 72.144 309.858 71.88 309.362 71.352C308.882 70.808 308.642 70.024 308.642 69V54.768C308.642 54.416 308.818 54.24 309.17 54.24H310.946C311.298 54.24 311.474 54.416 311.474 54.768V68.784C311.474 69.184 311.546 69.472 311.69 69.648C311.85 69.824 312.106 69.912 312.458 69.912C312.538 69.912 312.626 69.904 312.722 69.888C312.818 69.872 312.898 69.864 312.962 69.864C313.266 69.864 313.418 70.032 313.418 70.368V71.352C313.418 71.688 313.25 71.896 312.914 71.976C312.434 72.088 311.97 72.144 311.522 72.144ZM321.381 72.36C319.365 72.36 317.837 71.816 316.797 70.728C315.757 69.64 315.237 68.056 315.237 65.976C315.237 63.912 315.741 62.304 316.749 61.152C317.773 60 319.197 59.424 321.021 59.424C322.589 59.424 323.789 59.856 324.621 60.72C325.469 61.568 325.893 62.776 325.893 64.344C325.893 64.888 325.853 65.456 325.773 66.048C325.741 66.256 325.677 66.4 325.581 66.48C325.501 66.544 325.389 66.576 325.245 66.576H317.853C317.901 67.792 318.237 68.688 318.861 69.264C319.501 69.824 320.477 70.104 321.789 70.104C322.749 70.104 323.757 69.952 324.813 69.648C324.941 69.616 325.037 69.592 325.101 69.576C325.165 69.56 325.221 69.552 325.269 69.552C325.509 69.552 325.629 69.712 325.629 70.032V70.896C325.629 71.136 325.589 71.312 325.509 71.424C325.445 71.52 325.285 71.616 325.029 71.712C323.957 72.144 322.741 72.36 321.381 72.36ZM323.397 64.68V64.488C323.397 63.512 323.181 62.768 322.749 62.256C322.333 61.744 321.717 61.488 320.901 61.488C320.037 61.488 319.333 61.776 318.789 62.352C318.245 62.928 317.933 63.704 317.853 64.68H323.397Z" fill="#232F3E"/>
<rect x="39.5" y="218.5" width="349" height="49" rx="9.5" stroke="#808285" stroke-opacity="0.5"/>
<rect x="461.5" y="218.5" width="349" height="49" rx="9.5" stroke="#808285" stroke-opacity="0.5"/>
<path d="M45.864 209.772C45.216 210.02 44.516 210.144 43.764 210.144C42.452 210.144 41.456 209.784 40.776 209.064C40.104 208.336 39.768 207.272 39.768 205.872C39.768 204.488 40.116 203.424 40.812 202.68C41.516 201.936 42.52 201.564 43.824 201.564C44.504 201.564 45.144 201.672 45.744 201.888V202.884C45.016 202.716 44.424 202.632 43.968 202.632C42.96 202.632 42.224 202.88 41.76 203.376C41.296 203.864 41.064 204.644 41.064 205.716V206.004C41.064 207.06 41.288 207.836 41.736 208.332C42.192 208.828 42.912 209.076 43.896 209.076C44.4 209.076 45.056 208.976 45.864 208.776V209.772ZM50.7531 210L50.6571 209.376C50.3691 209.624 50.0491 209.816 49.6971 209.952C49.3531 210.088 49.0091 210.156 48.6651 210.156C48.0971 210.156 47.6411 209.996 47.2971 209.676C46.9611 209.348 46.7931 208.912 46.7931 208.368C46.7931 207.784 47.0011 207.32 47.4171 206.976C47.8331 206.624 48.3931 206.448 49.0971 206.448C49.5611 206.448 50.0651 206.516 50.6091 206.652V205.86C50.6091 205.428 50.5091 205.124 50.3091 204.948C50.1171 204.772 49.7851 204.684 49.3131 204.684C48.6331 204.684 47.9291 204.808 47.2011 205.056V204.216C47.4891 204.064 47.8411 203.948 48.2571 203.868C48.6731 203.78 49.0931 203.736 49.5171 203.736C50.2771 203.736 50.8371 203.896 51.1971 204.216C51.5571 204.528 51.7371 205.008 51.7371 205.656V210H50.7531ZM48.9531 209.256C49.4971 209.256 50.0491 209.052 50.6091 208.644V207.42C50.1931 207.316 49.7691 207.264 49.3371 207.264C48.4331 207.264 47.9811 207.612 47.9811 208.308C47.9811 208.612 48.0651 208.848 48.2331 209.016C48.4011 209.176 48.6411 209.256 48.9531 209.256ZM61.2812 210V205.872C61.2812 205.472 61.2052 205.176 61.0532 204.984C60.9012 204.792 60.6612 204.696 60.3332 204.696C59.7492 204.696 59.1612 204.876 58.5692 205.236C58.5772 205.292 58.5812 205.352 58.5812 205.416C58.5812 205.48 58.5812 205.544 58.5812 205.608V210H57.3932V205.872C57.3932 205.472 57.3172 205.176 57.1652 204.984C57.0132 204.792 56.7732 204.696 56.4452 204.696C55.8372 204.696 55.2532 204.872 54.6932 205.224V210H53.5052V203.916H54.5012L54.6212 204.528C55.3892 204 56.1372 203.736 56.8652 203.736C57.6092 203.736 58.1132 204.02 58.3772 204.588C59.1692 204.02 59.9612 203.736 60.7532 203.736C61.3052 203.736 61.7292 203.892 62.0252 204.204C62.3212 204.516 62.4692 204.96 62.4692 205.536V210H61.2812ZM64.2161 212.472V203.916H65.2121L65.3201 204.54C65.9281 204.004 66.6041 203.736 67.3481 203.736C68.1241 203.736 68.7361 204.02 69.1841 204.588C69.6321 205.148 69.8561 205.912 69.8561 206.88C69.8561 207.864 69.6201 208.652 69.1481 209.244C68.6761 209.836 68.0481 210.132 67.2641 210.132C66.5441 210.132 65.9241 209.896 65.4041 209.424V212.472H64.2161ZM67.0121 204.696C66.4441 204.696 65.9081 204.88 65.4041 205.248V208.596C65.9241 208.98 66.4521 209.172 66.9881 209.172C68.0921 209.172 68.6441 208.428 68.6441 206.94C68.6441 206.18 68.5081 205.616 68.2361 205.248C67.9721 204.88 67.5641 204.696 67.0121 204.696ZM74.8937 210L74.7977 209.376C74.5097 209.624 74.1897 209.816 73.8377 209.952C73.4937 210.088 73.1497 210.156 72.8057 210.156C72.2377 210.156 71.7817 209.996 71.4377 209.676C71.1017 209.348 70.9337 208.912 70.9337 208.368C70.9337 207.784 71.1417 207.32 71.5577 206.976C71.9737 206.624 72.5337 206.448 73.2377 206.448C73.7017 206.448 74.2057 206.516 74.7497 206.652V205.86C74.7497 205.428 74.6497 205.124 74.4497 204.948C74.2577 204.772 73.9257 204.684 73.4537 204.684C72.7737 204.684 72.0697 204.808 71.3417 205.056V204.216C71.6297 204.064 71.9817 203.948 72.3977 203.868C72.8137 203.78 73.2337 203.736 73.6577 203.736C74.4177 203.736 74.9777 203.896 75.3377 204.216C75.6977 204.528 75.8777 205.008 75.8777 205.656V210H74.8937ZM73.0937 209.256C73.6377 209.256 74.1897 209.052 74.7497 208.644V207.42C74.3337 207.316 73.9097 207.264 73.4777 207.264C72.5737 207.264 72.1217 207.612 72.1217 208.308C72.1217 208.612 72.2057 208.848 72.3737 209.016C72.5417 209.176 72.7817 209.256 73.0937 209.256ZM77.6938 210V203.916H78.8818V210H77.6938ZM78.2938 202.836C78.0618 202.836 77.8778 202.772 77.7418 202.644C77.6138 202.508 77.5498 202.332 77.5498 202.116C77.5498 201.9 77.6138 201.728 77.7418 201.6C77.8778 201.464 78.0618 201.396 78.2938 201.396C78.5258 201.396 78.7058 201.464 78.8338 201.6C78.9698 201.728 79.0378 201.9 79.0378 202.116C79.0378 202.332 78.9698 202.508 78.8338 202.644C78.7058 202.772 78.5258 202.836 78.2938 202.836ZM84.7124 209.172C84.4404 209.404 84.1484 209.584 83.8364 209.712C83.5244 209.832 83.2084 209.892 82.8884 209.892C82.4004 209.892 81.9684 209.772 81.5924 209.532C81.2164 209.292 80.9204 208.944 80.7044 208.488C80.4964 208.024 80.3924 207.484 80.3924 206.868C80.3924 205.908 80.6204 205.148 81.0764 204.588C81.5324 204.02 82.1444 203.736 82.9124 203.736C83.6324 203.736 84.2604 203.984 84.7964 204.48L84.8924 203.916H85.8884V209.628C85.8884 210.58 85.6324 211.316 85.1204 211.836C84.6164 212.356 83.8964 212.616 82.9604 212.616C82.2084 212.616 81.5164 212.456 80.8844 212.136V211.284C81.6204 211.532 82.2804 211.656 82.8644 211.656C83.5044 211.656 83.9724 211.5 84.2684 211.188C84.5644 210.884 84.7124 210.392 84.7124 209.712V209.172ZM83.2364 208.932C83.7324 208.932 84.2244 208.748 84.7124 208.38V205.224C84.4724 205.04 84.2284 204.908 83.9804 204.828C83.7324 204.74 83.4604 204.696 83.1644 204.696C82.1244 204.696 81.6044 205.404 81.6044 206.82C81.6044 207.516 81.7404 208.044 82.0124 208.404C82.2924 208.756 82.7004 208.932 83.2364 208.932ZM91.7813 210V205.932C91.7813 205.508 91.6933 205.196 91.5173 204.996C91.3493 204.796 91.0813 204.696 90.7133 204.696C90.0813 204.696 89.4613 204.9 88.8533 205.308V210H87.6653V203.916H88.6613L88.7813 204.588C89.5413 204.02 90.3413 203.736 91.1813 203.736C91.7653 203.736 92.2093 203.892 92.5133 204.204C92.8173 204.508 92.9693 204.952 92.9693 205.536V210H91.7813ZM99.8047 210V202.692H97.1527V201.684H103.681V202.692H101.029V210H99.8047ZM104.799 210V203.916H105.987V210H104.799ZM105.399 202.836C105.167 202.836 104.983 202.772 104.847 202.644C104.719 202.508 104.655 202.332 104.655 202.116C104.655 201.9 104.719 201.728 104.847 201.6C104.983 201.464 105.167 201.396 105.399 201.396C105.631 201.396 105.811 201.464 105.939 201.6C106.075 201.728 106.143 201.9 106.143 202.116C106.143 202.332 106.075 202.508 105.939 202.644C105.811 202.772 105.631 202.836 105.399 202.836ZM115.586 210V205.872C115.586 205.472 115.51 205.176 115.358 204.984C115.206 204.792 114.966 204.696 114.638 204.696C114.054 204.696 113.466 204.876 112.874 205.236C112.882 205.292 112.886 205.352 112.886 205.416C112.886 205.48 112.886 205.544 112.886 205.608V210H111.698V205.872C111.698 205.472 111.622 205.176 111.47 204.984C111.318 204.792 111.078 204.696 110.75 204.696C110.142 204.696 109.558 204.872 108.998 205.224V210H107.81V203.916H108.806L108.926 204.528C109.694 204 110.442 203.736 111.17 203.736C111.914 203.736 112.418 204.02 112.682 204.588C113.474 204.02 114.266 203.736 115.058 203.736C115.61 203.736 116.034 203.892 116.33 204.204C116.626 204.516 116.774 204.96 116.774 205.536V210H115.586ZM119.361 207.216C119.377 207.904 119.545 208.412 119.865 208.74C120.193 209.068 120.697 209.232 121.377 209.232C122.009 209.232 122.653 209.108 123.309 208.86V209.712C122.733 210.024 122.029 210.18 121.197 210.18C120.213 210.18 119.469 209.908 118.965 209.364C118.461 208.82 118.209 208.016 118.209 206.952C118.209 205.936 118.461 205.148 118.965 204.588C119.469 204.02 120.173 203.736 121.077 203.736C121.837 203.736 122.421 203.952 122.829 204.384C123.237 204.808 123.441 205.412 123.441 206.196C123.441 206.572 123.409 206.912 123.345 207.216H119.361ZM121.017 204.636C120.513 204.636 120.121 204.788 119.841 205.092C119.561 205.388 119.401 205.832 119.361 206.424H122.349C122.357 206.36 122.361 206.256 122.361 206.112C122.361 205.624 122.245 205.256 122.013 205.008C121.789 204.76 121.457 204.636 121.017 204.636ZM127.044 209.916C126.78 210.012 126.492 210.06 126.18 210.06C125.756 210.06 125.432 209.94 125.208 209.7C124.984 209.452 124.872 209.1 124.872 208.644V201.12H126.06V208.572C126.06 208.756 126.096 208.892 126.168 208.98C126.248 209.06 126.376 209.1 126.552 209.1C126.712 209.1 126.876 209.088 127.044 209.064V209.916ZM128.342 210V203.916H129.53V210H128.342ZM128.942 202.836C128.71 202.836 128.526 202.772 128.39 202.644C128.262 202.508 128.198 202.332 128.198 202.116C128.198 201.9 128.262 201.728 128.39 201.6C128.526 201.464 128.71 201.396 128.942 201.396C129.174 201.396 129.354 201.464 129.482 201.6C129.618 201.728 129.686 201.9 129.686 202.116C129.686 202.332 129.618 202.508 129.482 202.644C129.354 202.772 129.174 202.836 128.942 202.836ZM135.469 210V205.932C135.469 205.508 135.381 205.196 135.205 204.996C135.037 204.796 134.769 204.696 134.401 204.696C133.769 204.696 133.149 204.9 132.541 205.308V210H131.353V203.916H132.349L132.469 204.588C133.229 204.02 134.029 203.736 134.869 203.736C135.453 203.736 135.897 203.892 136.201 204.204C136.505 204.508 136.657 204.952 136.657 205.536V210H135.469ZM139.248 207.216C139.264 207.904 139.432 208.412 139.752 208.74C140.08 209.068 140.584 209.232 141.264 209.232C141.896 209.232 142.54 209.108 143.196 208.86V209.712C142.62 210.024 141.916 210.18 141.084 210.18C140.1 210.18 139.356 209.908 138.852 209.364C138.348 208.82 138.096 208.016 138.096 206.952C138.096 205.936 138.348 205.148 138.852 204.588C139.356 204.02 140.06 203.736 140.964 203.736C141.724 203.736 142.308 203.952 142.716 204.384C143.124 204.808 143.328 205.412 143.328 206.196C143.328 206.572 143.296 206.912 143.232 207.216H139.248ZM140.904 204.636C140.4 204.636 140.008 204.788 139.728 205.092C139.448 205.388 139.288 205.832 139.248 206.424H142.236C142.244 206.36 142.248 206.256 142.248 206.112C142.248 205.624 142.132 205.256 141.9 205.008C141.676 204.76 141.344 204.636 140.904 204.636Z" fill="#232F3E"/>
<path d="M41.532 275.8C40.916 275.56 40.464 275.276 40.176 274.948C39.888 274.612 39.744 274.2 39.744 273.712C39.744 273.048 39.98 272.512 40.452 272.104C40.932 271.688 41.56 271.48 42.336 271.48C42.688 271.48 43.056 271.524 43.44 271.612C43.832 271.692 44.2 271.808 44.544 271.96V272.572C43.728 272.284 43.004 272.14 42.372 272.14C41.756 272.14 41.284 272.276 40.956 272.548C40.628 272.812 40.464 273.192 40.464 273.688C40.464 273.968 40.512 274.196 40.608 274.372C40.712 274.54 40.876 274.696 41.1 274.84C41.332 274.976 41.66 275.124 42.084 275.284L43.368 275.776C43.944 276 44.364 276.276 44.628 276.604C44.892 276.924 45.024 277.328 45.024 277.816C45.024 278.528 44.76 279.104 44.232 279.544C43.712 279.984 43.024 280.204 42.168 280.204C41.28 280.204 40.488 280.036 39.792 279.7V279.088C40.632 279.392 41.404 279.544 42.108 279.544C42.772 279.544 43.3 279.388 43.692 279.076C44.092 278.764 44.292 278.34 44.292 277.804C44.292 277.476 44.184 277.196 43.968 276.964C43.752 276.732 43.404 276.524 42.924 276.34L41.532 275.8ZM49.676 279.868C49.34 280.004 48.936 280.072 48.464 280.072C47.992 280.072 47.632 279.948 47.384 279.7C47.136 279.444 47.012 279.076 47.012 278.596V274.564H45.884V274.084L47.036 273.976L47.132 272.212H47.696V273.964H49.616V274.564H47.696V278.56C47.696 278.888 47.764 279.12 47.9 279.256C48.044 279.392 48.28 279.46 48.608 279.46C48.936 279.46 49.292 279.412 49.676 279.316V279.868ZM54.5876 280L54.5276 279.304C53.8396 279.856 53.1196 280.132 52.3676 280.132C51.8156 280.132 51.3756 279.976 51.0476 279.664C50.7276 279.344 50.5676 278.92 50.5676 278.392C50.5676 277.808 50.7676 277.348 51.1676 277.012C51.5676 276.676 52.1116 276.508 52.7996 276.508C53.3356 276.508 53.9076 276.6 54.5156 276.784V275.776C54.5156 275.288 54.3996 274.94 54.1676 274.732C53.9356 274.516 53.5516 274.408 53.0156 274.408C52.3756 274.408 51.6916 274.536 50.9636 274.792V274.228C51.2676 274.092 51.6116 273.984 51.9956 273.904C52.3796 273.824 52.7556 273.784 53.1236 273.784C53.8276 273.784 54.3476 273.932 54.6836 274.228C55.0276 274.524 55.1996 274.972 55.1996 275.572V280H54.5876ZM52.4636 279.508C52.7676 279.508 53.0956 279.448 53.4476 279.328C53.7996 279.2 54.1556 279.024 54.5156 278.8V277.3C53.9796 277.156 53.4596 277.084 52.9556 277.084C51.8356 277.084 51.2756 277.516 51.2756 278.38C51.2756 278.748 51.3756 279.028 51.5756 279.22C51.7756 279.412 52.0716 279.508 52.4636 279.508ZM57.0454 280V273.964H57.6454L57.7174 274.84C58.0214 274.504 58.3174 274.268 58.6054 274.132C58.9014 273.988 59.2334 273.916 59.6014 273.916C59.7374 273.916 59.9014 273.928 60.0934 273.952V274.564C59.8854 274.548 59.6974 274.54 59.5294 274.54C59.1614 274.54 58.8334 274.608 58.5454 274.744C58.2654 274.88 57.9934 275.1 57.7294 275.404V280H57.0454ZM64.4768 279.868C64.1408 280.004 63.7368 280.072 63.2648 280.072C62.7928 280.072 62.4328 279.948 62.1848 279.7C61.9368 279.444 61.8128 279.076 61.8128 278.596V274.564H60.6848V274.084L61.8368 273.976L61.9328 272.212H62.4968V273.964H64.4168V274.564H62.4968V278.56C62.4968 278.888 62.5648 279.12 62.7008 279.256C62.8448 279.392 63.0808 279.46 63.4088 279.46C63.7368 279.46 64.0928 279.412 64.4768 279.316V279.868ZM69.013 280V271.684H71.521C72.729 271.684 73.645 272.04 74.269 272.752C74.893 273.456 75.205 274.488 75.205 275.848C75.205 277.2 74.881 278.232 74.233 278.944C73.585 279.648 72.649 280 71.425 280H69.013ZM69.721 272.272V279.412H71.341C72.373 279.412 73.149 279.128 73.669 278.56C74.197 277.984 74.461 277.128 74.461 275.992V275.692C74.461 273.412 73.425 272.272 71.353 272.272H69.721ZM80.5915 280L80.5315 279.304C79.8435 279.856 79.1235 280.132 78.3715 280.132C77.8195 280.132 77.3795 279.976 77.0515 279.664C76.7315 279.344 76.5715 278.92 76.5715 278.392C76.5715 277.808 76.7715 277.348 77.1715 277.012C77.5715 276.676 78.1155 276.508 78.8035 276.508C79.3395 276.508 79.9115 276.6 80.5195 276.784V275.776C80.5195 275.288 80.4035 274.94 80.1715 274.732C79.9395 274.516 79.5555 274.408 79.0195 274.408C78.3795 274.408 77.6955 274.536 76.9675 274.792V274.228C77.2715 274.092 77.6155 273.984 77.9995 273.904C78.3835 273.824 78.7595 273.784 79.1275 273.784C79.8315 273.784 80.3515 273.932 80.6875 274.228C81.0315 274.524 81.2035 274.972 81.2035 275.572V280H80.5915ZM78.4675 279.508C78.7715 279.508 79.0995 279.448 79.4515 279.328C79.8035 279.2 80.1595 279.024 80.5195 278.8V277.3C79.9835 277.156 79.4635 277.084 78.9595 277.084C77.8395 277.084 77.2795 277.516 77.2795 278.38C77.2795 278.748 77.3795 279.028 77.5795 279.22C77.7795 279.412 78.0755 279.508 78.4675 279.508ZM86.1213 279.868C85.7853 280.004 85.3813 280.072 84.9093 280.072C84.4373 280.072 84.0773 279.948 83.8293 279.7C83.5813 279.444 83.4573 279.076 83.4573 278.596V274.564H82.3293V274.084L83.4813 273.976L83.5773 272.212H84.1413V273.964H86.0613V274.564H84.1413V278.56C84.1413 278.888 84.2093 279.12 84.3453 279.256C84.4893 279.392 84.7253 279.46 85.0533 279.46C85.3813 279.46 85.7373 279.412 86.1213 279.316V279.868ZM87.6638 277.096C87.6718 277.936 87.8558 278.556 88.2158 278.956C88.5758 279.356 89.1318 279.556 89.8838 279.556C90.5718 279.556 91.2318 279.416 91.8638 279.136V279.7C91.2958 280.02 90.6198 280.18 89.8358 280.18C88.8838 280.18 88.1678 279.912 87.6878 279.376C87.2078 278.832 86.9678 278.028 86.9678 276.964C86.9678 275.956 87.2078 275.176 87.6878 274.624C88.1758 274.064 88.8558 273.784 89.7278 273.784C90.4558 273.784 91.0118 273.992 91.3958 274.408C91.7878 274.824 91.9838 275.42 91.9838 276.196C91.9838 276.556 91.9598 276.856 91.9118 277.096H87.6638ZM89.6678 274.396C88.4038 274.396 87.7358 275.112 87.6638 276.544H91.3118C91.3198 276.432 91.3238 276.3 91.3238 276.148C91.3238 275.572 91.1838 275.136 90.9038 274.84C90.6238 274.544 90.2118 274.396 89.6678 274.396Z" fill="#232F3E"/>
<path d="M462.056 280V271.684H466.964V272.32H462.764V275.38H466.364V276.016H462.764V279.364H466.964V280H462.056ZM472.783 280V275.896C472.783 275.376 472.683 275 472.483 274.768C472.283 274.528 471.963 274.408 471.523 274.408C470.723 274.408 469.943 274.664 469.183 275.176V280H468.499V273.964H469.099L469.171 274.66C469.563 274.38 469.975 274.164 470.407 274.012C470.839 273.86 471.259 273.784 471.667 273.784C472.251 273.784 472.695 273.94 472.999 274.252C473.311 274.556 473.467 275.008 473.467 275.608V280H472.783ZM479.687 280L479.615 279.328C479.319 279.576 478.987 279.772 478.619 279.916C478.259 280.06 477.911 280.132 477.575 280.132C476.783 280.132 476.155 279.856 475.691 279.304C475.235 278.744 475.007 277.98 475.007 277.012C475.007 276.02 475.239 275.236 475.703 274.66C476.167 274.076 476.799 273.784 477.599 273.784C478.343 273.784 479.015 274.048 479.615 274.576V271.12H480.299V280H479.687ZM477.731 279.508C478.331 279.508 478.959 279.252 479.615 278.74V275.188C479.279 274.916 478.955 274.72 478.643 274.6C478.339 274.472 478.015 274.408 477.671 274.408C477.031 274.408 476.543 274.624 476.207 275.056C475.879 275.488 475.715 276.128 475.715 276.976C475.715 278.664 476.387 279.508 477.731 279.508ZM485.435 280V271.684H487.943C489.151 271.684 490.067 272.04 490.691 272.752C491.315 273.456 491.627 274.488 491.627 275.848C491.627 277.2 491.303 278.232 490.655 278.944C490.007 279.648 489.071 280 487.847 280H485.435ZM486.143 272.272V279.412H487.763C488.795 279.412 489.571 279.128 490.091 278.56C490.619 277.984 490.883 277.128 490.883 275.992V275.692C490.883 273.412 489.847 272.272 487.775 272.272H486.143ZM497.013 280L496.953 279.304C496.265 279.856 495.545 280.132 494.793 280.132C494.241 280.132 493.801 279.976 493.473 279.664C493.153 279.344 492.993 278.92 492.993 278.392C492.993 277.808 493.193 277.348 493.593 277.012C493.993 276.676 494.537 276.508 495.225 276.508C495.761 276.508 496.333 276.6 496.941 276.784V275.776C496.941 275.288 496.825 274.94 496.593 274.732C496.361 274.516 495.977 274.408 495.441 274.408C494.801 274.408 494.117 274.536 493.389 274.792V274.228C493.693 274.092 494.037 273.984 494.421 273.904C494.805 273.824 495.181 273.784 495.549 273.784C496.253 273.784 496.773 273.932 497.109 274.228C497.453 274.524 497.625 274.972 497.625 275.572V280H497.013ZM494.889 279.508C495.193 279.508 495.521 279.448 495.873 279.328C496.225 279.2 496.581 279.024 496.941 278.8V277.3C496.405 277.156 495.885 277.084 495.381 277.084C494.261 277.084 493.701 277.516 493.701 278.38C493.701 278.748 493.801 279.028 494.001 279.22C494.201 279.412 494.497 279.508 494.889 279.508ZM502.543 279.868C502.207 280.004 501.803 280.072 501.331 280.072C500.859 280.072 500.499 279.948 500.251 279.7C500.003 279.444 499.879 279.076 499.879 278.596V274.564H498.751V274.084L499.903 273.976L499.999 272.212H500.563V273.964H502.483V274.564H500.563V278.56C500.563 278.888 500.631 279.12 500.767 279.256C500.911 279.392 501.147 279.46 501.475 279.46C501.803 279.46 502.159 279.412 502.543 279.316V279.868ZM504.086 277.096C504.094 277.936 504.278 278.556 504.638 278.956C504.998 279.356 505.554 279.556 506.306 279.556C506.994 279.556 507.654 279.416 508.286 279.136V279.7C507.718 280.02 507.042 280.18 506.258 280.18C505.306 280.18 504.59 279.912 504.11 279.376C503.63 278.832 503.39 278.028 503.39 276.964C503.39 275.956 503.63 275.176 504.11 274.624C504.598 274.064 505.278 273.784 506.15 273.784C506.878 273.784 507.434 273.992 507.818 274.408C508.21 274.824 508.406 275.42 508.406 276.196C508.406 276.556 508.382 276.856 508.334 277.096H504.086ZM506.09 274.396C504.826 274.396 504.158 275.112 504.086 276.544H507.734C507.742 276.432 507.746 276.3 507.746 276.148C507.746 275.572 507.606 275.136 507.326 274.84C507.046 274.544 506.634 274.396 506.09 274.396Z" fill="#232F3E"/>
<path d="M41.832 118.986V111.678H39.18V110.67H45.708V111.678H43.056V118.986H41.832ZM48.7144 119.166C47.8024 119.166 47.0904 118.882 46.5784 118.314C46.0664 117.746 45.8104 116.954 45.8104 115.938C45.8104 114.93 46.0664 114.142 46.5784 113.574C47.0904 113.006 47.8024 112.722 48.7144 112.722C49.6264 112.722 50.3384 113.006 50.8504 113.574C51.3624 114.142 51.6184 114.93 51.6184 115.938C51.6184 116.954 51.3624 117.746 50.8504 118.314C50.3384 118.882 49.6264 119.166 48.7144 119.166ZM48.7144 118.206C49.8424 118.206 50.4064 117.45 50.4064 115.938C50.4064 114.434 49.8424 113.682 48.7144 113.682C47.5864 113.682 47.0224 114.434 47.0224 115.938C47.0224 117.45 47.5864 118.206 48.7144 118.206ZM56.5033 118.842C56.1113 118.994 55.6673 119.07 55.1713 119.07C54.0353 119.07 53.4673 118.502 53.4673 117.366V113.838H52.3633V113.07L53.5033 112.926L53.6833 111.198H54.6553V112.902H56.4553V113.838H54.6553V117.306C54.6553 117.602 54.7193 117.81 54.8473 117.93C54.9833 118.05 55.2113 118.11 55.5313 118.11C55.8593 118.11 56.1833 118.07 56.5033 117.99V118.842ZM61.2531 118.986L61.1571 118.362C60.8691 118.61 60.5491 118.802 60.1971 118.938C59.8531 119.074 59.5091 119.142 59.1651 119.142C58.5971 119.142 58.1411 118.982 57.7971 118.662C57.4611 118.334 57.2931 117.898 57.2931 117.354C57.2931 116.77 57.5011 116.306 57.9171 115.962C58.3331 115.61 58.8931 115.434 59.5971 115.434C60.0611 115.434 60.5651 115.502 61.1091 115.638V114.846C61.1091 114.414 61.0091 114.11 60.8091 113.934C60.6171 113.758 60.2851 113.67 59.8131 113.67C59.1331 113.67 58.4291 113.794 57.7011 114.042V113.202C57.9891 113.05 58.3411 112.934 58.7571 112.854C59.1731 112.766 59.5931 112.722 60.0171 112.722C60.7771 112.722 61.3371 112.882 61.6971 113.202C62.0571 113.514 62.2371 113.994 62.2371 114.642V118.986H61.2531ZM59.4531 118.242C59.9971 118.242 60.5491 118.038 61.1091 117.63V116.406C60.6931 116.302 60.2691 116.25 59.8371 116.25C58.9331 116.25 58.4811 116.598 58.4811 117.294C58.4811 117.598 58.5651 117.834 58.7331 118.002C58.9011 118.162 59.1411 118.242 59.4531 118.242ZM66.1772 118.902C65.9132 118.998 65.6252 119.046 65.3132 119.046C64.8892 119.046 64.5652 118.926 64.3412 118.686C64.1172 118.438 64.0052 118.086 64.0052 117.63V110.106H65.1932V117.558C65.1932 117.742 65.2292 117.878 65.3012 117.966C65.3812 118.046 65.5092 118.086 65.6852 118.086C65.8452 118.086 66.0092 118.074 66.1772 118.05V118.902ZM70.6877 118.986V110.67H73.4357C74.2117 110.67 74.8357 110.87 75.3077 111.27C75.7797 111.67 76.0157 112.202 76.0157 112.866C76.0157 113.282 75.9197 113.642 75.7277 113.946C75.5357 114.242 75.2597 114.47 74.8997 114.63C75.4117 114.782 75.8037 115.034 76.0757 115.386C76.3477 115.73 76.4837 116.158 76.4837 116.67C76.4837 117.374 76.2357 117.938 75.7397 118.362C75.2437 118.778 74.5797 118.986 73.7477 118.986H70.6877ZM71.8517 115.194V118.05H73.7237C74.7397 118.05 75.2477 117.574 75.2477 116.622C75.2477 116.15 75.1157 115.794 74.8517 115.554C74.5957 115.314 74.2117 115.194 73.6997 115.194H71.8517ZM71.8517 111.606V114.282H73.3157C74.3077 114.282 74.8037 113.838 74.8037 112.95C74.8037 112.51 74.6797 112.178 74.4317 111.954C74.1917 111.722 73.8317 111.606 73.3517 111.606H71.8517ZM82.0671 118.986L81.9351 118.338C81.1911 118.89 80.4271 119.166 79.6431 119.166C79.0751 119.166 78.6391 119.006 78.3351 118.686C78.0311 118.366 77.8791 117.914 77.8791 117.33V112.902H79.0671V116.946C79.0671 117.378 79.1511 117.698 79.3191 117.906C79.4871 118.106 79.7551 118.206 80.1231 118.206C80.6991 118.206 81.2791 118.014 81.8631 117.63V112.902H83.0511V118.986H82.0671ZM89.1494 118.986L88.9934 118.362C88.7294 118.602 88.4294 118.79 88.0934 118.926C87.7574 119.054 87.4174 119.118 87.0734 119.118C86.5694 119.118 86.1254 118.994 85.7414 118.746C85.3574 118.498 85.0574 118.138 84.8414 117.666C84.6254 117.186 84.5174 116.622 84.5174 115.974C84.5174 115.326 84.6214 114.758 84.8294 114.27C85.0374 113.782 85.3334 113.402 85.7174 113.13C86.1094 112.858 86.5734 112.722 87.1094 112.722C87.7894 112.722 88.4014 112.946 88.9454 113.394V110.106H90.1334V118.986H89.1494ZM87.4334 118.158C87.9294 118.158 88.4334 117.974 88.9454 117.606V114.21C88.6974 114.026 88.4454 113.894 88.1894 113.814C87.9414 113.726 87.6654 113.682 87.3614 113.682C86.2734 113.682 85.7294 114.434 85.7294 115.938C85.7294 117.418 86.2974 118.158 87.4334 118.158ZM95.9155 118.158C95.6435 118.39 95.3515 118.57 95.0395 118.698C94.7275 118.818 94.4115 118.878 94.0915 118.878C93.6035 118.878 93.1715 118.758 92.7955 118.518C92.4195 118.278 92.1235 117.93 91.9075 117.474C91.6995 117.01 91.5955 116.47 91.5955 115.854C91.5955 114.894 91.8235 114.134 92.2795 113.574C92.7355 113.006 93.3475 112.722 94.1155 112.722C94.8355 112.722 95.4635 112.97 95.9995 113.466L96.0955 112.902H97.0915V118.614C97.0915 119.566 96.8355 120.302 96.3235 120.822C95.8195 121.342 95.0995 121.602 94.1635 121.602C93.4115 121.602 92.7195 121.442 92.0875 121.122V120.27C92.8235 120.518 93.4835 120.642 94.0675 120.642C94.7075 120.642 95.1755 120.486 95.4715 120.174C95.7675 119.87 95.9155 119.378 95.9155 118.698V118.158ZM94.4395 117.918C94.9355 117.918 95.4275 117.734 95.9155 117.366V114.21C95.6755 114.026 95.4315 113.894 95.1835 113.814C94.9355 113.726 94.6635 113.682 94.3675 113.682C93.3275 113.682 92.8075 114.39 92.8075 115.806C92.8075 116.502 92.9435 117.03 93.2155 117.39C93.4955 117.742 93.9035 117.918 94.4395 117.918ZM99.7085 116.202C99.7245 116.89 99.8925 117.398 100.212 117.726C100.54 118.054 101.044 118.218 101.724 118.218C102.356 118.218 103 118.094 103.656 117.846V118.698C103.08 119.01 102.376 119.166 101.544 119.166C100.56 119.166 99.8165 118.894 99.3125 118.35C98.8085 117.806 98.5565 117.002 98.5565 115.938C98.5565 114.922 98.8085 114.134 99.3125 113.574C99.8165 113.006 100.52 112.722 101.424 112.722C102.184 112.722 102.768 112.938 103.176 113.37C103.584 113.794 103.788 114.398 103.788 115.182C103.788 115.558 103.756 115.898 103.692 116.202H99.7085ZM101.364 113.622C100.86 113.622 100.468 113.774 100.188 114.078C99.9085 114.374 99.7485 114.818 99.7085 115.41H102.696C102.704 115.346 102.708 115.242 102.708 115.098C102.708 114.61 102.592 114.242 102.36 113.994C102.136 113.746 101.804 113.622 101.364 113.622ZM108.64 118.842C108.248 118.994 107.804 119.07 107.308 119.07C106.172 119.07 105.604 118.502 105.604 117.366V113.838H104.5V113.07L105.64 112.926L105.82 111.198H106.792V112.902H108.592V113.838H106.792V117.306C106.792 117.602 106.856 117.81 106.984 117.93C107.12 118.05 107.348 118.11 107.668 118.11C107.996 118.11 108.32 118.07 108.64 117.99V118.842Z" fill="#232F3E"/>
<rect x="39.5" y="128.486" width="171.891" height="49" rx="9.5" stroke="#808285" stroke-opacity="0.5"/>
<path d="M78.1493 158.546V157.082C77.3653 157.05 76.6173 156.818 75.9053 156.386V155.762C76.6813 156.186 77.4293 156.422 78.1493 156.47V153.062L77.6093 152.858C77.0173 152.634 76.5813 152.358 76.3013 152.03C76.0213 151.694 75.8813 151.298 75.8813 150.842C75.8813 150.194 76.0853 149.67 76.4933 149.27C76.9093 148.87 77.4613 148.658 78.1493 148.634V147.182H78.7253V148.646C79.4133 148.71 80.0453 148.93 80.6213 149.306V149.93C79.9333 149.53 79.3013 149.306 78.7253 149.258V152.582L79.3613 152.822C79.9293 153.03 80.3493 153.294 80.6213 153.614C80.9013 153.934 81.0413 154.318 81.0413 154.766C81.0413 155.414 80.8333 155.946 80.4173 156.362C80.0013 156.778 79.4373 157.018 78.7253 157.082V158.546H78.1493ZM80.3573 154.754C80.3573 154.402 80.2373 154.11 79.9973 153.878C79.7573 153.646 79.3333 153.426 78.7253 153.218V156.47C79.2533 156.398 79.6573 156.214 79.9373 155.918C80.2173 155.622 80.3573 155.234 80.3573 154.754ZM76.5533 150.866C76.5533 151.226 76.6733 151.522 76.9133 151.754C77.1533 151.986 77.5653 152.206 78.1493 152.414V149.246C77.6213 149.278 77.2213 149.43 76.9493 149.702C76.6853 149.974 76.5533 150.362 76.5533 150.866ZM85.9126 156.986V149.414L83.4526 150.458V149.858L85.9126 148.67H86.6086V156.986H85.9126ZM89.9438 156.098C90.7918 156.378 91.5238 156.518 92.1398 156.518C92.8518 156.518 93.3998 156.354 93.7838 156.026C94.1758 155.698 94.3718 155.238 94.3718 154.646C94.3718 153.942 94.1918 153.442 93.8318 153.146C93.4798 152.842 92.8918 152.69 92.0678 152.69C91.6678 152.69 91.0798 152.73 90.3038 152.81V152.27L90.5438 148.67H94.6358V149.306H91.1678L90.9878 152.162C91.4518 152.082 91.8878 152.042 92.2958 152.042C93.1918 152.042 93.8798 152.27 94.3598 152.726C94.8478 153.174 95.0918 153.814 95.0918 154.646C95.0918 155.134 94.9678 155.57 94.7198 155.954C94.4798 156.33 94.1318 156.626 93.6758 156.842C93.2278 157.058 92.6998 157.166 92.0918 157.166C91.3078 157.166 90.5918 157.01 89.9438 156.698V156.098ZM96.4351 158.75L96.9631 155.99H97.2511C97.4111 155.99 97.5271 156.014 97.5991 156.062C97.6711 156.102 97.7071 156.17 97.7071 156.266C97.7071 156.346 97.6631 156.534 97.5751 156.83L96.9631 158.75H96.4351ZM102.121 156.518C102.873 156.518 103.429 156.218 103.789 155.618C104.157 155.018 104.341 154.094 104.341 152.846C104.341 151.598 104.157 150.67 103.789 150.062C103.429 149.454 102.873 149.15 102.121 149.15C101.369 149.15 100.809 149.454 100.441 150.062C100.081 150.67 99.9015 151.598 99.9015 152.846C99.9015 154.094 100.081 155.018 100.441 155.618C100.809 156.218 101.369 156.518 102.121 156.518ZM102.121 157.166C101.161 157.166 100.429 156.802 99.9255 156.074C99.4295 155.338 99.1815 154.262 99.1815 152.846C99.1815 151.43 99.4295 150.354 99.9255 149.618C100.429 148.874 101.161 148.502 102.121 148.502C103.081 148.502 103.809 148.874 104.305 149.618C104.809 150.354 105.061 151.43 105.061 152.846C105.061 154.262 104.809 155.338 104.305 156.074C103.809 156.802 103.081 157.166 102.121 157.166ZM109.153 156.518C109.905 156.518 110.461 156.218 110.821 155.618C111.189 155.018 111.373 154.094 111.373 152.846C111.373 151.598 111.189 150.67 110.821 150.062C110.461 149.454 109.905 149.15 109.153 149.15C108.401 149.15 107.841 149.454 107.473 150.062C107.113 150.67 106.933 151.598 106.933 152.846C106.933 154.094 107.113 155.018 107.473 155.618C107.841 156.218 108.401 156.518 109.153 156.518ZM109.153 157.166C108.193 157.166 107.461 156.802 106.957 156.074C106.461 155.338 106.213 154.262 106.213 152.846C106.213 151.43 106.461 150.354 106.957 149.618C107.461 148.874 108.193 148.502 109.153 148.502C110.113 148.502 110.841 148.874 111.337 149.618C111.841 150.354 112.093 151.43 112.093 152.846C112.093 154.262 111.841 155.338 111.337 156.074C110.841 156.802 110.113 157.166 109.153 157.166ZM116.184 156.518C116.936 156.518 117.492 156.218 117.852 155.618C118.22 155.018 118.404 154.094 118.404 152.846C118.404 151.598 118.22 150.67 117.852 150.062C117.492 149.454 116.936 149.15 116.184 149.15C115.432 149.15 114.872 149.454 114.504 150.062C114.144 150.67 113.964 151.598 113.964 152.846C113.964 154.094 114.144 155.018 114.504 155.618C114.872 156.218 115.432 156.518 116.184 156.518ZM116.184 157.166C115.224 157.166 114.492 156.802 113.988 156.074C113.492 155.338 113.244 154.262 113.244 152.846C113.244 151.43 113.492 150.354 113.988 149.618C114.492 148.874 115.224 148.502 116.184 148.502C117.144 148.502 117.872 148.874 118.368 149.618C118.872 150.354 119.124 151.43 119.124 152.846C119.124 154.262 118.872 155.338 118.368 156.074C117.872 156.802 117.144 157.166 116.184 157.166ZM123.44 154.19V153.554H126.788V154.19H123.44ZM133.731 158.546V157.082C132.947 157.05 132.199 156.818 131.487 156.386V155.762C132.263 156.186 133.011 156.422 133.731 156.47V153.062L133.191 152.858C132.599 152.634 132.163 152.358 131.883 152.03C131.603 151.694 131.463 151.298 131.463 150.842C131.463 150.194 131.667 149.67 132.075 149.27C132.491 148.87 133.043 148.658 133.731 148.634V147.182H134.307V148.646C134.995 148.71 135.627 148.93 136.203 149.306V149.93C135.515 149.53 134.883 149.306 134.307 149.258V152.582L134.943 152.822C135.511 153.03 135.931 153.294 136.203 153.614C136.483 153.934 136.623 154.318 136.623 154.766C136.623 155.414 136.415 155.946 135.999 156.362C135.583 156.778 135.019 157.018 134.307 157.082V158.546H133.731ZM135.939 154.754C135.939 154.402 135.819 154.11 135.579 153.878C135.339 153.646 134.915 153.426 134.307 153.218V156.47C134.835 156.398 135.239 156.214 135.519 155.918C135.799 155.622 135.939 155.234 135.939 154.754ZM132.135 150.866C132.135 151.226 132.255 151.522 132.495 151.754C132.735 151.986 133.147 152.206 133.731 152.414V149.246C133.203 149.278 132.803 149.43 132.531 149.702C132.267 149.974 132.135 150.362 132.135 150.866ZM140.379 152.354C140.571 152.33 140.779 152.318 141.003 152.318C141.763 152.318 142.371 152.534 142.827 152.966C143.291 153.398 143.523 153.97 143.523 154.682C143.523 155.434 143.251 156.038 142.707 156.494C142.171 156.942 141.451 157.166 140.547 157.166C139.803 157.166 139.067 157.006 138.339 156.686V156.086C138.843 156.246 139.259 156.358 139.587 156.422C139.915 156.486 140.247 156.518 140.583 156.518C141.287 156.518 141.831 156.358 142.215 156.038C142.607 155.718 142.803 155.266 142.803 154.682C142.803 153.506 142.087 152.918 140.655 152.918C140.239 152.918 139.855 152.934 139.503 152.966V152.438L142.359 149.306H138.459V148.67H143.187V149.294L140.379 152.354ZM148.106 156.518C148.858 156.518 149.414 156.218 149.774 155.618C150.142 155.018 150.326 154.094 150.326 152.846C150.326 151.598 150.142 150.67 149.774 150.062C149.414 149.454 148.858 149.15 148.106 149.15C147.354 149.15 146.794 149.454 146.426 150.062C146.066 150.67 145.886 151.598 145.886 152.846C145.886 154.094 146.066 155.018 146.426 155.618C146.794 156.218 147.354 156.518 148.106 156.518ZM148.106 157.166C147.146 157.166 146.414 156.802 145.91 156.074C145.414 155.338 145.166 154.262 145.166 152.846C145.166 151.43 145.414 150.354 145.91 149.618C146.414 148.874 147.146 148.502 148.106 148.502C149.066 148.502 149.794 148.874 150.29 149.618C150.794 150.354 151.046 151.43 151.046 152.846C151.046 154.262 150.794 155.338 150.29 156.074C149.794 156.802 149.066 157.166 148.106 157.166ZM152.017 158.75L152.545 155.99H152.833C152.993 155.99 153.109 156.014 153.181 156.062C153.253 156.102 153.289 156.17 153.289 156.266C153.289 156.346 153.245 156.534 153.157 156.83L152.545 158.75H152.017ZM157.704 156.518C158.456 156.518 159.012 156.218 159.372 155.618C159.74 155.018 159.924 154.094 159.924 152.846C159.924 151.598 159.74 150.67 159.372 150.062C159.012 149.454 158.456 149.15 157.704 149.15C156.952 149.15 156.392 149.454 156.024 150.062C155.664 150.67 155.484 151.598 155.484 152.846C155.484 154.094 155.664 155.018 156.024 155.618C156.392 156.218 156.952 156.518 157.704 156.518ZM157.704 157.166C156.744 157.166 156.012 156.802 155.508 156.074C155.012 155.338 154.764 154.262 154.764 152.846C154.764 151.43 155.012 150.354 155.508 149.618C156.012 148.874 156.744 148.502 157.704 148.502C158.664 148.502 159.392 148.874 159.888 149.618C160.392 150.354 160.644 151.43 160.644 152.846C160.644 154.262 160.392 155.338 159.888 156.074C159.392 156.802 158.664 157.166 157.704 157.166ZM164.735 156.518C165.487 156.518 166.043 156.218 166.403 155.618C166.771 155.018 166.955 154.094 166.955 152.846C166.955 151.598 166.771 150.67 166.403 150.062C166.043 149.454 165.487 149.15 164.735 149.15C163.983 149.15 163.423 149.454 163.055 150.062C162.695 150.67 162.515 151.598 162.515 152.846C162.515 154.094 162.695 155.018 163.055 155.618C163.423 156.218 163.983 156.518 164.735 156.518ZM164.735 157.166C163.775 157.166 163.043 156.802 162.539 156.074C162.043 155.338 161.795 154.262 161.795 152.846C161.795 151.43 162.043 150.354 162.539 149.618C163.043 148.874 163.775 148.502 164.735 148.502C165.695 148.502 166.423 148.874 166.919 149.618C167.423 150.354 167.675 151.43 167.675 152.846C167.675 154.262 167.423 155.338 166.919 156.074C166.423 156.802 165.695 157.166 164.735 157.166ZM171.766 156.518C172.518 156.518 173.074 156.218 173.434 155.618C173.802 155.018 173.986 154.094 173.986 152.846C173.986 151.598 173.802 150.67 173.434 150.062C173.074 149.454 172.518 149.15 171.766 149.15C171.014 149.15 170.454 149.454 170.086 150.062C169.726 150.67 169.546 151.598 169.546 152.846C169.546 154.094 169.726 155.018 170.086 155.618C170.454 156.218 171.014 156.518 171.766 156.518ZM171.766 157.166C170.806 157.166 170.074 156.802 169.57 156.074C169.074 155.338 168.826 154.262 168.826 152.846C168.826 151.43 169.074 150.354 169.57 149.618C170.074 148.874 170.806 148.502 171.766 148.502C172.726 148.502 173.454 148.874 173.95 149.618C174.454 150.354 174.706 151.43 174.706 152.846C174.706 154.262 174.454 155.338 173.95 156.074C173.454 156.802 172.726 157.166 171.766 157.166Z" fill="#232F3E"/>
<rect x="241.5" y="128.5" width="171.891" height="49" rx="9.5" stroke="#808285" stroke-opacity="0.5"/>
<path d="M280.149 158.56V157.096C279.365 157.064 278.617 156.832 277.905 156.4V155.776C278.681 156.2 279.429 156.436 280.149 156.484V153.076L279.609 152.872C279.017 152.648 278.581 152.372 278.301 152.044C278.021 151.708 277.881 151.312 277.881 150.856C277.881 150.208 278.085 149.684 278.493 149.284C278.909 148.884 279.461 148.672 280.149 148.648V147.196H280.725V148.66C281.413 148.724 282.045 148.944 282.621 149.32V149.944C281.933 149.544 281.301 149.32 280.725 149.272V152.596L281.361 152.836C281.929 153.044 282.349 153.308 282.621 153.628C282.901 153.948 283.041 154.332 283.041 154.78C283.041 155.428 282.833 155.96 282.417 156.376C282.001 156.792 281.437 157.032 280.725 157.096V158.56H280.149ZM282.357 154.768C282.357 154.416 282.237 154.124 281.997 153.892C281.757 153.66 281.333 153.44 280.725 153.232V156.484C281.253 156.412 281.657 156.228 281.937 155.932C282.217 155.636 282.357 155.248 282.357 154.768ZM278.553 150.88C278.553 151.24 278.673 151.536 278.913 151.768C279.153 152 279.565 152.22 280.149 152.428V149.26C279.621 149.292 279.221 149.444 278.949 149.716C278.685 149.988 278.553 150.376 278.553 150.88ZM286.797 152.368C286.989 152.344 287.197 152.332 287.421 152.332C288.181 152.332 288.789 152.548 289.245 152.98C289.709 153.412 289.941 153.984 289.941 154.696C289.941 155.448 289.669 156.052 289.125 156.508C288.589 156.956 287.869 157.18 286.965 157.18C286.221 157.18 285.485 157.02 284.757 156.7V156.1C285.261 156.26 285.677 156.372 286.005 156.436C286.333 156.5 286.665 156.532 287.001 156.532C287.705 156.532 288.249 156.372 288.633 156.052C289.025 155.732 289.221 155.28 289.221 154.696C289.221 153.52 288.505 152.932 287.073 152.932C286.657 152.932 286.273 152.948 285.921 152.98V152.452L288.777 149.32H284.877V148.684H289.605V149.308L286.797 152.368ZM294.524 156.532C295.276 156.532 295.832 156.232 296.192 155.632C296.56 155.032 296.744 154.108 296.744 152.86C296.744 151.612 296.56 150.684 296.192 150.076C295.832 149.468 295.276 149.164 294.524 149.164C293.772 149.164 293.212 149.468 292.844 150.076C292.484 150.684 292.304 151.612 292.304 152.86C292.304 154.108 292.484 155.032 292.844 155.632C293.212 156.232 293.772 156.532 294.524 156.532ZM294.524 157.18C293.564 157.18 292.832 156.816 292.328 156.088C291.832 155.352 291.584 154.276 291.584 152.86C291.584 151.444 291.832 150.368 292.328 149.632C292.832 148.888 293.564 148.516 294.524 148.516C295.484 148.516 296.212 148.888 296.708 149.632C297.212 150.368 297.464 151.444 297.464 152.86C297.464 154.276 297.212 155.352 296.708 156.088C296.212 156.816 295.484 157.18 294.524 157.18ZM298.435 158.764L298.963 156.004H299.251C299.411 156.004 299.527 156.028 299.599 156.076C299.671 156.116 299.707 156.184 299.707 156.28C299.707 156.36 299.663 156.548 299.575 156.844L298.963 158.764H298.435ZM304.121 156.532C304.873 156.532 305.429 156.232 305.789 155.632C306.157 155.032 306.341 154.108 306.341 152.86C306.341 151.612 306.157 150.684 305.789 150.076C305.429 149.468 304.873 149.164 304.121 149.164C303.369 149.164 302.809 149.468 302.441 150.076C302.081 150.684 301.901 151.612 301.901 152.86C301.901 154.108 302.081 155.032 302.441 155.632C302.809 156.232 303.369 156.532 304.121 156.532ZM304.121 157.18C303.161 157.18 302.429 156.816 301.925 156.088C301.429 155.352 301.181 154.276 301.181 152.86C301.181 151.444 301.429 150.368 301.925 149.632C302.429 148.888 303.161 148.516 304.121 148.516C305.081 148.516 305.809 148.888 306.305 149.632C306.809 150.368 307.061 151.444 307.061 152.86C307.061 154.276 306.809 155.352 306.305 156.088C305.809 156.816 305.081 157.18 304.121 157.18ZM311.153 156.532C311.905 156.532 312.461 156.232 312.821 155.632C313.189 155.032 313.373 154.108 313.373 152.86C313.373 151.612 313.189 150.684 312.821 150.076C312.461 149.468 311.905 149.164 311.153 149.164C310.401 149.164 309.841 149.468 309.473 150.076C309.113 150.684 308.933 151.612 308.933 152.86C308.933 154.108 309.113 155.032 309.473 155.632C309.841 156.232 310.401 156.532 311.153 156.532ZM311.153 157.18C310.193 157.18 309.461 156.816 308.957 156.088C308.461 155.352 308.213 154.276 308.213 152.86C308.213 151.444 308.461 150.368 308.957 149.632C309.461 148.888 310.193 148.516 311.153 148.516C312.113 148.516 312.841 148.888 313.337 149.632C313.841 150.368 314.093 151.444 314.093 152.86C314.093 154.276 313.841 155.352 313.337 156.088C312.841 156.816 312.113 157.18 311.153 157.18ZM318.184 156.532C318.936 156.532 319.492 156.232 319.852 155.632C320.22 155.032 320.404 154.108 320.404 152.86C320.404 151.612 320.22 150.684 319.852 150.076C319.492 149.468 318.936 149.164 318.184 149.164C317.432 149.164 316.872 149.468 316.504 150.076C316.144 150.684 315.964 151.612 315.964 152.86C315.964 154.108 316.144 155.032 316.504 155.632C316.872 156.232 317.432 156.532 318.184 156.532ZM318.184 157.18C317.224 157.18 316.492 156.816 315.988 156.088C315.492 155.352 315.244 154.276 315.244 152.86C315.244 151.444 315.492 150.368 315.988 149.632C316.492 148.888 317.224 148.516 318.184 148.516C319.144 148.516 319.872 148.888 320.368 149.632C320.872 150.368 321.124 151.444 321.124 152.86C321.124 154.276 320.872 155.352 320.368 156.088C319.872 156.816 319.144 157.18 318.184 157.18ZM325.44 154.204V153.568H328.788V154.204H325.44ZM335.731 158.56V157.096C334.947 157.064 334.199 156.832 333.487 156.4V155.776C334.263 156.2 335.011 156.436 335.731 156.484V153.076L335.191 152.872C334.599 152.648 334.163 152.372 333.883 152.044C333.603 151.708 333.463 151.312 333.463 150.856C333.463 150.208 333.667 149.684 334.075 149.284C334.491 148.884 335.043 148.672 335.731 148.648V147.196H336.307V148.66C336.995 148.724 337.627 148.944 338.203 149.32V149.944C337.515 149.544 336.883 149.32 336.307 149.272V152.596L336.943 152.836C337.511 153.044 337.931 153.308 338.203 153.628C338.483 153.948 338.623 154.332 338.623 154.78C338.623 155.428 338.415 155.96 337.999 156.376C337.583 156.792 337.019 157.032 336.307 157.096V158.56H335.731ZM337.939 154.768C337.939 154.416 337.819 154.124 337.579 153.892C337.339 153.66 336.915 153.44 336.307 153.232V156.484C336.835 156.412 337.239 156.228 337.519 155.932C337.799 155.636 337.939 155.248 337.939 154.768ZM334.135 150.88C334.135 151.24 334.255 151.536 334.495 151.768C334.735 152 335.147 152.22 335.731 152.428V149.26C335.203 149.292 334.803 149.444 334.531 149.716C334.267 149.988 334.135 150.376 334.135 150.88ZM343.651 149.164C342.787 149.164 342.131 149.472 341.683 150.088C341.243 150.704 341.015 151.616 340.999 152.824C341.319 152.584 341.683 152.396 342.091 152.26C342.507 152.116 342.915 152.044 343.315 152.044C344.083 152.044 344.703 152.276 345.175 152.74C345.647 153.196 345.883 153.792 345.883 154.528C345.883 155.336 345.647 155.98 345.175 156.46C344.703 156.94 344.067 157.18 343.267 157.18C341.291 157.18 340.303 155.812 340.303 153.076C340.303 151.628 340.587 150.508 341.155 149.716C341.723 148.916 342.527 148.516 343.567 148.516C344.207 148.516 344.791 148.636 345.319 148.876V149.488C344.695 149.272 344.139 149.164 343.651 149.164ZM343.243 152.692C342.867 152.692 342.479 152.756 342.079 152.884C341.679 153.012 341.319 153.188 340.999 153.412C341.007 154.42 341.207 155.192 341.599 155.728C341.991 156.264 342.547 156.532 343.267 156.532C343.867 156.532 344.335 156.356 344.671 156.004C345.015 155.652 345.187 155.156 345.187 154.516C345.187 153.94 345.015 153.492 344.671 153.172C344.335 152.852 343.859 152.692 343.243 152.692ZM350.106 156.532C350.858 156.532 351.414 156.232 351.774 155.632C352.142 155.032 352.326 154.108 352.326 152.86C352.326 151.612 352.142 150.684 351.774 150.076C351.414 149.468 350.858 149.164 350.106 149.164C349.354 149.164 348.794 149.468 348.426 150.076C348.066 150.684 347.886 151.612 347.886 152.86C347.886 154.108 348.066 155.032 348.426 155.632C348.794 156.232 349.354 156.532 350.106 156.532ZM350.106 157.18C349.146 157.18 348.414 156.816 347.91 156.088C347.414 155.352 347.166 154.276 347.166 152.86C347.166 151.444 347.414 150.368 347.91 149.632C348.414 148.888 349.146 148.516 350.106 148.516C351.066 148.516 351.794 148.888 352.29 149.632C352.794 150.368 353.046 151.444 353.046 152.86C353.046 154.276 352.794 155.352 352.29 156.088C351.794 156.816 351.066 157.18 350.106 157.18ZM354.017 158.764L354.545 156.004H354.833C354.993 156.004 355.109 156.028 355.181 156.076C355.253 156.116 355.289 156.184 355.289 156.28C355.289 156.36 355.245 156.548 355.157 156.844L354.545 158.764H354.017ZM359.704 156.532C360.456 156.532 361.012 156.232 361.372 155.632C361.74 155.032 361.924 154.108 361.924 152.86C361.924 151.612 361.74 150.684 361.372 150.076C361.012 149.468 360.456 149.164 359.704 149.164C358.952 149.164 358.392 149.468 358.024 150.076C357.664 150.684 357.484 151.612 357.484 152.86C357.484 154.108 357.664 155.032 358.024 155.632C358.392 156.232 358.952 156.532 359.704 156.532ZM359.704 157.18C358.744 157.18 358.012 156.816 357.508 156.088C357.012 155.352 356.764 154.276 356.764 152.86C356.764 151.444 357.012 150.368 357.508 149.632C358.012 148.888 358.744 148.516 359.704 148.516C360.664 148.516 361.392 148.888 361.888 149.632C362.392 150.368 362.644 151.444 362.644 152.86C362.644 154.276 362.392 155.352 361.888 156.088C361.392 156.816 360.664 157.18 359.704 157.18ZM366.735 156.532C367.487 156.532 368.043 156.232 368.403 155.632C368.771 155.032 368.955 154.108 368.955 152.86C368.955 151.612 368.771 150.684 368.403 150.076C368.043 149.468 367.487 149.164 366.735 149.164C365.983 149.164 365.423 149.468 365.055 150.076C364.695 150.684 364.515 151.612 364.515 152.86C364.515 154.108 364.695 155.032 365.055 155.632C365.423 156.232 365.983 156.532 366.735 156.532ZM366.735 157.18C365.775 157.18 365.043 156.816 364.539 156.088C364.043 155.352 363.795 154.276 363.795 152.86C363.795 151.444 364.043 150.368 364.539 149.632C365.043 148.888 365.775 148.516 366.735 148.516C367.695 148.516 368.423 148.888 368.919 149.632C369.423 150.368 369.675 151.444 369.675 152.86C369.675 154.276 369.423 155.352 368.919 156.088C368.423 156.816 367.695 157.18 366.735 157.18ZM373.766 156.532C374.518 156.532 375.074 156.232 375.434 155.632C375.802 155.032 375.986 154.108 375.986 152.86C375.986 151.612 375.802 150.684 375.434 150.076C375.074 149.468 374.518 149.164 373.766 149.164C373.014 149.164 372.454 149.468 372.086 150.076C371.726 150.684 371.546 151.612 371.546 152.86C371.546 154.108 371.726 155.032 372.086 155.632C372.454 156.232 373.014 156.532 373.766 156.532ZM373.766 157.18C372.806 157.18 372.074 156.816 371.57 156.088C371.074 155.352 370.826 154.276 370.826 152.86C370.826 151.444 371.074 150.368 371.57 149.632C372.074 148.888 372.806 148.516 373.766 148.516C374.726 148.516 375.454 148.888 375.95 149.632C376.454 150.368 376.706 151.444 376.706 152.86C376.706 154.276 376.454 155.352 375.95 156.088C375.454 156.816 374.726 157.18 373.766 157.18Z" fill="#232F3E"/>
<rect x="440" y="128" width="172.891" height="50" rx="10" fill="#7BAFD4"/>
<path d="M475.577 158.56V157.096C474.777 157.048 474.021 156.812 473.309 156.388V155.428C473.781 155.668 474.197 155.848 474.557 155.968C474.917 156.08 475.257 156.148 475.577 156.172V153.232L475.073 153.04C474.449 152.808 473.989 152.524 473.693 152.188C473.397 151.844 473.249 151.432 473.249 150.952C473.249 150.536 473.341 150.16 473.525 149.824C473.717 149.48 473.989 149.208 474.341 149.008C474.693 148.8 475.105 148.68 475.577 148.648V147.196H476.321V148.66C476.977 148.724 477.593 148.932 478.169 149.284V150.232C477.513 149.864 476.897 149.648 476.321 149.584V152.428L476.837 152.62C477.469 152.844 477.933 153.124 478.229 153.46C478.533 153.788 478.685 154.192 478.685 154.672C478.685 155.344 478.473 155.896 478.049 156.328C477.625 156.76 477.049 157.016 476.321 157.096V158.56H475.577ZM477.629 154.732C477.629 154.428 477.529 154.176 477.329 153.976C477.129 153.776 476.793 153.592 476.321 153.424V156.16C476.729 156.112 477.049 155.964 477.281 155.716C477.513 155.46 477.629 155.132 477.629 154.732ZM474.293 150.916C474.293 151.22 474.393 151.476 474.593 151.684C474.793 151.884 475.121 152.064 475.577 152.224V149.572C475.169 149.604 474.853 149.736 474.629 149.968C474.405 150.2 474.293 150.516 474.293 150.916ZM483.653 149.488C482.885 149.488 482.305 149.752 481.913 150.28C481.529 150.8 481.321 151.596 481.289 152.668C481.609 152.452 481.953 152.284 482.321 152.164C482.689 152.044 483.049 151.984 483.401 151.984C483.889 151.984 484.321 152.084 484.697 152.284C485.081 152.476 485.381 152.76 485.597 153.136C485.821 153.504 485.933 153.936 485.933 154.432C485.933 155.264 485.677 155.932 485.165 156.436C484.653 156.932 483.969 157.18 483.113 157.18C482.113 157.18 481.361 156.84 480.857 156.16C480.353 155.48 480.101 154.464 480.101 153.112C480.101 151.656 480.397 150.524 480.989 149.716C481.589 148.908 482.425 148.504 483.497 148.504C483.833 148.504 484.169 148.54 484.505 148.612C484.841 148.684 485.133 148.78 485.381 148.9V149.812C485.117 149.716 484.829 149.64 484.517 149.584C484.205 149.52 483.917 149.488 483.653 149.488ZM483.089 152.944C482.801 152.944 482.501 152.992 482.189 153.088C481.877 153.176 481.577 153.3 481.289 153.46C481.337 155.284 481.957 156.196 483.149 156.196C483.653 156.196 484.041 156.052 484.313 155.764C484.593 155.476 484.733 155.06 484.733 154.516C484.733 154.02 484.589 153.636 484.301 153.364C484.021 153.084 483.617 152.944 483.089 152.944ZM490.024 156.172C490.656 156.172 491.12 155.908 491.416 155.38C491.712 154.844 491.86 153.996 491.86 152.836C491.86 151.692 491.712 150.852 491.416 150.316C491.12 149.78 490.656 149.512 490.024 149.512C489.392 149.512 488.928 149.78 488.632 150.316C488.336 150.852 488.188 151.692 488.188 152.836C488.188 153.988 488.336 154.832 488.632 155.368C488.928 155.904 489.392 156.172 490.024 156.172ZM490.024 157.18C489.04 157.18 488.284 156.808 487.756 156.064C487.228 155.312 486.964 154.236 486.964 152.836C486.964 151.444 487.224 150.376 487.744 149.632C488.272 148.88 489.032 148.504 490.024 148.504C491.008 148.504 491.764 148.876 492.292 149.62C492.82 150.364 493.084 151.436 493.084 152.836C493.084 154.236 492.82 155.312 492.292 156.064C491.772 156.808 491.016 157.18 490.024 157.18ZM493.899 158.836L494.511 155.608H494.895C495.167 155.608 495.359 155.644 495.471 155.716C495.591 155.78 495.651 155.892 495.651 156.052C495.651 156.18 495.595 156.404 495.483 156.724L494.715 158.836H493.899ZM500.032 156.172C500.664 156.172 501.128 155.908 501.424 155.38C501.72 154.844 501.868 153.996 501.868 152.836C501.868 151.692 501.72 150.852 501.424 150.316C501.128 149.78 500.664 149.512 500.032 149.512C499.4 149.512 498.936 149.78 498.64 150.316C498.344 150.852 498.196 151.692 498.196 152.836C498.196 153.988 498.344 154.832 498.64 155.368C498.936 155.904 499.4 156.172 500.032 156.172ZM500.032 157.18C499.048 157.18 498.292 156.808 497.764 156.064C497.236 155.312 496.972 154.236 496.972 152.836C496.972 151.444 497.232 150.376 497.752 149.632C498.28 148.88 499.04 148.504 500.032 148.504C501.016 148.504 501.772 148.876 502.3 149.62C502.828 150.364 503.092 151.436 503.092 152.836C503.092 154.236 502.828 155.312 502.3 156.064C501.78 156.808 501.024 157.18 500.032 157.18ZM507.063 156.172C507.695 156.172 508.159 155.908 508.455 155.38C508.751 154.844 508.899 153.996 508.899 152.836C508.899 151.692 508.751 150.852 508.455 150.316C508.159 149.78 507.695 149.512 507.063 149.512C506.431 149.512 505.967 149.78 505.671 150.316C505.375 150.852 505.227 151.692 505.227 152.836C505.227 153.988 505.375 154.832 505.671 155.368C505.967 155.904 506.431 156.172 507.063 156.172ZM507.063 157.18C506.079 157.18 505.323 156.808 504.795 156.064C504.267 155.312 504.003 154.236 504.003 152.836C504.003 151.444 504.263 150.376 504.783 149.632C505.311 148.88 506.071 148.504 507.063 148.504C508.047 148.504 508.803 148.876 509.331 149.62C509.859 150.364 510.123 151.436 510.123 152.836C510.123 154.236 509.859 155.312 509.331 156.064C508.811 156.808 508.055 157.18 507.063 157.18ZM514.094 156.172C514.726 156.172 515.19 155.908 515.486 155.38C515.782 154.844 515.93 153.996 515.93 152.836C515.93 151.692 515.782 150.852 515.486 150.316C515.19 149.78 514.726 149.512 514.094 149.512C513.462 149.512 512.998 149.78 512.702 150.316C512.406 150.852 512.258 151.692 512.258 152.836C512.258 153.988 512.406 154.832 512.702 155.368C512.998 155.904 513.462 156.172 514.094 156.172ZM514.094 157.18C513.11 157.18 512.354 156.808 511.826 156.064C511.298 155.312 511.034 154.236 511.034 152.836C511.034 151.444 511.294 150.376 511.814 149.632C512.342 148.88 513.102 148.504 514.094 148.504C515.078 148.504 515.834 148.876 516.362 149.62C516.89 150.364 517.154 151.436 517.154 152.836C517.154 154.236 516.89 155.312 516.362 156.064C515.842 156.808 515.086 157.18 514.094 157.18ZM521.302 154.396V153.388H524.878V154.396H521.302ZM531.698 158.56V157.096C530.898 157.048 530.142 156.812 529.43 156.388V155.428C529.902 155.668 530.318 155.848 530.678 155.968C531.038 156.08 531.378 156.148 531.698 156.172V153.232L531.194 153.04C530.57 152.808 530.11 152.524 529.814 152.188C529.518 151.844 529.37 151.432 529.37 150.952C529.37 150.536 529.462 150.16 529.646 149.824C529.838 149.48 530.11 149.208 530.462 149.008C530.814 148.8 531.226 148.68 531.698 148.648V147.196H532.442V148.66C533.098 148.724 533.714 148.932 534.29 149.284V150.232C533.634 149.864 533.018 149.648 532.442 149.584V152.428L532.958 152.62C533.59 152.844 534.054 153.124 534.35 153.46C534.654 153.788 534.806 154.192 534.806 154.672C534.806 155.344 534.594 155.896 534.17 156.328C533.746 156.76 533.17 157.016 532.442 157.096V158.56H531.698ZM533.75 154.732C533.75 154.428 533.65 154.176 533.45 153.976C533.25 153.776 532.914 153.592 532.442 153.424V156.16C532.85 156.112 533.17 155.964 533.402 155.716C533.634 155.46 533.75 155.132 533.75 154.732ZM530.414 150.916C530.414 151.22 530.514 151.476 530.714 151.684C530.914 151.884 531.242 152.064 531.698 152.224V149.572C531.29 149.604 530.974 149.736 530.75 149.968C530.526 150.2 530.414 150.516 530.414 150.916ZM539.15 157V149.872L536.834 150.772V149.812L539.234 148.684H540.35V157H539.15ZM546.145 156.172C546.777 156.172 547.241 155.908 547.537 155.38C547.833 154.844 547.981 153.996 547.981 152.836C547.981 151.692 547.833 150.852 547.537 150.316C547.241 149.78 546.777 149.512 546.145 149.512C545.513 149.512 545.049 149.78 544.753 150.316C544.457 150.852 544.309 151.692 544.309 152.836C544.309 153.988 544.457 154.832 544.753 155.368C545.049 155.904 545.513 156.172 546.145 156.172ZM546.145 157.18C545.161 157.18 544.405 156.808 543.877 156.064C543.349 155.312 543.085 154.236 543.085 152.836C543.085 151.444 543.345 150.376 543.865 149.632C544.393 148.88 545.153 148.504 546.145 148.504C547.129 148.504 547.885 148.876 548.413 149.62C548.941 150.364 549.205 151.436 549.205 152.836C549.205 154.236 548.941 155.312 548.413 156.064C547.893 156.808 547.137 157.18 546.145 157.18ZM553.176 156.172C553.808 156.172 554.272 155.908 554.568 155.38C554.864 154.844 555.012 153.996 555.012 152.836C555.012 151.692 554.864 150.852 554.568 150.316C554.272 149.78 553.808 149.512 553.176 149.512C552.544 149.512 552.08 149.78 551.784 150.316C551.488 150.852 551.34 151.692 551.34 152.836C551.34 153.988 551.488 154.832 551.784 155.368C552.08 155.904 552.544 156.172 553.176 156.172ZM553.176 157.18C552.192 157.18 551.436 156.808 550.908 156.064C550.38 155.312 550.116 154.236 550.116 152.836C550.116 151.444 550.376 150.376 550.896 149.632C551.424 148.88 552.184 148.504 553.176 148.504C554.16 148.504 554.916 148.876 555.444 149.62C555.972 150.364 556.236 151.436 556.236 152.836C556.236 154.236 555.972 155.312 555.444 156.064C554.924 156.808 554.168 157.18 553.176 157.18ZM557.051 158.836L557.663 155.608H558.047C558.319 155.608 558.511 155.644 558.623 155.716C558.743 155.78 558.803 155.892 558.803 156.052C558.803 156.18 558.747 156.404 558.635 156.724L557.867 158.836H557.051ZM563.184 156.172C563.816 156.172 564.28 155.908 564.576 155.38C564.872 154.844 565.02 153.996 565.02 152.836C565.02 151.692 564.872 150.852 564.576 150.316C564.28 149.78 563.816 149.512 563.184 149.512C562.552 149.512 562.088 149.78 561.792 150.316C561.496 150.852 561.348 151.692 561.348 152.836C561.348 153.988 561.496 154.832 561.792 155.368C562.088 155.904 562.552 156.172 563.184 156.172ZM563.184 157.18C562.2 157.18 561.444 156.808 560.916 156.064C560.388 155.312 560.124 154.236 560.124 152.836C560.124 151.444 560.384 150.376 560.904 149.632C561.432 148.88 562.192 148.504 563.184 148.504C564.168 148.504 564.924 148.876 565.452 149.62C565.98 150.364 566.244 151.436 566.244 152.836C566.244 154.236 565.98 155.312 565.452 156.064C564.932 156.808 564.176 157.18 563.184 157.18ZM570.215 156.172C570.847 156.172 571.311 155.908 571.607 155.38C571.903 154.844 572.051 153.996 572.051 152.836C572.051 151.692 571.903 150.852 571.607 150.316C571.311 149.78 570.847 149.512 570.215 149.512C569.583 149.512 569.119 149.78 568.823 150.316C568.527 150.852 568.379 151.692 568.379 152.836C568.379 153.988 568.527 154.832 568.823 155.368C569.119 155.904 569.583 156.172 570.215 156.172ZM570.215 157.18C569.231 157.18 568.475 156.808 567.947 156.064C567.419 155.312 567.155 154.236 567.155 152.836C567.155 151.444 567.415 150.376 567.935 149.632C568.463 148.88 569.223 148.504 570.215 148.504C571.199 148.504 571.955 148.876 572.483 149.62C573.011 150.364 573.275 151.436 573.275 152.836C573.275 154.236 573.011 155.312 572.483 156.064C571.963 156.808 571.207 157.18 570.215 157.18ZM577.246 156.172C577.878 156.172 578.342 155.908 578.638 155.38C578.934 154.844 579.082 153.996 579.082 152.836C579.082 151.692 578.934 150.852 578.638 150.316C578.342 149.78 577.878 149.512 577.246 149.512C576.614 149.512 576.15 149.78 575.854 150.316C575.558 150.852 575.41 151.692 575.41 152.836C575.41 153.988 575.558 154.832 575.854 155.368C576.15 155.904 576.614 156.172 577.246 156.172ZM577.246 157.18C576.262 157.18 575.506 156.808 574.978 156.064C574.45 155.312 574.186 154.236 574.186 152.836C574.186 151.444 574.446 150.376 574.966 149.632C575.494 148.88 576.254 148.504 577.246 148.504C578.23 148.504 578.986 148.876 579.514 149.62C580.042 150.364 580.306 151.436 580.306 152.836C580.306 154.236 580.042 155.312 579.514 156.064C578.994 156.808 578.238 157.18 577.246 157.18Z" fill="#232F3E"/>
<rect x="638.5" y="128.486" width="171.891" height="49" rx="9.5" stroke="#808285" stroke-opacity="0.5"/>
<path d="M698.149 158.546V157.082C697.365 157.05 696.617 156.818 695.905 156.386V155.762C696.681 156.186 697.429 156.422 698.149 156.47V153.062L697.609 152.858C697.017 152.634 696.581 152.358 696.301 152.03C696.021 151.694 695.881 151.298 695.881 150.842C695.881 150.194 696.085 149.67 696.493 149.27C696.909 148.87 697.461 148.658 698.149 148.634V147.182H698.725V148.646C699.413 148.71 700.045 148.93 700.621 149.306V149.93C699.933 149.53 699.301 149.306 698.725 149.258V152.582L699.361 152.822C699.929 153.03 700.349 153.294 700.621 153.614C700.901 153.934 701.041 154.318 701.041 154.766C701.041 155.414 700.833 155.946 700.417 156.362C700.001 156.778 699.437 157.018 698.725 157.082V158.546H698.149ZM700.357 154.754C700.357 154.402 700.237 154.11 699.997 153.878C699.757 153.646 699.333 153.426 698.725 153.218V156.47C699.253 156.398 699.657 156.214 699.937 155.918C700.217 155.622 700.357 155.234 700.357 154.754ZM696.553 150.866C696.553 151.226 696.673 151.522 696.913 151.754C697.153 151.986 697.565 152.206 698.149 152.414V149.246C697.621 149.278 697.221 149.43 696.949 149.702C696.685 149.974 696.553 150.362 696.553 150.866ZM705.913 156.986V149.414L703.453 150.458V149.858L705.913 148.67H706.609V156.986H705.913ZM712.524 156.518C713.276 156.518 713.832 156.218 714.192 155.618C714.56 155.018 714.744 154.094 714.744 152.846C714.744 151.598 714.56 150.67 714.192 150.062C713.832 149.454 713.276 149.15 712.524 149.15C711.772 149.15 711.212 149.454 710.844 150.062C710.484 150.67 710.304 151.598 710.304 152.846C710.304 154.094 710.484 155.018 710.844 155.618C711.212 156.218 711.772 156.518 712.524 156.518ZM712.524 157.166C711.564 157.166 710.832 156.802 710.328 156.074C709.832 155.338 709.584 154.262 709.584 152.846C709.584 151.43 709.832 150.354 710.328 149.618C710.832 148.874 711.564 148.502 712.524 148.502C713.484 148.502 714.212 148.874 714.708 149.618C715.212 150.354 715.464 151.43 715.464 152.846C715.464 154.262 715.212 155.338 714.708 156.074C714.212 156.802 713.484 157.166 712.524 157.166ZM719.555 156.518C720.307 156.518 720.863 156.218 721.223 155.618C721.591 155.018 721.775 154.094 721.775 152.846C721.775 151.598 721.591 150.67 721.223 150.062C720.863 149.454 720.307 149.15 719.555 149.15C718.803 149.15 718.243 149.454 717.875 150.062C717.515 150.67 717.335 151.598 717.335 152.846C717.335 154.094 717.515 155.018 717.875 155.618C718.243 156.218 718.803 156.518 719.555 156.518ZM719.555 157.166C718.595 157.166 717.863 156.802 717.359 156.074C716.863 155.338 716.615 154.262 716.615 152.846C716.615 151.43 716.863 150.354 717.359 149.618C717.863 148.874 718.595 148.502 719.555 148.502C720.515 148.502 721.243 148.874 721.739 149.618C722.243 150.354 722.495 151.43 722.495 152.846C722.495 154.262 722.243 155.338 721.739 156.074C721.243 156.802 720.515 157.166 719.555 157.166ZM723.466 158.75L723.994 155.99H724.282C724.442 155.99 724.558 156.014 724.63 156.062C724.702 156.102 724.738 156.17 724.738 156.266C724.738 156.346 724.694 156.534 724.606 156.83L723.994 158.75H723.466ZM729.153 156.518C729.905 156.518 730.461 156.218 730.821 155.618C731.189 155.018 731.373 154.094 731.373 152.846C731.373 151.598 731.189 150.67 730.821 150.062C730.461 149.454 729.905 149.15 729.153 149.15C728.401 149.15 727.841 149.454 727.473 150.062C727.113 150.67 726.933 151.598 726.933 152.846C726.933 154.094 727.113 155.018 727.473 155.618C727.841 156.218 728.401 156.518 729.153 156.518ZM729.153 157.166C728.193 157.166 727.461 156.802 726.957 156.074C726.461 155.338 726.213 154.262 726.213 152.846C726.213 151.43 726.461 150.354 726.957 149.618C727.461 148.874 728.193 148.502 729.153 148.502C730.113 148.502 730.841 148.874 731.337 149.618C731.841 150.354 732.093 151.43 732.093 152.846C732.093 154.262 731.841 155.338 731.337 156.074C730.841 156.802 730.113 157.166 729.153 157.166ZM736.184 156.518C736.936 156.518 737.492 156.218 737.852 155.618C738.22 155.018 738.404 154.094 738.404 152.846C738.404 151.598 738.22 150.67 737.852 150.062C737.492 149.454 736.936 149.15 736.184 149.15C735.432 149.15 734.872 149.454 734.504 150.062C734.144 150.67 733.964 151.598 733.964 152.846C733.964 154.094 734.144 155.018 734.504 155.618C734.872 156.218 735.432 156.518 736.184 156.518ZM736.184 157.166C735.224 157.166 734.492 156.802 733.988 156.074C733.492 155.338 733.244 154.262 733.244 152.846C733.244 151.43 733.492 150.354 733.988 149.618C734.492 148.874 735.224 148.502 736.184 148.502C737.144 148.502 737.872 148.874 738.368 149.618C738.872 150.354 739.124 151.43 739.124 152.846C739.124 154.262 738.872 155.338 738.368 156.074C737.872 156.802 737.144 157.166 736.184 157.166ZM743.215 156.518C743.967 156.518 744.523 156.218 744.883 155.618C745.251 155.018 745.435 154.094 745.435 152.846C745.435 151.598 745.251 150.67 744.883 150.062C744.523 149.454 743.967 149.15 743.215 149.15C742.463 149.15 741.903 149.454 741.535 150.062C741.175 150.67 740.995 151.598 740.995 152.846C740.995 154.094 741.175 155.018 741.535 155.618C741.903 156.218 742.463 156.518 743.215 156.518ZM743.215 157.166C742.255 157.166 741.523 156.802 741.019 156.074C740.523 155.338 740.275 154.262 740.275 152.846C740.275 151.43 740.523 150.354 741.019 149.618C741.523 148.874 742.255 148.502 743.215 148.502C744.175 148.502 744.903 148.874 745.399 149.618C745.903 150.354 746.155 151.43 746.155 152.846C746.155 154.262 745.903 155.338 745.399 156.074C744.903 156.802 744.175 157.166 743.215 157.166ZM749.922 155.486V153.086H747.618V152.486H749.922V150.086H750.57V152.486H752.874V153.086H750.57V155.486H749.922Z" fill="#232F3E"/>
<path d="M111.591 115.168L111.659 113.293L110.074 114.299L109.665 113.583L111.335 112.714L109.665 111.844L110.074 111.128L111.659 112.134L111.591 110.259H112.409L112.341 112.134L113.926 111.128L114.335 111.844L112.665 112.714L114.335 113.583L113.926 114.299L112.341 113.293L112.409 115.168H111.591Z" fill="#DA223F"/>
<path d="M150.591 208.182L150.659 206.307L149.074 207.312L148.665 206.597L150.335 205.727L148.665 204.858L149.074 204.142L150.659 205.148L150.591 203.273H151.409L151.341 205.148L152.926 204.142L153.335 204.858L151.665 205.727L153.335 206.597L152.926 207.312L151.341 206.307L151.409 208.182H150.591Z" fill="#DA223F"/>
<path d="M718.536 63.692C718.368 63.668 718.216 63.608 718.08 63.512C717.944 63.408 717.836 63.276 717.756 63.116L718.836 61.904L717.456 61.58C717.44 61.5 717.432 61.436 717.432 61.388C717.432 61.116 717.536 60.876 717.744 60.668L719.04 61.304L718.872 59.756C719.032 59.684 719.2 59.648 719.376 59.648C719.56 59.648 719.728 59.684 719.88 59.756L719.712 61.304L721.008 60.668C721.216 60.876 721.32 61.116 721.32 61.388C721.32 61.436 721.312 61.5 721.296 61.58L719.916 61.904L720.996 63.116C720.916 63.276 720.808 63.408 720.672 63.512C720.536 63.608 720.384 63.668 720.216 63.692L719.376 62.24L718.536 63.692Z" fill="#DA223F"/>
<path d="M725.906 68V59.684H728.942C729.75 59.684 730.394 59.908 730.874 60.356C731.354 60.796 731.594 61.392 731.594 62.144C731.594 62.696 731.442 63.176 731.138 63.584C730.842 63.984 730.422 64.276 729.878 64.46L732.086 68H730.754L728.714 64.652H727.094V68H725.906ZM727.094 63.68H728.786C729.298 63.68 729.686 63.552 729.95 63.296C730.222 63.04 730.358 62.66 730.358 62.156C730.358 61.66 730.23 61.288 729.974 61.04C729.718 60.784 729.338 60.656 728.834 60.656H727.094V63.68ZM733.869 65.216C733.885 65.904 734.053 66.412 734.373 66.74C734.701 67.068 735.205 67.232 735.885 67.232C736.517 67.232 737.161 67.108 737.817 66.86V67.712C737.241 68.024 736.537 68.18 735.705 68.18C734.721 68.18 733.977 67.908 733.473 67.364C732.969 66.82 732.717 66.016 732.717 64.952C732.717 63.936 732.969 63.148 733.473 62.588C733.977 62.02 734.681 61.736 735.585 61.736C736.345 61.736 736.929 61.952 737.337 62.384C737.745 62.808 737.949 63.412 737.949 64.196C737.949 64.572 737.917 64.912 737.853 65.216H733.869ZM735.525 62.636C735.021 62.636 734.629 62.788 734.349 63.092C734.069 63.388 733.909 63.832 733.869 64.424H736.857C736.865 64.36 736.869 64.256 736.869 64.112C736.869 63.624 736.753 63.256 736.521 63.008C736.297 62.76 735.965 62.636 735.525 62.636ZM743.496 70.472V67.424C743.232 67.648 742.936 67.824 742.608 67.952C742.288 68.072 741.96 68.132 741.624 68.132C741.12 68.132 740.676 68.008 740.292 67.76C739.908 67.512 739.608 67.152 739.392 66.68C739.176 66.2 739.068 65.636 739.068 64.988C739.068 64.34 739.168 63.772 739.368 63.284C739.576 62.796 739.876 62.416 740.268 62.144C740.66 61.872 741.12 61.736 741.648 61.736C742.408 61.736 743.056 61.988 743.592 62.492L743.688 61.916H744.684V70.472H743.496ZM741.984 67.172C742.48 67.172 742.984 66.988 743.496 66.62V63.224C743.248 63.04 742.996 62.908 742.74 62.828C742.492 62.74 742.216 62.696 741.912 62.696C740.824 62.696 740.28 63.448 740.28 64.952C740.28 66.432 740.848 67.172 741.984 67.172ZM750.598 68L750.466 67.352C749.722 67.904 748.958 68.18 748.174 68.18C747.606 68.18 747.17 68.02 746.866 67.7C746.562 67.38 746.41 66.928 746.41 66.344V61.916H747.598V65.96C747.598 66.392 747.682 66.712 747.85 66.92C748.018 67.12 748.286 67.22 748.654 67.22C749.23 67.22 749.81 67.028 750.394 66.644V61.916H751.582V68H750.598ZM753.409 68V61.916H754.597V68H753.409ZM754.009 60.836C753.777 60.836 753.593 60.772 753.457 60.644C753.329 60.508 753.265 60.332 753.265 60.116C753.265 59.9 753.329 59.728 753.457 59.6C753.593 59.464 753.777 59.396 754.009 59.396C754.241 59.396 754.421 59.464 754.549 59.6C754.685 59.728 754.753 59.9 754.753 60.116C754.753 60.332 754.685 60.508 754.549 60.644C754.421 60.772 754.241 60.836 754.009 60.836ZM756.419 68V61.916H757.415L757.547 62.816C757.771 62.576 757.979 62.392 758.171 62.264C758.363 62.128 758.559 62.028 758.759 61.964C758.959 61.9 759.175 61.868 759.407 61.868C759.559 61.868 759.723 61.88 759.899 61.904V62.984C759.643 62.952 759.427 62.936 759.251 62.936C758.611 62.936 758.063 63.128 757.607 63.512V68H756.419ZM761.619 65.216C761.635 65.904 761.803 66.412 762.123 66.74C762.451 67.068 762.955 67.232 763.635 67.232C764.267 67.232 764.911 67.108 765.567 66.86V67.712C764.991 68.024 764.287 68.18 763.455 68.18C762.471 68.18 761.727 67.908 761.223 67.364C760.719 66.82 760.467 66.016 760.467 64.952C760.467 63.936 760.719 63.148 761.223 62.588C761.727 62.02 762.431 61.736 763.335 61.736C764.095 61.736 764.679 61.952 765.087 62.384C765.495 62.808 765.699 63.412 765.699 64.196C765.699 64.572 765.667 64.912 765.603 65.216H761.619ZM763.275 62.636C762.771 62.636 762.379 62.788 762.099 63.092C761.819 63.388 761.659 63.832 761.619 64.424H764.607C764.615 64.36 764.619 64.256 764.619 64.112C764.619 63.624 764.503 63.256 764.271 63.008C764.047 62.76 763.715 62.636 763.275 62.636ZM771.45 68L771.294 67.376C771.03 67.616 770.73 67.804 770.394 67.94C770.058 68.068 769.718 68.132 769.374 68.132C768.87 68.132 768.426 68.008 768.042 67.76C767.658 67.512 767.358 67.152 767.142 66.68C766.926 66.2 766.818 65.636 766.818 64.988C766.818 64.34 766.922 63.772 767.13 63.284C767.338 62.796 767.634 62.416 768.018 62.144C768.41 61.872 768.874 61.736 769.41 61.736C770.09 61.736 770.702 61.96 771.246 62.408V59.12H772.434V68H771.45ZM769.734 67.172C770.23 67.172 770.734 66.988 771.246 66.62V63.224C770.998 63.04 770.746 62.908 770.49 62.828C770.242 62.74 769.966 62.696 769.662 62.696C768.574 62.696 768.03 63.448 768.03 64.952C768.03 66.432 768.598 67.172 769.734 67.172ZM777.469 68V59.684H782.401V60.668H778.693V63.344H781.753V64.328H778.693V68H777.469ZM783.69 68V61.916H784.878V68H783.69ZM784.29 60.836C784.058 60.836 783.874 60.772 783.738 60.644C783.61 60.508 783.546 60.332 783.546 60.116C783.546 59.9 783.61 59.728 783.738 59.6C783.874 59.464 784.058 59.396 784.29 59.396C784.522 59.396 784.702 59.464 784.83 59.6C784.966 59.728 785.034 59.9 785.034 60.116C785.034 60.332 784.966 60.508 784.83 60.644C784.702 60.772 784.522 60.836 784.29 60.836ZM787.541 65.216C787.557 65.904 787.725 66.412 788.045 66.74C788.373 67.068 788.877 67.232 789.557 67.232C790.189 67.232 790.833 67.108 791.489 66.86V67.712C790.913 68.024 790.209 68.18 789.377 68.18C788.393 68.18 787.649 67.908 787.145 67.364C786.641 66.82 786.389 66.016 786.389 64.952C786.389 63.936 786.641 63.148 787.145 62.588C787.649 62.02 788.353 61.736 789.257 61.736C790.017 61.736 790.601 61.952 791.009 62.384C791.417 62.808 791.621 63.412 791.621 64.196C791.621 64.572 791.589 64.912 791.525 65.216H787.541ZM789.197 62.636C788.693 62.636 788.301 62.788 788.021 63.092C787.741 63.388 787.581 63.832 787.541 64.424H790.529C790.537 64.36 790.541 64.256 790.541 64.112C790.541 63.624 790.425 63.256 790.193 63.008C789.969 62.76 789.637 62.636 789.197 62.636ZM795.224 67.916C794.96 68.012 794.672 68.06 794.36 68.06C793.936 68.06 793.612 67.94 793.388 67.7C793.164 67.452 793.052 67.1 793.052 66.644V59.12H794.24V66.572C794.24 66.756 794.276 66.892 794.348 66.98C794.428 67.06 794.556 67.1 794.732 67.1C794.892 67.1 795.056 67.088 795.224 67.064V67.916ZM800.794 68L800.638 67.376C800.374 67.616 800.074 67.804 799.738 67.94C799.402 68.068 799.062 68.132 798.718 68.132C798.214 68.132 797.77 68.008 797.386 67.76C797.002 67.512 796.702 67.152 796.486 66.68C796.27 66.2 796.162 65.636 796.162 64.988C796.162 64.34 796.266 63.772 796.474 63.284C796.682 62.796 796.978 62.416 797.362 62.144C797.754 61.872 798.218 61.736 798.754 61.736C799.434 61.736 800.046 61.96 800.59 62.408V59.12H801.778V68H800.794ZM799.078 67.172C799.574 67.172 800.078 66.988 800.59 66.62V63.224C800.342 63.04 800.09 62.908 799.834 62.828C799.586 62.74 799.31 62.696 799.006 62.696C797.918 62.696 797.374 63.448 797.374 64.952C797.374 66.432 797.942 67.172 799.078 67.172ZM806.408 66.368C806.408 66.176 806.344 66.02 806.216 65.9C806.096 65.78 805.872 65.66 805.544 65.54L804.524 65.156C803.636 64.828 803.192 64.268 803.192 63.476C803.192 62.956 803.392 62.536 803.792 62.216C804.2 61.896 804.732 61.736 805.388 61.736C806.02 61.736 806.616 61.864 807.176 62.12V62.96C806.552 62.76 805.976 62.66 805.448 62.66C804.68 62.66 804.296 62.92 804.296 63.44C804.296 63.648 804.36 63.812 804.488 63.932C804.616 64.052 804.868 64.184 805.244 64.328L806.18 64.688C806.652 64.872 806.992 65.092 807.2 65.348C807.408 65.596 807.512 65.92 807.512 66.32C807.512 66.888 807.3 67.34 806.876 67.676C806.452 68.012 805.888 68.18 805.184 68.18C804.392 68.18 803.704 68.028 803.12 67.724V66.884C803.872 67.132 804.568 67.256 805.208 67.256C805.6 67.256 805.896 67.18 806.096 67.028C806.304 66.876 806.408 66.656 806.408 66.368Z" fill="#232F3E"/>
</g>
<defs>
<filter id="filter0_d_751_3377" x="0" y="0" width="860" height="348" filterUnits="userSpaceOnUse" color-interpolation-filters="sRGB">
<feFlood flood-opacity="0" result="BackgroundImageFix"/>
<feColorMatrix in="SourceAlpha" type="matrix" values="0 0 0 0 0 0 0 0 0 0 0 0 0 0 0 0 0 0 127 0" result="hardAlpha"/>
<feOffset dx="5" dy="5"/>
<feGaussianBlur stdDeviation="10"/>
<feComposite in2="hardAlpha" operator="out"/>
<feColorMatrix type="matrix" values="0 0 0 0 0.137255 0 0 0 0 0.184314 0 0 0 0 0.243137 0 0 0 0.1 0"/>
<feBlend mode="normal" in2="BackgroundImageFix" result="effect1_dropShadow_751_3377"/>
<feBlend mode="normal" in="SourceGraphic" in2="effect1_dropShadow_751_3377" result="shape"/>
</filter>
</defs>
</svg>
