<svg width="860" height="307" viewBox="0 0 860 307" fill="none" xmlns="http://www.w3.org/2000/svg">
<g filter="url(#filter0_d_751_3232)">
<rect x="15" y="15" width="820" height="267" rx="20" fill="white"/>
<circle cx="59" cy="59" r="20" fill="#232F3E"/>
<path d="M58.368 65.8749C59.248 65.8749 59.936 65.6109 60.432 65.0829C60.928 64.5549 61.176 63.8189 61.176 62.8749C61.176 61.9149 60.92 61.1869 60.408 60.6909C59.896 60.1789 59.152 59.9229 58.176 59.9229C57.12 59.9229 56.048 60.2029 54.96 60.7629C55.072 64.1709 56.208 65.8749 58.368 65.8749ZM58.176 68.1549C56.192 68.1549 54.688 67.4749 53.664 66.1149C52.656 64.7549 52.152 62.7469 52.152 60.0909C52.152 57.1469 52.752 54.8589 53.952 53.2269C55.168 51.5949 56.872 50.7789 59.064 50.7789C60.216 50.7789 61.296 50.9629 62.304 51.3309C62.56 51.4109 62.728 51.5069 62.808 51.6189C62.888 51.7309 62.928 51.9069 62.928 52.1469V53.0829C62.928 53.2589 62.896 53.3869 62.832 53.4669C62.784 53.5309 62.688 53.5629 62.544 53.5629C62.432 53.5629 62.256 53.5309 62.016 53.4669C60.976 53.1949 60.112 53.0589 59.424 53.0589C57.968 53.0589 56.88 53.5389 56.16 54.4989C55.44 55.4589 55.04 56.9389 54.96 58.9389C56.24 58.1229 57.6 57.7149 59.04 57.7149C60.544 57.7149 61.752 58.1709 62.664 59.0829C63.576 59.9789 64.032 61.1789 64.032 62.6829C64.032 63.7869 63.776 64.7549 63.264 65.5869C62.768 66.4189 62.08 67.0589 61.2 67.5069C60.32 67.9389 59.312 68.1549 58.176 68.1549Z" fill="white"/>
<path d="M101.568 68.408C99.408 68.408 97.752 67.848 96.6 66.728C95.448 65.592 94.872 63.984 94.872 61.904V51.896C94.872 51.544 95.048 51.368 95.4 51.368H97.272C97.624 51.368 97.8 51.544 97.8 51.896V62.096C97.8 63.344 98.12 64.304 98.76 64.976C99.4 65.632 100.336 65.96 101.568 65.96C102.8 65.96 103.736 65.632 104.376 64.976C105.016 64.304 105.336 63.344 105.336 62.096V51.896C105.336 51.544 105.512 51.368 105.864 51.368H107.736C108.088 51.368 108.264 51.544 108.264 51.896V61.904C108.264 63.984 107.688 65.592 106.536 66.728C105.384 67.848 103.728 68.408 101.568 68.408ZM112.389 72.944C112.037 72.944 111.861 72.768 111.861 72.416V56.312C111.861 55.96 112.037 55.784 112.389 55.784H113.709C114.061 55.784 114.269 55.944 114.333 56.264L114.477 57.008C115.037 56.496 115.653 56.104 116.325 55.832C117.013 55.56 117.725 55.424 118.461 55.424C119.981 55.424 121.189 55.992 122.085 57.128C122.997 58.264 123.453 59.792 123.453 61.712C123.453 63.04 123.229 64.2 122.781 65.192C122.349 66.184 121.741 66.944 120.957 67.472C120.173 68 119.277 68.264 118.269 68.264C117.597 68.264 116.949 68.152 116.325 67.928C115.701 67.688 115.157 67.36 114.693 66.944V72.416C114.693 72.768 114.517 72.944 114.165 72.944H112.389ZM117.549 66.032C118.573 66.032 119.333 65.688 119.829 65C120.325 64.296 120.573 63.232 120.573 61.808C120.573 60.4 120.325 59.36 119.829 58.688C119.349 58 118.597 57.656 117.573 57.656C116.533 57.656 115.573 57.96 114.693 58.568V65.096C115.589 65.72 116.541 66.032 117.549 66.032ZM129.155 68.144C128.211 68.144 127.491 67.88 126.995 67.352C126.515 66.808 126.275 66.024 126.275 65V50.768C126.275 50.416 126.451 50.24 126.803 50.24H128.579C128.931 50.24 129.107 50.416 129.107 50.768V64.784C129.107 65.184 129.179 65.472 129.323 65.648C129.483 65.824 129.739 65.912 130.091 65.912C130.171 65.912 130.259 65.904 130.355 65.888C130.451 65.872 130.531 65.864 130.595 65.864C130.899 65.864 131.051 66.032 131.051 66.368V67.352C131.051 67.688 130.883 67.896 130.547 67.976C130.067 68.088 129.603 68.144 129.155 68.144ZM138.774 68.36C136.918 68.36 135.47 67.792 134.43 66.656C133.39 65.504 132.87 63.912 132.87 61.88C132.87 59.848 133.39 58.264 134.43 57.128C135.47 55.992 136.918 55.424 138.774 55.424C140.63 55.424 142.078 55.992 143.118 57.128C144.158 58.264 144.678 59.848 144.678 61.88C144.678 63.912 144.158 65.504 143.118 66.656C142.078 67.792 140.63 68.36 138.774 68.36ZM138.774 66.128C140.79 66.128 141.798 64.712 141.798 61.88C141.798 59.064 140.79 57.656 138.774 57.656C136.758 57.656 135.75 59.064 135.75 61.88C135.75 64.712 136.758 66.128 138.774 66.128ZM150.509 68.36C149.389 68.36 148.477 68.024 147.773 67.352C147.085 66.68 146.741 65.808 146.741 64.736C146.741 63.552 147.165 62.608 148.013 61.904C148.877 61.2 150.029 60.848 151.469 60.848C152.317 60.848 153.245 60.968 154.253 61.208V59.792C154.253 58.976 154.077 58.408 153.725 58.088C153.373 57.768 152.757 57.608 151.877 57.608C151.349 57.608 150.765 57.664 150.125 57.776C149.485 57.872 148.877 58.016 148.301 58.208C148.141 58.256 148.005 58.28 147.893 58.28C147.685 58.28 147.581 58.128 147.581 57.824V56.936C147.581 56.712 147.613 56.552 147.677 56.456C147.741 56.36 147.909 56.256 148.181 56.144C149.429 55.664 150.813 55.424 152.333 55.424C153.901 55.424 155.053 55.744 155.789 56.384C156.541 57.024 156.917 58.024 156.917 59.384V67.472C156.917 67.824 156.741 68 156.389 68H155.117C154.765 68 154.565 67.84 154.517 67.52L154.397 66.824C153.837 67.304 153.213 67.68 152.525 67.952C151.853 68.224 151.181 68.36 150.509 68.36ZM151.301 66.344C151.765 66.344 152.253 66.248 152.765 66.056C153.277 65.848 153.773 65.56 154.253 65.192V62.888C153.405 62.712 152.653 62.624 151.997 62.624C150.333 62.624 149.501 63.272 149.501 64.568C149.501 65.128 149.661 65.568 149.981 65.888C150.301 66.192 150.741 66.344 151.301 66.344ZM164.746 68.264C163.21 68.264 161.978 67.696 161.05 66.56C160.138 65.408 159.682 63.864 159.682 61.928C159.682 60.6 159.898 59.448 160.33 58.472C160.778 57.48 161.394 56.728 162.178 56.216C162.962 55.688 163.866 55.424 164.89 55.424C166.17 55.424 167.338 55.84 168.394 56.672V50.768C168.394 50.416 168.57 50.24 168.922 50.24H170.698C171.05 50.24 171.226 50.416 171.226 50.768V67.472C171.226 67.824 171.05 68 170.698 68H169.306C168.954 68 168.746 67.84 168.682 67.52L168.514 66.824C167.426 67.784 166.17 68.264 164.746 68.264ZM165.634 66.032C166.578 66.032 167.498 65.728 168.394 65.12V58.52C167.578 57.944 166.674 57.656 165.682 57.656C164.61 57.656 163.818 58 163.306 58.688C162.81 59.36 162.562 60.4 162.562 61.808C162.562 64.624 163.586 66.032 165.634 66.032ZM181.723 68C181.371 68 181.195 67.824 181.195 67.472V51.896C181.195 51.544 181.371 51.368 181.723 51.368H190.771C191.123 51.368 191.299 51.544 191.299 51.896V53.192C191.299 53.544 191.123 53.72 190.771 53.72H184.123V58.52H189.475C189.827 58.52 190.003 58.696 190.003 59.048V60.344C190.003 60.696 189.827 60.872 189.475 60.872H184.123V67.472C184.123 67.824 183.947 68 183.595 68H181.723ZM194.305 68C193.953 68 193.777 67.824 193.777 67.472V56.312C193.777 55.96 193.953 55.784 194.305 55.784H196.081C196.433 55.784 196.609 55.96 196.609 56.312V67.472C196.609 67.824 196.433 68 196.081 68H194.305ZM195.193 53.768C194.665 53.768 194.249 53.624 193.945 53.336C193.641 53.048 193.489 52.648 193.489 52.136C193.489 51.624 193.641 51.224 193.945 50.936C194.249 50.648 194.665 50.504 195.193 50.504C195.721 50.504 196.137 50.648 196.441 50.936C196.745 51.224 196.897 51.624 196.897 52.136C196.897 52.648 196.745 53.048 196.441 53.336C196.137 53.624 195.721 53.768 195.193 53.768ZM203.03 68.144C202.086 68.144 201.366 67.88 200.87 67.352C200.39 66.808 200.15 66.024 200.15 65V50.768C200.15 50.416 200.326 50.24 200.678 50.24H202.454C202.806 50.24 202.982 50.416 202.982 50.768V64.784C202.982 65.184 203.054 65.472 203.198 65.648C203.358 65.824 203.614 65.912 203.966 65.912C204.046 65.912 204.134 65.904 204.23 65.888C204.326 65.872 204.406 65.864 204.47 65.864C204.774 65.864 204.926 66.032 204.926 66.368V67.352C204.926 67.688 204.758 67.896 204.422 67.976C203.942 68.088 203.478 68.144 203.03 68.144ZM212.889 68.36C210.873 68.36 209.345 67.816 208.305 66.728C207.265 65.64 206.745 64.056 206.745 61.976C206.745 59.912 207.249 58.304 208.257 57.152C209.281 56 210.705 55.424 212.529 55.424C214.097 55.424 215.297 55.856 216.129 56.72C216.977 57.568 217.401 58.776 217.401 60.344C217.401 60.888 217.361 61.456 217.281 62.048C217.249 62.256 217.185 62.4 217.089 62.48C217.009 62.544 216.897 62.576 216.753 62.576H209.361C209.409 63.792 209.745 64.688 210.369 65.264C211.009 65.824 211.985 66.104 213.297 66.104C214.257 66.104 215.265 65.952 216.321 65.648C216.449 65.616 216.545 65.592 216.609 65.576C216.673 65.56 216.729 65.552 216.777 65.552C217.017 65.552 217.137 65.712 217.137 66.032V66.896C217.137 67.136 217.097 67.312 217.017 67.424C216.953 67.52 216.793 67.616 216.537 67.712C215.465 68.144 214.249 68.36 212.889 68.36ZM214.905 60.68V60.488C214.905 59.512 214.689 58.768 214.257 58.256C213.841 57.744 213.225 57.488 212.409 57.488C211.545 57.488 210.841 57.776 210.297 58.352C209.753 58.928 209.441 59.704 209.361 60.68H214.905ZM223.406 68.36C222.142 68.36 220.974 68.152 219.902 67.736C219.646 67.64 219.478 67.544 219.398 67.448C219.334 67.336 219.302 67.16 219.302 66.92V66.056C219.302 65.736 219.414 65.576 219.638 65.576C219.75 65.576 219.974 65.624 220.31 65.72C221.446 66.04 222.47 66.2 223.382 66.2C224.182 66.2 224.766 66.08 225.134 65.84C225.502 65.584 225.686 65.2 225.686 64.688C225.686 64.336 225.574 64.056 225.35 63.848C225.126 63.624 224.71 63.4 224.102 63.176L222.11 62.408C220.318 61.72 219.422 60.6 219.422 59.048C219.422 57.928 219.838 57.048 220.67 56.408C221.502 55.752 222.614 55.424 224.006 55.424C224.998 55.424 225.998 55.592 227.006 55.928C227.246 56.008 227.406 56.104 227.486 56.216C227.566 56.312 227.606 56.488 227.606 56.744V57.584C227.606 57.76 227.574 57.888 227.51 57.968C227.462 58.032 227.366 58.064 227.222 58.064C227.142 58.064 226.942 58.024 226.622 57.944C225.614 57.704 224.798 57.584 224.174 57.584C223.438 57.584 222.894 57.696 222.542 57.92C222.206 58.128 222.038 58.464 222.038 58.928C222.038 59.28 222.158 59.568 222.398 59.792C222.654 60 223.102 60.232 223.742 60.488L225.59 61.208C226.55 61.576 227.238 62.016 227.654 62.528C228.086 63.04 228.302 63.688 228.302 64.472C228.302 65.672 227.87 66.624 227.006 67.328C226.142 68.016 224.942 68.36 223.406 68.36Z" fill="#232F3E"/>
<rect x="39.5" y="119.5" width="771" height="49" rx="9.5" stroke="#808285" stroke-opacity="0.5"/>
<rect x="39.5" y="188.5" width="771" height="49" rx="9.5" stroke="#808285" stroke-opacity="0.5"/>
<path d="M45.288 102.684H46.512V107.964C46.512 109.004 46.228 109.804 45.66 110.364C45.1 110.924 44.292 111.204 43.236 111.204C42.18 111.204 41.368 110.928 40.8 110.376C40.24 109.816 39.96 109.012 39.96 107.964V102.684H41.184V108.072C41.184 108.744 41.36 109.264 41.712 109.632C42.064 109.992 42.572 110.172 43.236 110.172C43.9 110.172 44.408 109.992 44.76 109.632C45.112 109.264 45.288 108.744 45.288 108.072V102.684ZM48.3607 113.472V104.916H49.3567L49.4647 105.54C50.0727 105.004 50.7487 104.736 51.4927 104.736C52.2687 104.736 52.8807 105.02 53.3287 105.588C53.7767 106.148 54.0007 106.912 54.0007 107.88C54.0007 108.864 53.7647 109.652 53.2927 110.244C52.8207 110.836 52.1927 111.132 51.4087 111.132C50.6887 111.132 50.0687 110.896 49.5487 110.424V113.472H48.3607ZM51.1567 105.696C50.5887 105.696 50.0527 105.88 49.5487 106.248V109.596C50.0687 109.98 50.5967 110.172 51.1327 110.172C52.2367 110.172 52.7887 109.428 52.7887 107.94C52.7887 107.18 52.6527 106.616 52.3807 106.248C52.1167 105.88 51.7087 105.696 51.1567 105.696ZM57.6342 110.916C57.3702 111.012 57.0822 111.06 56.7702 111.06C56.3462 111.06 56.0222 110.94 55.7982 110.7C55.5742 110.452 55.4622 110.1 55.4622 109.644V102.12H56.6502V109.572C56.6502 109.756 56.6862 109.892 56.7582 109.98C56.8382 110.06 56.9662 110.1 57.1422 110.1C57.3022 110.1 57.4662 110.088 57.6342 110.064V110.916ZM61.4761 111.18C60.5641 111.18 59.8521 110.896 59.3401 110.328C58.8281 109.76 58.5721 108.968 58.5721 107.952C58.5721 106.944 58.8281 106.156 59.3401 105.588C59.8521 105.02 60.5641 104.736 61.4761 104.736C62.3881 104.736 63.1001 105.02 63.6121 105.588C64.1241 106.156 64.3801 106.944 64.3801 107.952C64.3801 108.968 64.1241 109.76 63.6121 110.328C63.1001 110.896 62.3881 111.18 61.4761 111.18ZM61.4761 110.22C62.6041 110.22 63.1681 109.464 63.1681 107.952C63.1681 106.448 62.6041 105.696 61.4761 105.696C60.3481 105.696 59.7841 106.448 59.7841 107.952C59.7841 109.464 60.3481 110.22 61.4761 110.22ZM69.421 111L69.325 110.376C69.037 110.624 68.717 110.816 68.365 110.952C68.021 111.088 67.677 111.156 67.333 111.156C66.765 111.156 66.309 110.996 65.965 110.676C65.629 110.348 65.461 109.912 65.461 109.368C65.461 108.784 65.669 108.32 66.085 107.976C66.501 107.624 67.061 107.448 67.765 107.448C68.229 107.448 68.733 107.516 69.277 107.652V106.86C69.277 106.428 69.177 106.124 68.977 105.948C68.785 105.772 68.453 105.684 67.981 105.684C67.301 105.684 66.597 105.808 65.869 106.056V105.216C66.157 105.064 66.509 104.948 66.925 104.868C67.341 104.78 67.761 104.736 68.185 104.736C68.945 104.736 69.505 104.896 69.865 105.216C70.225 105.528 70.405 106.008 70.405 106.656V111H69.421ZM67.621 110.256C68.165 110.256 68.717 110.052 69.277 109.644V108.42C68.861 108.316 68.437 108.264 68.005 108.264C67.101 108.264 66.649 108.612 66.649 109.308C66.649 109.612 66.733 109.848 66.901 110.016C67.069 110.176 67.309 110.256 67.621 110.256ZM76.4932 111L76.3372 110.376C76.0732 110.616 75.7732 110.804 75.4372 110.94C75.1012 111.068 74.7612 111.132 74.4172 111.132C73.9132 111.132 73.4692 111.008 73.0852 110.76C72.7012 110.512 72.4012 110.152 72.1852 109.68C71.9692 109.2 71.8612 108.636 71.8612 107.988C71.8612 107.34 71.9652 106.772 72.1732 106.284C72.3812 105.796 72.6772 105.416 73.0612 105.144C73.4532 104.872 73.9172 104.736 74.4532 104.736C75.1332 104.736 75.7452 104.96 76.2892 105.408V102.12H77.4772V111H76.4932ZM74.7772 110.172C75.2732 110.172 75.7772 109.988 76.2892 109.62V106.224C76.0412 106.04 75.7892 105.908 75.5332 105.828C75.2852 105.74 75.0092 105.696 74.7052 105.696C73.6172 105.696 73.0732 106.448 73.0732 107.952C73.0732 109.432 73.6412 110.172 74.7772 110.172ZM82.5119 111V102.684H85.5479C86.3559 102.684 86.9999 102.908 87.4799 103.356C87.9599 103.796 88.1999 104.392 88.1999 105.144C88.1999 105.696 88.0479 106.176 87.7439 106.584C87.4479 106.984 87.0279 107.276 86.4839 107.46L88.6919 111H87.3599L85.3199 107.652H83.6999V111H82.5119ZM83.6999 106.68H85.3919C85.9039 106.68 86.2919 106.552 86.5559 106.296C86.8279 106.04 86.9639 105.66 86.9639 105.156C86.9639 104.66 86.8359 104.288 86.5799 104.04C86.3239 103.784 85.9439 103.656 85.4399 103.656H83.6999V106.68ZM90.4741 108.216C90.4901 108.904 90.6581 109.412 90.9781 109.74C91.3061 110.068 91.8101 110.232 92.4901 110.232C93.1221 110.232 93.7661 110.108 94.4221 109.86V110.712C93.8461 111.024 93.1421 111.18 92.3101 111.18C91.3261 111.18 90.5821 110.908 90.0781 110.364C89.5741 109.82 89.3221 109.016 89.3221 107.952C89.3221 106.936 89.5741 106.148 90.0781 105.588C90.5821 105.02 91.2861 104.736 92.1901 104.736C92.9501 104.736 93.5341 104.952 93.9421 105.384C94.3501 105.808 94.5541 106.412 94.5541 107.196C94.5541 107.572 94.5221 107.912 94.4581 108.216H90.4741ZM92.1301 105.636C91.6261 105.636 91.2341 105.788 90.9541 106.092C90.6741 106.388 90.5141 106.832 90.4741 107.424H93.4621C93.4701 107.36 93.4741 107.256 93.4741 107.112C93.4741 106.624 93.3581 106.256 93.1261 106.008C92.9021 105.76 92.5701 105.636 92.1301 105.636ZM96.4417 111V105.852H95.3137V105.084L96.4417 104.94V103.956C96.4417 102.62 97.0817 101.952 98.3617 101.952C98.8097 101.952 99.2097 102.024 99.5617 102.168V103.008C99.1537 102.944 98.8417 102.912 98.6257 102.912C98.2577 102.912 97.9977 102.984 97.8457 103.128C97.7017 103.264 97.6297 103.492 97.6297 103.812V104.916H99.4897V105.852H97.6297V111H96.4417ZM101.302 108.216C101.318 108.904 101.486 109.412 101.806 109.74C102.134 110.068 102.638 110.232 103.318 110.232C103.95 110.232 104.594 110.108 105.25 109.86V110.712C104.674 111.024 103.97 111.18 103.138 111.18C102.154 111.18 101.41 110.908 100.906 110.364C100.402 109.82 100.15 109.016 100.15 107.952C100.15 106.936 100.402 106.148 100.906 105.588C101.41 105.02 102.114 104.736 103.018 104.736C103.778 104.736 104.362 104.952 104.77 105.384C105.178 105.808 105.382 106.412 105.382 107.196C105.382 107.572 105.35 107.912 105.286 108.216H101.302ZM102.958 105.636C102.454 105.636 102.062 105.788 101.782 106.092C101.502 106.388 101.342 106.832 101.302 107.424H104.29C104.298 107.36 104.302 107.256 104.302 107.112C104.302 106.624 104.186 106.256 103.954 106.008C103.73 105.76 103.398 105.636 102.958 105.636ZM106.814 111V104.916H107.81L107.942 105.816C108.166 105.576 108.374 105.392 108.566 105.264C108.758 105.128 108.954 105.028 109.154 104.964C109.354 104.9 109.57 104.868 109.802 104.868C109.954 104.868 110.118 104.88 110.294 104.904V105.984C110.038 105.952 109.822 105.936 109.646 105.936C109.006 105.936 108.458 106.128 108.002 106.512V111H106.814ZM112.013 108.216C112.029 108.904 112.197 109.412 112.517 109.74C112.845 110.068 113.349 110.232 114.029 110.232C114.661 110.232 115.305 110.108 115.961 109.86V110.712C115.385 111.024 114.681 111.18 113.849 111.18C112.865 111.18 112.121 110.908 111.617 110.364C111.113 109.82 110.861 109.016 110.861 107.952C110.861 106.936 111.113 106.148 111.617 105.588C112.121 105.02 112.825 104.736 113.729 104.736C114.489 104.736 115.073 104.952 115.481 105.384C115.889 105.808 116.093 106.412 116.093 107.196C116.093 107.572 116.061 107.912 115.997 108.216H112.013ZM113.669 105.636C113.165 105.636 112.773 105.788 112.493 106.092C112.213 106.388 112.053 106.832 112.013 107.424H115.001C115.009 107.36 115.013 107.256 115.013 107.112C115.013 106.624 114.897 106.256 114.665 106.008C114.441 105.76 114.109 105.636 113.669 105.636ZM121.641 111V106.932C121.641 106.508 121.553 106.196 121.377 105.996C121.209 105.796 120.941 105.696 120.573 105.696C119.941 105.696 119.321 105.9 118.713 106.308V111H117.525V104.916H118.521L118.641 105.588C119.401 105.02 120.201 104.736 121.041 104.736C121.625 104.736 122.069 104.892 122.373 105.204C122.677 105.508 122.829 105.952 122.829 106.536V111H121.641ZM128.791 110.772C128.327 111.012 127.791 111.132 127.183 111.132C126.239 111.132 125.515 110.864 125.011 110.328C124.515 109.784 124.267 109 124.267 107.976C124.267 106.96 124.523 106.176 125.035 105.624C125.555 105.064 126.287 104.784 127.231 104.784C127.767 104.784 128.271 104.896 128.743 105.12V105.972C128.287 105.828 127.839 105.756 127.399 105.756C126.727 105.756 126.243 105.928 125.947 106.272C125.651 106.608 125.503 107.148 125.503 107.892V108.048C125.503 108.776 125.651 109.312 125.947 109.656C126.251 109.992 126.727 110.16 127.375 110.16C127.807 110.16 128.279 110.08 128.791 109.92V110.772ZM130.775 108.216C130.791 108.904 130.959 109.412 131.279 109.74C131.607 110.068 132.111 110.232 132.791 110.232C133.423 110.232 134.067 110.108 134.723 109.86V110.712C134.147 111.024 133.443 111.18 132.611 111.18C131.627 111.18 130.883 110.908 130.379 110.364C129.875 109.82 129.623 109.016 129.623 107.952C129.623 106.936 129.875 106.148 130.379 105.588C130.883 105.02 131.587 104.736 132.491 104.736C133.251 104.736 133.835 104.952 134.243 105.384C134.651 105.808 134.855 106.412 134.855 107.196C134.855 107.572 134.823 107.912 134.759 108.216H130.775ZM132.431 105.636C131.927 105.636 131.535 105.788 131.255 106.092C130.975 106.388 130.815 106.832 130.775 107.424H133.763C133.771 107.36 133.775 107.256 133.775 107.112C133.775 106.624 133.659 106.256 133.427 106.008C133.203 105.76 132.871 105.636 132.431 105.636ZM139.142 109.368C139.142 109.176 139.078 109.02 138.95 108.9C138.83 108.78 138.606 108.66 138.278 108.54L137.258 108.156C136.37 107.828 135.926 107.268 135.926 106.476C135.926 105.956 136.126 105.536 136.526 105.216C136.934 104.896 137.466 104.736 138.122 104.736C138.754 104.736 139.35 104.864 139.91 105.12V105.96C139.286 105.76 138.71 105.66 138.182 105.66C137.414 105.66 137.03 105.92 137.03 106.44C137.03 106.648 137.094 106.812 137.222 106.932C137.35 107.052 137.602 107.184 137.978 107.328L138.914 107.688C139.386 107.872 139.726 108.092 139.934 108.348C140.142 108.596 140.246 108.92 140.246 109.32C140.246 109.888 140.034 110.34 139.61 110.676C139.186 111.012 138.622 111.18 137.918 111.18C137.126 111.18 136.438 111.028 135.854 110.724V109.884C136.606 110.132 137.302 110.256 137.942 110.256C138.334 110.256 138.63 110.18 138.83 110.028C139.038 109.876 139.142 109.656 139.142 109.368ZM147.199 111.18C146.287 111.18 145.575 110.896 145.063 110.328C144.551 109.76 144.295 108.968 144.295 107.952C144.295 106.944 144.551 106.156 145.063 105.588C145.575 105.02 146.287 104.736 147.199 104.736C148.111 104.736 148.823 105.02 149.335 105.588C149.847 106.156 150.103 106.944 150.103 107.952C150.103 108.968 149.847 109.76 149.335 110.328C148.823 110.896 148.111 111.18 147.199 111.18ZM147.199 110.22C148.327 110.22 148.891 109.464 148.891 107.952C148.891 106.448 148.327 105.696 147.199 105.696C146.071 105.696 145.507 106.448 145.507 107.952C145.507 109.464 146.071 110.22 147.199 110.22ZM151.568 111V104.916H152.564L152.696 105.816C152.92 105.576 153.128 105.392 153.32 105.264C153.512 105.128 153.708 105.028 153.908 104.964C154.108 104.9 154.324 104.868 154.556 104.868C154.708 104.868 154.872 104.88 155.048 104.904V105.984C154.792 105.952 154.576 105.936 154.4 105.936C153.76 105.936 153.212 106.128 152.756 106.512V111H151.568ZM165.161 110.772C164.513 111.02 163.813 111.144 163.061 111.144C161.749 111.144 160.753 110.784 160.073 110.064C159.401 109.336 159.065 108.272 159.065 106.872C159.065 105.488 159.413 104.424 160.109 103.68C160.813 102.936 161.817 102.564 163.121 102.564C163.801 102.564 164.441 102.672 165.041 102.888V103.884C164.313 103.716 163.721 103.632 163.265 103.632C162.257 103.632 161.521 103.88 161.057 104.376C160.593 104.864 160.361 105.644 160.361 106.716V107.004C160.361 108.06 160.585 108.836 161.033 109.332C161.489 109.828 162.209 110.076 163.193 110.076C163.697 110.076 164.353 109.976 165.161 109.776V110.772ZM170.05 111L169.954 110.376C169.666 110.624 169.346 110.816 168.994 110.952C168.65 111.088 168.306 111.156 167.962 111.156C167.394 111.156 166.938 110.996 166.594 110.676C166.258 110.348 166.09 109.912 166.09 109.368C166.09 108.784 166.298 108.32 166.714 107.976C167.13 107.624 167.69 107.448 168.394 107.448C168.858 107.448 169.362 107.516 169.906 107.652V106.86C169.906 106.428 169.806 106.124 169.606 105.948C169.414 105.772 169.082 105.684 168.61 105.684C167.93 105.684 167.226 105.808 166.498 106.056V105.216C166.786 105.064 167.138 104.948 167.554 104.868C167.97 104.78 168.39 104.736 168.814 104.736C169.574 104.736 170.134 104.896 170.494 105.216C170.854 105.528 171.034 106.008 171.034 106.656V111H170.05ZM168.25 110.256C168.794 110.256 169.346 110.052 169.906 109.644V108.42C169.49 108.316 169.066 108.264 168.634 108.264C167.73 108.264 167.278 108.612 167.278 109.308C167.278 109.612 167.362 109.848 167.53 110.016C167.698 110.176 167.938 110.256 168.25 110.256ZM180.578 111V106.872C180.578 106.472 180.502 106.176 180.35 105.984C180.198 105.792 179.958 105.696 179.63 105.696C179.046 105.696 178.458 105.876 177.866 106.236C177.874 106.292 177.878 106.352 177.878 106.416C177.878 106.48 177.878 106.544 177.878 106.608V111H176.69V106.872C176.69 106.472 176.614 106.176 176.462 105.984C176.31 105.792 176.07 105.696 175.742 105.696C175.134 105.696 174.55 105.872 173.99 106.224V111H172.802V104.916H173.798L173.918 105.528C174.686 105 175.434 104.736 176.162 104.736C176.906 104.736 177.41 105.02 177.674 105.588C178.466 105.02 179.258 104.736 180.05 104.736C180.602 104.736 181.026 104.892 181.322 105.204C181.618 105.516 181.766 105.96 181.766 106.536V111H180.578ZM183.513 113.472V104.916H184.509L184.617 105.54C185.225 105.004 185.901 104.736 186.645 104.736C187.421 104.736 188.033 105.02 188.481 105.588C188.929 106.148 189.153 106.912 189.153 107.88C189.153 108.864 188.917 109.652 188.445 110.244C187.973 110.836 187.345 111.132 186.561 111.132C185.841 111.132 185.221 110.896 184.701 110.424V113.472H183.513ZM186.309 105.696C185.741 105.696 185.205 105.88 184.701 106.248V109.596C185.221 109.98 185.749 110.172 186.285 110.172C187.389 110.172 187.941 109.428 187.941 107.94C187.941 107.18 187.805 106.616 187.533 106.248C187.269 105.88 186.861 105.696 186.309 105.696ZM194.191 111L194.095 110.376C193.807 110.624 193.487 110.816 193.135 110.952C192.791 111.088 192.447 111.156 192.103 111.156C191.535 111.156 191.079 110.996 190.735 110.676C190.399 110.348 190.231 109.912 190.231 109.368C190.231 108.784 190.439 108.32 190.855 107.976C191.271 107.624 191.831 107.448 192.535 107.448C192.999 107.448 193.503 107.516 194.047 107.652V106.86C194.047 106.428 193.947 106.124 193.747 105.948C193.555 105.772 193.223 105.684 192.751 105.684C192.071 105.684 191.367 105.808 190.639 106.056V105.216C190.927 105.064 191.279 104.948 191.695 104.868C192.111 104.78 192.531 104.736 192.955 104.736C193.715 104.736 194.275 104.896 194.635 105.216C194.995 105.528 195.175 106.008 195.175 106.656V111H194.191ZM192.391 110.256C192.935 110.256 193.487 110.052 194.047 109.644V108.42C193.631 108.316 193.207 108.264 192.775 108.264C191.871 108.264 191.419 108.612 191.419 109.308C191.419 109.612 191.503 109.848 191.671 110.016C191.839 110.176 192.079 110.256 192.391 110.256ZM196.991 111V104.916H198.179V111H196.991ZM197.591 103.836C197.359 103.836 197.175 103.772 197.039 103.644C196.911 103.508 196.847 103.332 196.847 103.116C196.847 102.9 196.911 102.728 197.039 102.6C197.175 102.464 197.359 102.396 197.591 102.396C197.823 102.396 198.003 102.464 198.131 102.6C198.267 102.728 198.335 102.9 198.335 103.116C198.335 103.332 198.267 103.508 198.131 103.644C198.003 103.772 197.823 103.836 197.591 103.836ZM204.009 110.172C203.737 110.404 203.445 110.584 203.133 110.712C202.821 110.832 202.505 110.892 202.185 110.892C201.697 110.892 201.265 110.772 200.889 110.532C200.513 110.292 200.217 109.944 200.001 109.488C199.793 109.024 199.689 108.484 199.689 107.868C199.689 106.908 199.917 106.148 200.373 105.588C200.829 105.02 201.441 104.736 202.209 104.736C202.929 104.736 203.557 104.984 204.093 105.48L204.189 104.916H205.185V110.628C205.185 111.58 204.929 112.316 204.417 112.836C203.913 113.356 203.193 113.616 202.257 113.616C201.505 113.616 200.813 113.456 200.181 113.136V112.284C200.917 112.532 201.577 112.656 202.161 112.656C202.801 112.656 203.269 112.5 203.565 112.188C203.861 111.884 204.009 111.392 204.009 110.712V110.172ZM202.533 109.932C203.029 109.932 203.521 109.748 204.009 109.38V106.224C203.769 106.04 203.525 105.908 203.277 105.828C203.029 105.74 202.757 105.696 202.461 105.696C201.421 105.696 200.901 106.404 200.901 107.82C200.901 108.516 201.037 109.044 201.309 109.404C201.589 109.756 201.997 109.932 202.533 109.932ZM211.078 111V106.932C211.078 106.508 210.99 106.196 210.814 105.996C210.646 105.796 210.378 105.696 210.01 105.696C209.378 105.696 208.758 105.9 208.15 106.308V111H206.962V104.916H207.958L208.078 105.588C208.838 105.02 209.638 104.736 210.478 104.736C211.062 104.736 211.506 104.892 211.81 105.204C212.114 105.508 212.266 105.952 212.266 106.536V111H211.078ZM217.326 111V102.684H218.55V111H217.326ZM224.613 111V106.932C224.613 106.508 224.525 106.196 224.349 105.996C224.181 105.796 223.913 105.696 223.545 105.696C222.913 105.696 222.293 105.9 221.685 106.308V111H220.497V104.916H221.493L221.613 105.588C222.373 105.02 223.173 104.736 224.013 104.736C224.597 104.736 225.041 104.892 225.345 105.204C225.649 105.508 225.801 105.952 225.801 106.536V111H224.613ZM230.408 109.368C230.408 109.176 230.344 109.02 230.216 108.9C230.096 108.78 229.872 108.66 229.544 108.54L228.524 108.156C227.636 107.828 227.192 107.268 227.192 106.476C227.192 105.956 227.392 105.536 227.792 105.216C228.2 104.896 228.732 104.736 229.388 104.736C230.02 104.736 230.616 104.864 231.176 105.12V105.96C230.552 105.76 229.976 105.66 229.448 105.66C228.68 105.66 228.296 105.92 228.296 106.44C228.296 106.648 228.36 106.812 228.488 106.932C228.616 107.052 228.868 107.184 229.244 107.328L230.18 107.688C230.652 107.872 230.992 108.092 231.2 108.348C231.408 108.596 231.512 108.92 231.512 109.32C231.512 109.888 231.3 110.34 230.876 110.676C230.452 111.012 229.888 111.18 229.184 111.18C228.392 111.18 227.704 111.028 227.12 110.724V109.884C227.872 110.132 228.568 110.256 229.208 110.256C229.6 110.256 229.896 110.18 230.096 110.028C230.304 109.876 230.408 109.656 230.408 109.368ZM232.732 113.472V104.916H233.728L233.836 105.54C234.444 105.004 235.12 104.736 235.864 104.736C236.64 104.736 237.252 105.02 237.7 105.588C238.148 106.148 238.372 106.912 238.372 107.88C238.372 108.864 238.136 109.652 237.664 110.244C237.192 110.836 236.564 111.132 235.78 111.132C235.06 111.132 234.44 110.896 233.92 110.424V113.472H232.732ZM235.528 105.696C234.96 105.696 234.424 105.88 233.92 106.248V109.596C234.44 109.98 234.968 110.172 235.504 110.172C236.608 110.172 237.16 109.428 237.16 107.94C237.16 107.18 237.024 106.616 236.752 106.248C236.488 105.88 236.08 105.696 235.528 105.696ZM239.881 111V104.916H241.069V111H239.881ZM240.481 103.836C240.249 103.836 240.065 103.772 239.929 103.644C239.801 103.508 239.737 103.332 239.737 103.116C239.737 102.9 239.801 102.728 239.929 102.6C240.065 102.464 240.249 102.396 240.481 102.396C240.713 102.396 240.893 102.464 241.021 102.6C241.157 102.728 241.225 102.9 241.225 103.116C241.225 103.332 241.157 103.508 241.021 103.644C240.893 103.772 240.713 103.836 240.481 103.836ZM242.892 111V104.916H243.888L244.02 105.816C244.244 105.576 244.452 105.392 244.644 105.264C244.836 105.128 245.032 105.028 245.232 104.964C245.432 104.9 245.648 104.868 245.88 104.868C246.032 104.868 246.196 104.88 246.372 104.904V105.984C246.116 105.952 245.9 105.936 245.724 105.936C245.084 105.936 244.536 106.128 244.08 106.512V111H242.892ZM250.944 111L250.848 110.376C250.56 110.624 250.24 110.816 249.888 110.952C249.544 111.088 249.2 111.156 248.856 111.156C248.288 111.156 247.832 110.996 247.488 110.676C247.152 110.348 246.984 109.912 246.984 109.368C246.984 108.784 247.192 108.32 247.608 107.976C248.024 107.624 248.584 107.448 249.288 107.448C249.752 107.448 250.256 107.516 250.8 107.652V106.86C250.8 106.428 250.7 106.124 250.5 105.948C250.308 105.772 249.976 105.684 249.504 105.684C248.824 105.684 248.12 105.808 247.392 106.056V105.216C247.68 105.064 248.032 104.948 248.448 104.868C248.864 104.78 249.284 104.736 249.708 104.736C250.468 104.736 251.028 104.896 251.388 105.216C251.748 105.528 251.928 106.008 251.928 106.656V111H250.944ZM249.144 110.256C249.688 110.256 250.24 110.052 250.8 109.644V108.42C250.384 108.316 249.96 108.264 249.528 108.264C248.624 108.264 248.172 108.612 248.172 109.308C248.172 109.612 248.256 109.848 248.424 110.016C248.592 110.176 248.832 110.256 249.144 110.256ZM257.117 110.856C256.725 111.008 256.281 111.084 255.785 111.084C254.649 111.084 254.081 110.516 254.081 109.38V105.852H252.977V105.084L254.117 104.94L254.297 103.212H255.269V104.916H257.069V105.852H255.269V109.32C255.269 109.616 255.333 109.824 255.461 109.944C255.597 110.064 255.825 110.124 256.145 110.124C256.473 110.124 256.797 110.084 257.117 110.004V110.856ZM258.338 111V104.916H259.526V111H258.338ZM258.938 103.836C258.706 103.836 258.522 103.772 258.386 103.644C258.258 103.508 258.194 103.332 258.194 103.116C258.194 102.9 258.258 102.728 258.386 102.6C258.522 102.464 258.706 102.396 258.938 102.396C259.17 102.396 259.35 102.464 259.478 102.6C259.614 102.728 259.682 102.9 259.682 103.116C259.682 103.332 259.614 103.508 259.478 103.644C259.35 103.772 259.17 103.836 258.938 103.836ZM263.941 111.18C263.029 111.18 262.317 110.896 261.805 110.328C261.293 109.76 261.037 108.968 261.037 107.952C261.037 106.944 261.293 106.156 261.805 105.588C262.317 105.02 263.029 104.736 263.941 104.736C264.853 104.736 265.565 105.02 266.077 105.588C266.589 106.156 266.845 106.944 266.845 107.952C266.845 108.968 266.589 109.76 266.077 110.328C265.565 110.896 264.853 111.18 263.941 111.18ZM263.941 110.22C265.069 110.22 265.633 109.464 265.633 107.952C265.633 106.448 265.069 105.696 263.941 105.696C262.813 105.696 262.249 106.448 262.249 107.952C262.249 109.464 262.813 110.22 263.941 110.22ZM272.426 111V106.932C272.426 106.508 272.338 106.196 272.162 105.996C271.994 105.796 271.726 105.696 271.358 105.696C270.726 105.696 270.106 105.9 269.498 106.308V111H268.31V104.916H269.306L269.426 105.588C270.186 105.02 270.986 104.736 271.826 104.736C272.41 104.736 272.854 104.892 273.158 105.204C273.462 105.508 273.614 105.952 273.614 106.536V111H272.426Z" fill="#232F3E"/>
<path d="M45.564 245.371H46.272V250.663C46.272 251.711 46.004 252.511 45.468 253.063C44.932 253.616 44.156 253.892 43.14 253.892C42.124 253.892 41.348 253.616 40.812 253.063C40.276 252.511 40.008 251.711 40.008 250.663V245.371H40.716V250.795C40.716 251.579 40.924 252.183 41.34 252.607C41.756 253.023 42.356 253.231 43.14 253.231C43.924 253.231 44.524 253.023 44.94 252.607C45.356 252.183 45.564 251.579 45.564 250.795V245.371ZM48.2212 256.16V247.651H48.8212L48.8812 248.323C49.2492 248.027 49.6052 247.811 49.9492 247.675C50.3012 247.539 50.6612 247.471 51.0292 247.471C51.8052 247.471 52.4172 247.751 52.8652 248.311C53.3132 248.863 53.5372 249.623 53.5372 250.591C53.5372 251.575 53.3012 252.359 52.8292 252.943C52.3572 253.527 51.7212 253.82 50.9212 253.82C50.1852 253.82 49.5132 253.547 48.9052 253.003V256.16H48.2212ZM50.8972 248.095C50.2332 248.095 49.5692 248.351 48.9052 248.863V252.379C49.2332 252.659 49.5532 252.867 49.8652 253.003C50.1772 253.131 50.5052 253.195 50.8492 253.195C51.5052 253.195 51.9972 252.983 52.3252 252.559C52.6612 252.127 52.8292 251.487 52.8292 250.639C52.8292 248.943 52.1852 248.095 50.8972 248.095ZM56.7321 253.639C56.5241 253.695 56.3201 253.724 56.1201 253.724C55.8001 253.724 55.5481 253.631 55.3641 253.447C55.1881 253.255 55.1001 252.991 55.1001 252.655V244.807H55.7841V252.643C55.7841 252.819 55.8161 252.943 55.8801 253.015C55.9521 253.087 56.0761 253.123 56.2521 253.123C56.3801 253.123 56.5401 253.111 56.7321 253.087V253.639ZM60.5721 253.868C59.6921 253.868 59.0081 253.587 58.5201 253.027C58.0321 252.459 57.7881 251.671 57.7881 250.663C57.7881 249.655 58.0321 248.871 58.5201 248.311C59.0081 247.751 59.6921 247.471 60.5721 247.471C61.4521 247.471 62.1361 247.751 62.6241 248.311C63.1121 248.871 63.3561 249.655 63.3561 250.663C63.3561 251.671 63.1121 252.459 62.6241 253.027C62.1361 253.587 61.4521 253.868 60.5721 253.868ZM60.5721 253.243C61.9561 253.243 62.6481 252.383 62.6481 250.663C62.6481 248.951 61.9561 248.095 60.5721 248.095C59.1881 248.095 58.4961 248.951 58.4961 250.663C58.4961 252.383 59.1881 253.243 60.5721 253.243ZM68.5564 253.688L68.4964 252.991C67.8084 253.543 67.0884 253.82 66.3364 253.82C65.7844 253.82 65.3444 253.664 65.0164 253.351C64.6964 253.031 64.5364 252.607 64.5364 252.079C64.5364 251.495 64.7364 251.035 65.1364 250.699C65.5364 250.363 66.0804 250.195 66.7684 250.195C67.3044 250.195 67.8764 250.287 68.4844 250.471V249.463C68.4844 248.975 68.3684 248.627 68.1364 248.419C67.9044 248.203 67.5204 248.095 66.9844 248.095C66.3444 248.095 65.6604 248.223 64.9324 248.479V247.915C65.2364 247.779 65.5804 247.671 65.9644 247.591C66.3484 247.511 66.7244 247.471 67.0924 247.471C67.7964 247.471 68.3164 247.619 68.6524 247.915C68.9964 248.211 69.1684 248.659 69.1684 249.259V253.688H68.5564ZM66.4324 253.195C66.7364 253.195 67.0644 253.135 67.4164 253.015C67.7684 252.887 68.1244 252.711 68.4844 252.487V250.987C67.9484 250.843 67.4284 250.771 66.9244 250.771C65.8044 250.771 65.2444 251.203 65.2444 252.067C65.2444 252.435 65.3444 252.715 65.5444 252.907C65.7444 253.099 66.0404 253.195 66.4324 253.195ZM75.3821 253.688L75.3101 253.015C75.0141 253.263 74.6821 253.459 74.3141 253.603C73.9541 253.748 73.6061 253.82 73.2701 253.82C72.4781 253.82 71.8501 253.543 71.3861 252.991C70.9301 252.431 70.7021 251.667 70.7021 250.699C70.7021 249.707 70.9341 248.923 71.3981 248.347C71.8621 247.763 72.4941 247.471 73.2941 247.471C74.0381 247.471 74.7101 247.735 75.3101 248.263V244.807H75.9941V253.688H75.3821ZM73.4261 253.195C74.0261 253.195 74.6541 252.939 75.3101 252.427V248.875C74.9741 248.603 74.6501 248.407 74.3381 248.287C74.0341 248.159 73.7101 248.095 73.3661 248.095C72.7261 248.095 72.2381 248.311 71.9021 248.743C71.5741 249.175 71.4101 249.815 71.4101 250.663C71.4101 252.351 72.0821 253.195 73.4261 253.195ZM85.1862 253.688L85.1142 253.027C84.3542 253.587 83.5662 253.868 82.7502 253.868C82.1742 253.868 81.7302 253.712 81.4182 253.399C81.1142 253.087 80.9622 252.631 80.9622 252.031V247.651H81.6462V251.743C81.6462 252.271 81.7462 252.655 81.9462 252.896C82.1462 253.127 82.4622 253.243 82.8942 253.243C83.2862 253.243 83.6542 253.183 83.9982 253.063C84.3422 252.943 84.7102 252.747 85.1022 252.475V247.651H85.7862V253.688H85.1862ZM87.6548 256.16V247.651H88.2548L88.3148 248.323C88.6828 248.027 89.0388 247.811 89.3828 247.675C89.7348 247.539 90.0948 247.471 90.4628 247.471C91.2388 247.471 91.8508 247.751 92.2988 248.311C92.7468 248.863 92.9708 249.623 92.9708 250.591C92.9708 251.575 92.7348 252.359 92.2628 252.943C91.7908 253.527 91.1548 253.82 90.3548 253.82C89.6188 253.82 88.9468 253.547 88.3388 253.003V256.16H87.6548ZM90.3308 248.095C89.6668 248.095 89.0028 248.351 88.3388 248.863V252.379C88.6668 252.659 88.9868 252.867 89.2988 253.003C89.6108 253.131 89.9388 253.195 90.2828 253.195C90.9388 253.195 91.4308 252.983 91.7588 252.559C92.0948 252.127 92.2628 251.487 92.2628 250.639C92.2628 248.943 91.6188 248.095 90.3308 248.095ZM100.746 253.555C100.41 253.691 100.006 253.76 99.5343 253.76C99.0623 253.76 98.7023 253.635 98.4543 253.387C98.2063 253.131 98.0823 252.763 98.0823 252.283V248.251H96.9543V247.771L98.1063 247.663L98.2023 245.899H98.7663V247.651H100.686V248.251H98.7663V252.247C98.7663 252.575 98.8343 252.807 98.9703 252.943C99.1143 253.079 99.3503 253.147 99.6783 253.147C100.006 253.147 100.362 253.099 100.746 253.003V253.555ZM104.377 253.868C103.497 253.868 102.813 253.587 102.325 253.027C101.837 252.459 101.593 251.671 101.593 250.663C101.593 249.655 101.837 248.871 102.325 248.311C102.813 247.751 103.497 247.471 104.377 247.471C105.257 247.471 105.941 247.751 106.429 248.311C106.917 248.871 107.161 249.655 107.161 250.663C107.161 251.671 106.917 252.459 106.429 253.027C105.941 253.587 105.257 253.868 104.377 253.868ZM104.377 253.243C105.761 253.243 106.453 252.383 106.453 250.663C106.453 248.951 105.761 248.095 104.377 248.095C102.993 248.095 102.301 248.951 102.301 250.663C102.301 252.383 102.993 253.243 104.377 253.243ZM113.75 249.055C113.942 249.031 114.15 249.019 114.374 249.019C115.134 249.019 115.742 249.235 116.198 249.667C116.662 250.099 116.894 250.671 116.894 251.383C116.894 252.135 116.622 252.739 116.078 253.195C115.542 253.644 114.822 253.868 113.918 253.868C113.174 253.868 112.438 253.708 111.71 253.387V252.787C112.214 252.947 112.63 253.059 112.958 253.123C113.286 253.187 113.618 253.219 113.954 253.219C114.658 253.219 115.202 253.059 115.586 252.739C115.978 252.419 116.174 251.967 116.174 251.383C116.174 250.207 115.458 249.619 114.026 249.619C113.61 249.619 113.226 249.635 112.874 249.667V249.139L115.73 246.007H111.83V245.371H116.558V245.995L113.75 249.055ZM122.158 253.688V245.371H126.826V246.007H122.866V249.187H126.214V249.823H122.866V253.688H122.158ZM128.191 253.688V247.651H128.875V253.688H128.191ZM128.539 246.355C128.379 246.355 128.251 246.307 128.155 246.211C128.067 246.115 128.023 245.987 128.023 245.827C128.023 245.667 128.067 245.539 128.155 245.443C128.251 245.347 128.379 245.299 128.539 245.299C128.699 245.299 128.823 245.347 128.911 245.443C129.007 245.539 129.055 245.667 129.055 245.827C129.055 245.987 129.007 246.115 128.911 246.211C128.823 246.307 128.699 246.355 128.539 246.355ZM132.423 253.639C132.215 253.695 132.011 253.724 131.811 253.724C131.491 253.724 131.239 253.631 131.055 253.447C130.879 253.255 130.791 252.991 130.791 252.655V244.807H131.475V252.643C131.475 252.819 131.507 252.943 131.571 253.015C131.643 253.087 131.767 253.123 131.943 253.123C132.071 253.123 132.231 253.111 132.423 253.087V253.639ZM134.175 250.783C134.183 251.623 134.367 252.243 134.727 252.643C135.087 253.043 135.643 253.243 136.395 253.243C137.083 253.243 137.743 253.103 138.375 252.823V253.387C137.807 253.708 137.131 253.868 136.347 253.868C135.395 253.868 134.679 253.6 134.199 253.063C133.719 252.519 133.479 251.715 133.479 250.651C133.479 249.643 133.719 248.863 134.199 248.311C134.687 247.751 135.367 247.471 136.239 247.471C136.967 247.471 137.523 247.679 137.907 248.095C138.299 248.511 138.495 249.107 138.495 249.883C138.495 250.243 138.471 250.543 138.423 250.783H134.175ZM136.179 248.083C134.915 248.083 134.247 248.799 134.175 250.231H137.823C137.831 250.119 137.835 249.987 137.835 249.835C137.835 249.259 137.695 248.823 137.415 248.527C137.135 248.231 136.723 248.083 136.179 248.083ZM143.074 252.104C143.074 251.887 142.994 251.703 142.834 251.551C142.682 251.399 142.422 251.255 142.054 251.119L140.962 250.711C140.106 250.391 139.678 249.867 139.678 249.139C139.678 248.643 139.862 248.243 140.23 247.939C140.606 247.627 141.094 247.471 141.694 247.471C141.974 247.471 142.266 247.503 142.57 247.567C142.874 247.631 143.154 247.719 143.41 247.831V248.395C142.762 248.187 142.178 248.083 141.658 248.083C141.226 248.083 140.898 248.171 140.674 248.347C140.45 248.515 140.338 248.767 140.338 249.103C140.338 249.375 140.414 249.587 140.566 249.739C140.726 249.883 141.034 250.043 141.49 250.219L142.45 250.579C142.898 250.747 143.222 250.955 143.422 251.203C143.63 251.443 143.734 251.743 143.734 252.104C143.734 252.647 143.534 253.079 143.134 253.399C142.742 253.712 142.206 253.868 141.526 253.868C140.798 253.868 140.146 253.723 139.57 253.435V252.871C140.282 253.127 140.95 253.255 141.574 253.255C142.062 253.255 142.434 253.159 142.69 252.967C142.946 252.767 143.074 252.479 143.074 252.104ZM145.401 253.76C145.241 253.76 145.109 253.707 145.005 253.603C144.909 253.499 144.861 253.367 144.861 253.207C144.861 253.039 144.909 252.903 145.005 252.799C145.109 252.695 145.241 252.643 145.401 252.643C145.561 252.643 145.689 252.695 145.785 252.799C145.889 252.903 145.941 253.039 145.941 253.207C145.941 253.367 145.889 253.499 145.785 253.603C145.689 253.707 145.561 253.76 145.401 253.76ZM157.936 253.688V246.439L155.08 251.467H154.408L151.552 246.475V253.688H150.88V245.371H151.72L154.768 250.723L157.792 245.371H158.608V253.688H157.936ZM164.24 253.688L164.18 252.991C163.492 253.543 162.772 253.82 162.02 253.82C161.468 253.82 161.028 253.664 160.7 253.351C160.38 253.031 160.22 252.607 160.22 252.079C160.22 251.495 160.42 251.035 160.82 250.699C161.22 250.363 161.764 250.195 162.452 250.195C162.988 250.195 163.56 250.287 164.168 250.471V249.463C164.168 248.975 164.052 248.627 163.82 248.419C163.588 248.203 163.204 248.095 162.668 248.095C162.028 248.095 161.344 248.223 160.616 248.479V247.915C160.92 247.779 161.264 247.671 161.648 247.591C162.032 247.511 162.408 247.471 162.776 247.471C163.48 247.471 164 247.619 164.336 247.915C164.68 248.211 164.852 248.659 164.852 249.259V253.688H164.24ZM162.116 253.195C162.42 253.195 162.748 253.135 163.1 253.015C163.452 252.887 163.808 252.711 164.168 252.487V250.987C163.632 250.843 163.112 250.771 162.608 250.771C161.488 250.771 160.928 251.203 160.928 252.067C160.928 252.435 161.028 252.715 161.228 252.907C161.428 253.099 161.724 253.195 162.116 253.195ZM170.334 253.688L168.474 251.023L166.65 253.688H165.882L168.126 250.543L166.074 247.651H166.878L168.534 250.015L170.19 247.651H170.946L168.906 250.495L171.15 253.688H170.334ZM175.85 253.688V248.251H174.674V247.771L175.85 247.663V246.283C175.85 245.747 175.99 245.339 176.27 245.059C176.55 244.779 176.95 244.639 177.47 244.639C177.662 244.639 177.858 244.659 178.058 244.699C178.266 244.731 178.442 244.775 178.586 244.831V245.395C178.186 245.307 177.842 245.263 177.554 245.263C177.194 245.263 176.934 245.339 176.774 245.491C176.614 245.635 176.534 245.875 176.534 246.211V247.651H180.446V253.688H179.762V248.251H176.534V253.688H175.85ZM180.11 246.355C179.95 246.355 179.822 246.307 179.726 246.211C179.638 246.115 179.594 245.987 179.594 245.827C179.594 245.667 179.638 245.539 179.726 245.443C179.822 245.347 179.95 245.299 180.11 245.299C180.27 245.299 180.394 245.347 180.482 245.443C180.578 245.539 180.626 245.667 180.626 245.827C180.626 245.987 180.578 246.115 180.482 246.211C180.394 246.307 180.27 246.355 180.11 246.355ZM183.998 253.639C183.79 253.695 183.586 253.724 183.386 253.724C183.066 253.724 182.814 253.631 182.63 253.447C182.454 253.255 182.366 252.991 182.366 252.655V244.807H183.05V252.643C183.05 252.819 183.082 252.943 183.146 253.015C183.218 253.087 183.342 253.123 183.518 253.123C183.646 253.123 183.806 253.111 183.998 253.087V253.639ZM185.75 250.783C185.758 251.623 185.942 252.243 186.302 252.643C186.662 253.043 187.218 253.243 187.97 253.243C188.658 253.243 189.318 253.103 189.95 252.823V253.387C189.382 253.708 188.706 253.868 187.922 253.868C186.97 253.868 186.254 253.6 185.774 253.063C185.294 252.519 185.054 251.715 185.054 250.651C185.054 249.643 185.294 248.863 185.774 248.311C186.262 247.751 186.942 247.471 187.814 247.471C188.542 247.471 189.098 247.679 189.482 248.095C189.874 248.511 190.07 249.107 190.07 249.883C190.07 250.243 190.046 250.543 189.998 250.783H185.75ZM187.754 248.083C186.49 248.083 185.822 248.799 185.75 250.231H189.398C189.406 250.119 189.41 249.987 189.41 249.835C189.41 249.259 189.27 248.823 188.99 248.527C188.71 248.231 188.298 248.083 187.754 248.083ZM197.789 252.104C197.789 251.887 197.709 251.703 197.549 251.551C197.397 251.399 197.137 251.255 196.769 251.119L195.677 250.711C194.821 250.391 194.393 249.867 194.393 249.139C194.393 248.643 194.577 248.243 194.945 247.939C195.321 247.627 195.809 247.471 196.409 247.471C196.689 247.471 196.981 247.503 197.285 247.567C197.589 247.631 197.869 247.719 198.125 247.831V248.395C197.477 248.187 196.893 248.083 196.373 248.083C195.941 248.083 195.613 248.171 195.389 248.347C195.165 248.515 195.053 248.767 195.053 249.103C195.053 249.375 195.129 249.587 195.281 249.739C195.441 249.883 195.749 250.043 196.205 250.219L197.165 250.579C197.613 250.747 197.937 250.955 198.137 251.203C198.345 251.443 198.449 251.743 198.449 252.104C198.449 252.647 198.249 253.079 197.849 253.399C197.457 253.712 196.921 253.868 196.241 253.868C195.513 253.868 194.861 253.723 194.285 253.435V252.871C194.997 253.127 195.665 253.255 196.289 253.255C196.777 253.255 197.149 253.159 197.405 252.967C197.661 252.767 197.789 252.479 197.789 252.104ZM199.816 253.688V247.651H200.5V253.688H199.816ZM200.164 246.355C200.004 246.355 199.876 246.307 199.78 246.211C199.692 246.115 199.648 245.987 199.648 245.827C199.648 245.667 199.692 245.539 199.78 245.443C199.876 245.347 200.004 245.299 200.164 245.299C200.324 245.299 200.448 245.347 200.536 245.443C200.632 245.539 200.68 245.667 200.68 245.827C200.68 245.987 200.632 246.115 200.536 246.211C200.448 246.307 200.324 246.355 200.164 246.355ZM201.96 253.688V253.075L205.752 248.251H202.08V247.651H206.52V248.263L202.704 253.087H206.544V253.688H201.96ZM208.226 250.783C208.234 251.623 208.418 252.243 208.778 252.643C209.138 253.043 209.694 253.243 210.446 253.243C211.134 253.243 211.794 253.103 212.426 252.823V253.387C211.858 253.708 211.182 253.868 210.398 253.868C209.446 253.868 208.73 253.6 208.25 253.063C207.77 252.519 207.53 251.715 207.53 250.651C207.53 249.643 207.77 248.863 208.25 248.311C208.738 247.751 209.418 247.471 210.29 247.471C211.018 247.471 211.574 247.679 211.958 248.095C212.35 248.511 212.546 249.107 212.546 249.883C212.546 250.243 212.522 250.543 212.474 250.783H208.226ZM210.23 248.083C208.966 248.083 208.298 248.799 208.226 250.231H211.874C211.882 250.119 211.886 249.987 211.886 249.835C211.886 249.259 211.746 248.823 211.466 248.527C211.186 248.231 210.774 248.083 210.23 248.083ZM214.401 253.76C214.241 253.76 214.109 253.707 214.005 253.603C213.909 253.499 213.861 253.367 213.861 253.207C213.861 253.039 213.909 252.903 214.005 252.799C214.109 252.695 214.241 252.643 214.401 252.643C214.561 252.643 214.689 252.695 214.785 252.799C214.889 252.903 214.941 253.039 214.941 253.207C214.941 253.367 214.889 253.499 214.785 253.603C214.689 253.707 214.561 253.76 214.401 253.76ZM214.401 248.695C214.241 248.695 214.109 248.643 214.005 248.539C213.909 248.435 213.861 248.303 213.861 248.143C213.861 247.975 213.909 247.839 214.005 247.735C214.109 247.631 214.241 247.579 214.401 247.579C214.561 247.579 214.689 247.631 214.785 247.735C214.889 247.839 214.941 247.975 214.941 248.143C214.941 248.303 214.889 248.435 214.785 248.539C214.689 248.643 214.561 248.695 214.401 248.695ZM219.76 252.799C220.608 253.079 221.34 253.219 221.956 253.219C222.668 253.219 223.216 253.055 223.6 252.727C223.992 252.399 224.188 251.939 224.188 251.347C224.188 250.643 224.008 250.143 223.648 249.847C223.296 249.543 222.708 249.391 221.884 249.391C221.484 249.391 220.896 249.431 220.12 249.511V248.971L220.36 245.371H224.452V246.007H220.984L220.804 248.863C221.268 248.783 221.704 248.743 222.112 248.743C223.008 248.743 223.696 248.971 224.176 249.427C224.664 249.875 224.908 250.515 224.908 251.347C224.908 251.835 224.784 252.271 224.536 252.655C224.296 253.031 223.948 253.327 223.492 253.543C223.044 253.76 222.516 253.868 221.908 253.868C221.124 253.868 220.408 253.712 219.76 253.399V252.799ZM233.967 253.688V246.439L231.111 251.467H230.439L227.583 246.475V253.688H226.911V245.371H227.751L230.799 250.723L233.823 245.371H234.639V253.688H233.967ZM236.755 253.688V245.371H239.287C240.039 245.371 240.643 245.571 241.099 245.971C241.555 246.363 241.783 246.891 241.783 247.555C241.783 248.411 241.415 249.007 240.679 249.343C241.183 249.487 241.571 249.735 241.843 250.087C242.115 250.439 242.251 250.875 242.251 251.395C242.251 252.099 242.019 252.659 241.555 253.075C241.099 253.483 240.491 253.688 239.731 253.688H236.755ZM237.439 249.751V253.051H239.707C240.299 253.051 240.747 252.911 241.051 252.631C241.355 252.351 241.507 251.939 241.507 251.395C241.507 250.851 241.355 250.443 241.051 250.171C240.755 249.891 240.315 249.751 239.731 249.751H237.439ZM237.439 246.007V249.115H239.263C240.447 249.115 241.039 248.595 241.039 247.555C241.039 246.523 240.447 246.007 239.263 246.007H237.439ZM247.308 250.783C247.316 251.623 247.5 252.243 247.86 252.643C248.22 253.043 248.776 253.243 249.528 253.243C250.216 253.243 250.876 253.103 251.508 252.823V253.387C250.94 253.708 250.264 253.868 249.48 253.868C248.528 253.868 247.812 253.6 247.332 253.063C246.852 252.519 246.612 251.715 246.612 250.651C246.612 249.643 246.852 248.863 247.332 248.311C247.82 247.751 248.5 247.471 249.372 247.471C250.1 247.471 250.656 247.679 251.04 248.095C251.432 248.511 251.628 249.107 251.628 249.883C251.628 250.243 251.604 250.543 251.556 250.783H247.308ZM249.312 248.083C248.048 248.083 247.38 248.799 247.308 250.231H250.956C250.964 250.119 250.968 249.987 250.968 249.835C250.968 249.259 250.828 248.823 250.548 248.527C250.268 248.231 249.856 248.083 249.312 248.083ZM256.771 253.688L256.711 252.991C256.023 253.543 255.303 253.82 254.551 253.82C253.999 253.82 253.559 253.664 253.231 253.351C252.911 253.031 252.751 252.607 252.751 252.079C252.751 251.495 252.951 251.035 253.351 250.699C253.751 250.363 254.295 250.195 254.983 250.195C255.519 250.195 256.091 250.287 256.699 250.471V249.463C256.699 248.975 256.583 248.627 256.351 248.419C256.119 248.203 255.735 248.095 255.199 248.095C254.559 248.095 253.875 248.223 253.147 248.479V247.915C253.451 247.779 253.795 247.671 254.179 247.591C254.563 247.511 254.939 247.471 255.307 247.471C256.011 247.471 256.531 247.619 256.867 247.915C257.211 248.211 257.383 248.659 257.383 249.259V253.688H256.771ZM254.647 253.195C254.951 253.195 255.279 253.135 255.631 253.015C255.983 252.887 256.339 252.711 256.699 252.487V250.987C256.163 250.843 255.643 250.771 255.139 250.771C254.019 250.771 253.459 251.203 253.459 252.067C253.459 252.435 253.559 252.715 253.759 252.907C253.959 253.099 254.255 253.195 254.647 253.195ZM263.249 253.483C262.753 253.708 262.253 253.82 261.749 253.82C260.821 253.82 260.117 253.555 259.637 253.027C259.157 252.491 258.917 251.707 258.917 250.675C258.917 249.651 259.161 248.871 259.649 248.335C260.137 247.791 260.845 247.52 261.773 247.52C262.269 247.52 262.737 247.615 263.177 247.807V248.371C262.737 248.227 262.281 248.155 261.809 248.155C261.049 248.155 260.497 248.351 260.153 248.743C259.817 249.127 259.649 249.747 259.649 250.604V250.747C259.649 251.579 259.821 252.195 260.165 252.595C260.509 252.987 261.049 253.183 261.785 253.183C262.225 253.183 262.713 253.095 263.249 252.919V253.483ZM268.927 253.688V249.583C268.927 249.063 268.827 248.687 268.627 248.455C268.427 248.215 268.107 248.095 267.667 248.095C266.867 248.095 266.087 248.351 265.327 248.863V253.688H264.643V244.807H265.327V248.335C265.719 248.063 266.127 247.851 266.551 247.699C266.983 247.547 267.403 247.471 267.811 247.471C268.395 247.471 268.839 247.627 269.143 247.939C269.455 248.243 269.611 248.695 269.611 249.295V253.688H268.927ZM271.811 253.76C271.651 253.76 271.519 253.707 271.415 253.603C271.319 253.499 271.271 253.367 271.271 253.207C271.271 253.039 271.319 252.903 271.415 252.799C271.519 252.695 271.651 252.643 271.811 252.643C271.971 252.643 272.099 252.695 272.195 252.799C272.299 252.903 272.351 253.039 272.351 253.207C272.351 253.367 272.299 253.499 272.195 253.603C272.099 253.707 271.971 253.76 271.811 253.76Z" fill="#232F3E"/>
<path d="M57.576 148L56.64 145.504H52.8L51.864 148H51.168L54.36 139.684H55.116L58.308 148H57.576ZM53.028 144.916H56.424L54.72 140.428L53.028 144.916ZM62.3674 147.868C62.0314 148.004 61.6274 148.072 61.1554 148.072C60.6834 148.072 60.3234 147.948 60.0754 147.7C59.8274 147.444 59.7034 147.076 59.7034 146.596V142.564H58.5754V142.084L59.7274 141.976L59.8234 140.212H60.3874V141.964H62.3074V142.564H60.3874V146.56C60.3874 146.888 60.4554 147.12 60.5914 147.256C60.7354 147.392 60.9714 147.46 61.2994 147.46C61.6274 147.46 61.9834 147.412 62.3674 147.316V147.868ZM66.715 147.868C66.379 148.004 65.975 148.072 65.503 148.072C65.031 148.072 64.671 147.948 64.423 147.7C64.175 147.444 64.051 147.076 64.051 146.596V142.564H62.923V142.084L64.075 141.976L64.171 140.212H64.735V141.964H66.655V142.564H64.735V146.56C64.735 146.888 64.803 147.12 64.939 147.256C65.083 147.392 65.319 147.46 65.647 147.46C65.975 147.46 66.331 147.412 66.715 147.316V147.868ZM71.6267 148L71.5667 147.304C70.8787 147.856 70.1587 148.132 69.4067 148.132C68.8547 148.132 68.4147 147.976 68.0867 147.664C67.7667 147.344 67.6067 146.92 67.6067 146.392C67.6067 145.808 67.8067 145.348 68.2067 145.012C68.6067 144.676 69.1507 144.508 69.8387 144.508C70.3747 144.508 70.9467 144.6 71.5547 144.784V143.776C71.5547 143.288 71.4387 142.94 71.2067 142.732C70.9747 142.516 70.5907 142.408 70.0547 142.408C69.4147 142.408 68.7307 142.536 68.0027 142.792V142.228C68.3067 142.092 68.6507 141.984 69.0347 141.904C69.4187 141.824 69.7947 141.784 70.1627 141.784C70.8667 141.784 71.3867 141.932 71.7227 142.228C72.0667 142.524 72.2387 142.972 72.2387 143.572V148H71.6267ZM69.5027 147.508C69.8067 147.508 70.1347 147.448 70.4867 147.328C70.8387 147.2 71.1947 147.024 71.5547 146.8V145.3C71.0187 145.156 70.4987 145.084 69.9947 145.084C68.8747 145.084 68.3147 145.516 68.3147 146.38C68.3147 146.748 68.4147 147.028 68.6147 147.22C68.8147 147.412 69.1107 147.508 69.5027 147.508ZM78.1044 147.796C77.6084 148.02 77.1084 148.132 76.6044 148.132C75.6764 148.132 74.9724 147.868 74.4924 147.34C74.0124 146.804 73.7724 146.02 73.7724 144.988C73.7724 143.964 74.0164 143.184 74.5044 142.648C74.9924 142.104 75.7004 141.832 76.6284 141.832C77.1244 141.832 77.5924 141.928 78.0324 142.12V142.684C77.5924 142.54 77.1364 142.468 76.6644 142.468C75.9044 142.468 75.3524 142.664 75.0084 143.056C74.6724 143.44 74.5044 144.06 74.5044 144.916V145.06C74.5044 145.892 74.6764 146.508 75.0204 146.908C75.3644 147.3 75.9044 147.496 76.6404 147.496C77.0804 147.496 77.5684 147.408 78.1044 147.232V147.796ZM83.7825 148V143.896C83.7825 143.376 83.6825 143 83.4825 142.768C83.2825 142.528 82.9625 142.408 82.5225 142.408C81.7225 142.408 80.9425 142.664 80.1825 143.176V148H79.4985V139.12H80.1825V142.648C80.5745 142.376 80.9825 142.164 81.4065 142.012C81.8385 141.86 82.2585 141.784 82.6665 141.784C83.2505 141.784 83.6945 141.94 83.9985 142.252C84.3105 142.556 84.4665 143.008 84.4665 143.608V148H83.7825ZM95.0874 139.684H95.7954V144.976C95.7954 146.024 95.5274 146.824 94.9914 147.376C94.4554 147.928 93.6794 148.204 92.6634 148.204C91.6474 148.204 90.8714 147.928 90.3354 147.376C89.7994 146.824 89.5314 146.024 89.5314 144.976V139.684H90.2394V145.108C90.2394 145.892 90.4474 146.496 90.8634 146.92C91.2794 147.336 91.8794 147.544 92.6634 147.544C93.4474 147.544 94.0474 147.336 94.4634 146.92C94.8794 146.496 95.0874 145.892 95.0874 145.108V139.684ZM97.8646 148V139.684H100.757C101.509 139.684 102.113 139.9 102.569 140.332C103.025 140.764 103.253 141.344 103.253 142.072C103.253 142.68 103.085 143.188 102.749 143.596C102.413 143.996 101.937 144.264 101.321 144.4L103.709 148H102.881L100.601 144.484H98.5486V148H97.8646ZM98.5486 143.872H100.649C101.265 143.872 101.729 143.72 102.041 143.416C102.353 143.104 102.509 142.656 102.509 142.072C102.509 141.496 102.357 141.06 102.053 140.764C101.757 140.468 101.317 140.32 100.733 140.32H98.5486V143.872ZM104.954 148V139.684H105.662V147.364H109.838V148H104.954ZM118.353 148V143.896C118.353 143.376 118.253 143 118.053 142.768C117.853 142.528 117.533 142.408 117.093 142.408C116.293 142.408 115.513 142.664 114.753 143.176V148H114.069V139.12H114.753V142.648C115.145 142.376 115.553 142.164 115.977 142.012C116.409 141.86 116.829 141.784 117.237 141.784C117.821 141.784 118.265 141.94 118.569 142.252C118.881 142.556 119.037 143.008 119.037 143.608V148H118.353ZM121.273 145.096C121.281 145.936 121.465 146.556 121.825 146.956C122.185 147.356 122.741 147.556 123.493 147.556C124.181 147.556 124.841 147.416 125.473 147.136V147.7C124.905 148.02 124.229 148.18 123.445 148.18C122.493 148.18 121.777 147.912 121.297 147.376C120.817 146.832 120.577 146.028 120.577 144.964C120.577 143.956 120.817 143.176 121.297 142.624C121.785 142.064 122.465 141.784 123.337 141.784C124.065 141.784 124.621 141.992 125.005 142.408C125.397 142.824 125.593 143.42 125.593 144.196C125.593 144.556 125.569 144.856 125.521 145.096H121.273ZM123.277 142.396C122.013 142.396 121.345 143.112 121.273 144.544H124.921C124.929 144.432 124.933 144.3 124.933 144.148C124.933 143.572 124.793 143.136 124.513 142.84C124.233 142.544 123.821 142.396 123.277 142.396ZM127.1 148V141.964H127.7L127.772 142.84C128.076 142.504 128.372 142.268 128.66 142.132C128.956 141.988 129.288 141.916 129.656 141.916C129.792 141.916 129.956 141.928 130.148 141.952V142.564C129.94 142.548 129.752 142.54 129.584 142.54C129.216 142.54 128.888 142.608 128.6 142.744C128.32 142.88 128.048 143.1 127.784 143.404V148H127.1ZM131.492 145.096C131.5 145.936 131.684 146.556 132.044 146.956C132.404 147.356 132.96 147.556 133.712 147.556C134.4 147.556 135.06 147.416 135.692 147.136V147.7C135.124 148.02 134.448 148.18 133.664 148.18C132.712 148.18 131.996 147.912 131.516 147.376C131.036 146.832 130.796 146.028 130.796 144.964C130.796 143.956 131.036 143.176 131.516 142.624C132.004 142.064 132.684 141.784 133.556 141.784C134.284 141.784 134.84 141.992 135.224 142.408C135.616 142.824 135.812 143.42 135.812 144.196C135.812 144.556 135.788 144.856 135.74 145.096H131.492ZM133.496 142.396C132.232 142.396 131.564 143.112 131.492 144.544H135.14C135.148 144.432 135.152 144.3 135.152 144.148C135.152 143.572 135.012 143.136 134.732 142.84C134.452 142.544 134.04 142.396 133.496 142.396Z" fill="#808285" fill-opacity="0.5"/>
<path d="M57.564 208.684H58.272V213.976C58.272 215.024 58.004 215.824 57.468 216.376C56.932 216.928 56.156 217.204 55.14 217.204C54.124 217.204 53.348 216.928 52.812 216.376C52.276 215.824 52.008 215.024 52.008 213.976V208.684H52.716V214.108C52.716 214.892 52.924 215.496 53.34 215.92C53.756 216.336 54.356 216.544 55.14 216.544C55.924 216.544 56.524 216.336 56.94 215.92C57.356 215.496 57.564 214.892 57.564 214.108V208.684ZM60.2212 219.472V210.964H60.8212L60.8812 211.636C61.2492 211.34 61.6052 211.124 61.9492 210.988C62.3012 210.852 62.6612 210.784 63.0292 210.784C63.8052 210.784 64.4172 211.064 64.8652 211.624C65.3132 212.176 65.5372 212.936 65.5372 213.904C65.5372 214.888 65.3012 215.672 64.8292 216.256C64.3572 216.84 63.7212 217.132 62.9212 217.132C62.1852 217.132 61.5132 216.86 60.9052 216.316V219.472H60.2212ZM62.8972 211.408C62.2332 211.408 61.5692 211.664 60.9052 212.176V215.692C61.2332 215.972 61.5532 216.18 61.8652 216.316C62.1772 216.444 62.5052 216.508 62.8492 216.508C63.5052 216.508 63.9972 216.296 64.3252 215.872C64.6612 215.44 64.8292 214.8 64.8292 213.952C64.8292 212.256 64.1852 211.408 62.8972 211.408ZM68.7321 216.952C68.5241 217.008 68.3201 217.036 68.1201 217.036C67.8001 217.036 67.5481 216.944 67.3641 216.76C67.1881 216.568 67.1001 216.304 67.1001 215.968V208.12H67.7841V215.956C67.7841 216.132 67.8161 216.256 67.8801 216.328C67.9521 216.4 68.0761 216.436 68.2521 216.436C68.3801 216.436 68.5401 216.424 68.7321 216.4V216.952ZM72.5721 217.18C71.6921 217.18 71.0081 216.9 70.5201 216.34C70.0321 215.772 69.7881 214.984 69.7881 213.976C69.7881 212.968 70.0321 212.184 70.5201 211.624C71.0081 211.064 71.6921 210.784 72.5721 210.784C73.4521 210.784 74.1361 211.064 74.6241 211.624C75.1121 212.184 75.3561 212.968 75.3561 213.976C75.3561 214.984 75.1121 215.772 74.6241 216.34C74.1361 216.9 73.4521 217.18 72.5721 217.18ZM72.5721 216.556C73.9561 216.556 74.6481 215.696 74.6481 213.976C74.6481 212.264 73.9561 211.408 72.5721 211.408C71.1881 211.408 70.4961 212.264 70.4961 213.976C70.4961 215.696 71.1881 216.556 72.5721 216.556ZM80.5564 217L80.4964 216.304C79.8084 216.856 79.0884 217.132 78.3364 217.132C77.7844 217.132 77.3444 216.976 77.0164 216.664C76.6964 216.344 76.5364 215.92 76.5364 215.392C76.5364 214.808 76.7364 214.348 77.1364 214.012C77.5364 213.676 78.0804 213.508 78.7684 213.508C79.3044 213.508 79.8764 213.6 80.4844 213.784V212.776C80.4844 212.288 80.3684 211.94 80.1364 211.732C79.9044 211.516 79.5204 211.408 78.9844 211.408C78.3444 211.408 77.6604 211.536 76.9324 211.792V211.228C77.2364 211.092 77.5804 210.984 77.9644 210.904C78.3484 210.824 78.7244 210.784 79.0924 210.784C79.7964 210.784 80.3164 210.932 80.6524 211.228C80.9964 211.524 81.1684 211.972 81.1684 212.572V217H80.5564ZM78.4324 216.508C78.7364 216.508 79.0644 216.448 79.4164 216.328C79.7684 216.2 80.1244 216.024 80.4844 215.8V214.3C79.9484 214.156 79.4284 214.084 78.9244 214.084C77.8044 214.084 77.2444 214.516 77.2444 215.38C77.2444 215.748 77.3444 216.028 77.5444 216.22C77.7444 216.412 78.0404 216.508 78.4324 216.508ZM87.3821 217L87.3101 216.328C87.0141 216.576 86.6821 216.772 86.3141 216.916C85.9541 217.06 85.6061 217.132 85.2701 217.132C84.4781 217.132 83.8501 216.856 83.3861 216.304C82.9301 215.744 82.7021 214.98 82.7021 214.012C82.7021 213.02 82.9341 212.236 83.3981 211.66C83.8621 211.076 84.4941 210.784 85.2941 210.784C86.0381 210.784 86.7101 211.048 87.3101 211.576V208.12H87.9941V217H87.3821ZM85.4261 216.508C86.0261 216.508 86.6541 216.252 87.3101 215.74V212.188C86.9741 211.916 86.6501 211.72 86.3381 211.6C86.0341 211.472 85.7101 211.408 85.3661 211.408C84.7261 211.408 84.2381 211.624 83.9021 212.056C83.5741 212.488 83.4101 213.128 83.4101 213.976C83.4101 215.664 84.0821 216.508 85.4261 216.508ZM93.1302 217V208.684H97.7982V209.32H93.8382V212.5H97.1862V213.136H93.8382V217H93.1302ZM99.1637 217V210.964H99.8477V217H99.1637ZM99.5117 209.668C99.3517 209.668 99.2237 209.62 99.1277 209.524C99.0397 209.428 98.9957 209.3 98.9957 209.14C98.9957 208.98 99.0397 208.852 99.1277 208.756C99.2237 208.66 99.3517 208.612 99.5117 208.612C99.6717 208.612 99.7957 208.66 99.8837 208.756C99.9797 208.852 100.028 208.98 100.028 209.14C100.028 209.3 99.9797 209.428 99.8837 209.524C99.7957 209.62 99.6717 209.668 99.5117 209.668ZM103.396 216.952C103.188 217.008 102.984 217.036 102.784 217.036C102.464 217.036 102.212 216.944 102.028 216.76C101.852 216.568 101.764 216.304 101.764 215.968V208.12H102.448V215.956C102.448 216.132 102.48 216.256 102.544 216.328C102.616 216.4 102.74 216.436 102.916 216.436C103.044 216.436 103.204 216.424 103.396 216.4V216.952ZM105.148 214.096C105.156 214.936 105.34 215.556 105.7 215.956C106.06 216.356 106.616 216.556 107.368 216.556C108.056 216.556 108.716 216.416 109.348 216.136V216.7C108.78 217.02 108.104 217.18 107.32 217.18C106.368 217.18 105.652 216.912 105.172 216.376C104.692 215.832 104.452 215.028 104.452 213.964C104.452 212.956 104.692 212.176 105.172 211.624C105.66 211.064 106.34 210.784 107.212 210.784C107.94 210.784 108.496 210.992 108.88 211.408C109.272 211.824 109.468 212.42 109.468 213.196C109.468 213.556 109.444 213.856 109.396 214.096H105.148ZM107.152 211.396C105.888 211.396 105.22 212.112 105.148 213.544H108.796C108.804 213.432 108.808 213.3 108.808 213.148C108.808 212.572 108.668 212.136 108.388 211.84C108.108 211.544 107.696 211.396 107.152 211.396ZM118.4 217V212.896C118.4 212.376 118.3 212 118.1 211.768C117.9 211.528 117.58 211.408 117.14 211.408C116.34 211.408 115.56 211.664 114.8 212.176V217H114.116V208.12H114.8V211.648C115.192 211.376 115.6 211.164 116.024 211.012C116.456 210.86 116.876 210.784 117.284 210.784C117.868 210.784 118.312 210.94 118.616 211.252C118.928 211.556 119.084 212.008 119.084 212.608V217H118.4ZM121.32 214.096C121.328 214.936 121.512 215.556 121.872 215.956C122.232 216.356 122.788 216.556 123.54 216.556C124.228 216.556 124.888 216.416 125.52 216.136V216.7C124.952 217.02 124.276 217.18 123.492 217.18C122.54 217.18 121.824 216.912 121.344 216.376C120.864 215.832 120.624 215.028 120.624 213.964C120.624 212.956 120.864 212.176 121.344 211.624C121.832 211.064 122.512 210.784 123.384 210.784C124.112 210.784 124.668 210.992 125.052 211.408C125.444 211.824 125.64 212.42 125.64 213.196C125.64 213.556 125.616 213.856 125.568 214.096H121.32ZM123.324 211.396C122.06 211.396 121.392 212.112 121.32 213.544H124.968C124.976 213.432 124.98 213.3 124.98 213.148C124.98 212.572 124.84 212.136 124.56 211.84C124.28 211.544 123.868 211.396 123.324 211.396ZM127.147 217V210.964H127.747L127.819 211.84C128.123 211.504 128.419 211.268 128.707 211.132C129.003 210.988 129.335 210.916 129.703 210.916C129.839 210.916 130.003 210.928 130.195 210.952V211.564C129.987 211.548 129.799 211.54 129.631 211.54C129.263 211.54 128.935 211.608 128.647 211.744C128.367 211.88 128.095 212.1 127.831 212.404V217H127.147ZM131.539 214.096C131.547 214.936 131.731 215.556 132.091 215.956C132.451 216.356 133.007 216.556 133.759 216.556C134.447 216.556 135.107 216.416 135.739 216.136V216.7C135.171 217.02 134.495 217.18 133.711 217.18C132.759 217.18 132.043 216.912 131.563 216.376C131.083 215.832 130.843 215.028 130.843 213.964C130.843 212.956 131.083 212.176 131.563 211.624C132.051 211.064 132.731 210.784 133.603 210.784C134.331 210.784 134.887 210.992 135.271 211.408C135.663 211.824 135.859 212.42 135.859 213.196C135.859 213.556 135.835 213.856 135.787 214.096H131.539ZM133.543 211.396C132.279 211.396 131.611 212.112 131.539 213.544H135.187C135.195 213.432 135.199 213.3 135.199 213.148C135.199 212.572 135.059 212.136 134.779 211.84C134.499 211.544 134.087 211.396 133.543 211.396Z" fill="#808285" fill-opacity="0.5"/>
<path d="M721.536 58.692C721.368 58.668 721.216 58.608 721.08 58.512C720.944 58.408 720.836 58.276 720.756 58.116L721.836 56.904L720.456 56.58C720.44 56.5 720.432 56.436 720.432 56.388C720.432 56.116 720.536 55.876 720.744 55.668L722.04 56.304L721.872 54.756C722.032 54.684 722.2 54.648 722.376 54.648C722.56 54.648 722.728 54.684 722.88 54.756L722.712 56.304L724.008 55.668C724.216 55.876 724.32 56.116 724.32 56.388C724.32 56.436 724.312 56.5 724.296 56.58L722.916 56.904L723.996 58.116C723.916 58.276 723.808 58.408 723.672 58.512C723.536 58.608 723.384 58.668 723.216 58.692L722.376 57.24L721.536 58.692Z" fill="#DA223F"/>
<path d="M728.906 63V54.684H731.942C732.75 54.684 733.394 54.908 733.874 55.356C734.354 55.796 734.594 56.392 734.594 57.144C734.594 57.696 734.442 58.176 734.138 58.584C733.842 58.984 733.422 59.276 732.878 59.46L735.086 63H733.754L731.714 59.652H730.094V63H728.906ZM730.094 58.68H731.786C732.298 58.68 732.686 58.552 732.95 58.296C733.222 58.04 733.358 57.66 733.358 57.156C733.358 56.66 733.23 56.288 732.974 56.04C732.718 55.784 732.338 55.656 731.834 55.656H730.094V58.68ZM736.869 60.216C736.885 60.904 737.053 61.412 737.373 61.74C737.701 62.068 738.205 62.232 738.885 62.232C739.517 62.232 740.161 62.108 740.817 61.86V62.712C740.241 63.024 739.537 63.18 738.705 63.18C737.721 63.18 736.977 62.908 736.473 62.364C735.969 61.82 735.717 61.016 735.717 59.952C735.717 58.936 735.969 58.148 736.473 57.588C736.977 57.02 737.681 56.736 738.585 56.736C739.345 56.736 739.929 56.952 740.337 57.384C740.745 57.808 740.949 58.412 740.949 59.196C740.949 59.572 740.917 59.912 740.853 60.216H736.869ZM738.525 57.636C738.021 57.636 737.629 57.788 737.349 58.092C737.069 58.388 736.909 58.832 736.869 59.424H739.857C739.865 59.36 739.869 59.256 739.869 59.112C739.869 58.624 739.753 58.256 739.521 58.008C739.297 57.76 738.965 57.636 738.525 57.636ZM746.496 65.472V62.424C746.232 62.648 745.936 62.824 745.608 62.952C745.288 63.072 744.96 63.132 744.624 63.132C744.12 63.132 743.676 63.008 743.292 62.76C742.908 62.512 742.608 62.152 742.392 61.68C742.176 61.2 742.068 60.636 742.068 59.988C742.068 59.34 742.168 58.772 742.368 58.284C742.576 57.796 742.876 57.416 743.268 57.144C743.66 56.872 744.12 56.736 744.648 56.736C745.408 56.736 746.056 56.988 746.592 57.492L746.688 56.916H747.684V65.472H746.496ZM744.984 62.172C745.48 62.172 745.984 61.988 746.496 61.62V58.224C746.248 58.04 745.996 57.908 745.74 57.828C745.492 57.74 745.216 57.696 744.912 57.696C743.824 57.696 743.28 58.448 743.28 59.952C743.28 61.432 743.848 62.172 744.984 62.172ZM753.598 63L753.466 62.352C752.722 62.904 751.958 63.18 751.174 63.18C750.606 63.18 750.17 63.02 749.866 62.7C749.562 62.38 749.41 61.928 749.41 61.344V56.916H750.598V60.96C750.598 61.392 750.682 61.712 750.85 61.92C751.018 62.12 751.286 62.22 751.654 62.22C752.23 62.22 752.81 62.028 753.394 61.644V56.916H754.582V63H753.598ZM756.409 63V56.916H757.597V63H756.409ZM757.009 55.836C756.777 55.836 756.593 55.772 756.457 55.644C756.329 55.508 756.265 55.332 756.265 55.116C756.265 54.9 756.329 54.728 756.457 54.6C756.593 54.464 756.777 54.396 757.009 54.396C757.241 54.396 757.421 54.464 757.549 54.6C757.685 54.728 757.753 54.9 757.753 55.116C757.753 55.332 757.685 55.508 757.549 55.644C757.421 55.772 757.241 55.836 757.009 55.836ZM759.419 63V56.916H760.415L760.547 57.816C760.771 57.576 760.979 57.392 761.171 57.264C761.363 57.128 761.559 57.028 761.759 56.964C761.959 56.9 762.175 56.868 762.407 56.868C762.559 56.868 762.723 56.88 762.899 56.904V57.984C762.643 57.952 762.427 57.936 762.251 57.936C761.611 57.936 761.063 58.128 760.607 58.512V63H759.419ZM764.619 60.216C764.635 60.904 764.803 61.412 765.123 61.74C765.451 62.068 765.955 62.232 766.635 62.232C767.267 62.232 767.911 62.108 768.567 61.86V62.712C767.991 63.024 767.287 63.18 766.455 63.18C765.471 63.18 764.727 62.908 764.223 62.364C763.719 61.82 763.467 61.016 763.467 59.952C763.467 58.936 763.719 58.148 764.223 57.588C764.727 57.02 765.431 56.736 766.335 56.736C767.095 56.736 767.679 56.952 768.087 57.384C768.495 57.808 768.699 58.412 768.699 59.196C768.699 59.572 768.667 59.912 768.603 60.216H764.619ZM766.275 57.636C765.771 57.636 765.379 57.788 765.099 58.092C764.819 58.388 764.659 58.832 764.619 59.424H767.607C767.615 59.36 767.619 59.256 767.619 59.112C767.619 58.624 767.503 58.256 767.271 58.008C767.047 57.76 766.715 57.636 766.275 57.636ZM774.45 63L774.294 62.376C774.03 62.616 773.73 62.804 773.394 62.94C773.058 63.068 772.718 63.132 772.374 63.132C771.87 63.132 771.426 63.008 771.042 62.76C770.658 62.512 770.358 62.152 770.142 61.68C769.926 61.2 769.818 60.636 769.818 59.988C769.818 59.34 769.922 58.772 770.13 58.284C770.338 57.796 770.634 57.416 771.018 57.144C771.41 56.872 771.874 56.736 772.41 56.736C773.09 56.736 773.702 56.96 774.246 57.408V54.12H775.434V63H774.45ZM772.734 62.172C773.23 62.172 773.734 61.988 774.246 61.62V58.224C773.998 58.04 773.746 57.908 773.49 57.828C773.242 57.74 772.966 57.696 772.662 57.696C771.574 57.696 771.03 58.448 771.03 59.952C771.03 61.432 771.598 62.172 772.734 62.172ZM780.469 63V54.684H785.401V55.668H781.693V58.344H784.753V59.328H781.693V63H780.469ZM786.69 63V56.916H787.878V63H786.69ZM787.29 55.836C787.058 55.836 786.874 55.772 786.738 55.644C786.61 55.508 786.546 55.332 786.546 55.116C786.546 54.9 786.61 54.728 786.738 54.6C786.874 54.464 787.058 54.396 787.29 54.396C787.522 54.396 787.702 54.464 787.83 54.6C787.966 54.728 788.034 54.9 788.034 55.116C788.034 55.332 787.966 55.508 787.83 55.644C787.702 55.772 787.522 55.836 787.29 55.836ZM790.541 60.216C790.557 60.904 790.725 61.412 791.045 61.74C791.373 62.068 791.877 62.232 792.557 62.232C793.189 62.232 793.833 62.108 794.489 61.86V62.712C793.913 63.024 793.209 63.18 792.377 63.18C791.393 63.18 790.649 62.908 790.145 62.364C789.641 61.82 789.389 61.016 789.389 59.952C789.389 58.936 789.641 58.148 790.145 57.588C790.649 57.02 791.353 56.736 792.257 56.736C793.017 56.736 793.601 56.952 794.009 57.384C794.417 57.808 794.621 58.412 794.621 59.196C794.621 59.572 794.589 59.912 794.525 60.216H790.541ZM792.197 57.636C791.693 57.636 791.301 57.788 791.021 58.092C790.741 58.388 790.581 58.832 790.541 59.424H793.529C793.537 59.36 793.541 59.256 793.541 59.112C793.541 58.624 793.425 58.256 793.193 58.008C792.969 57.76 792.637 57.636 792.197 57.636ZM798.224 62.916C797.96 63.012 797.672 63.06 797.36 63.06C796.936 63.06 796.612 62.94 796.388 62.7C796.164 62.452 796.052 62.1 796.052 61.644V54.12H797.24V61.572C797.24 61.756 797.276 61.892 797.348 61.98C797.428 62.06 797.556 62.1 797.732 62.1C797.892 62.1 798.056 62.088 798.224 62.064V62.916ZM803.794 63L803.638 62.376C803.374 62.616 803.074 62.804 802.738 62.94C802.402 63.068 802.062 63.132 801.718 63.132C801.214 63.132 800.77 63.008 800.386 62.76C800.002 62.512 799.702 62.152 799.486 61.68C799.27 61.2 799.162 60.636 799.162 59.988C799.162 59.34 799.266 58.772 799.474 58.284C799.682 57.796 799.978 57.416 800.362 57.144C800.754 56.872 801.218 56.736 801.754 56.736C802.434 56.736 803.046 56.96 803.59 57.408V54.12H804.778V63H803.794ZM802.078 62.172C802.574 62.172 803.078 61.988 803.59 61.62V58.224C803.342 58.04 803.09 57.908 802.834 57.828C802.586 57.74 802.31 57.696 802.006 57.696C800.918 57.696 800.374 58.448 800.374 59.952C800.374 61.432 800.942 62.172 802.078 62.172ZM809.408 61.368C809.408 61.176 809.344 61.02 809.216 60.9C809.096 60.78 808.872 60.66 808.544 60.54L807.524 60.156C806.636 59.828 806.192 59.268 806.192 58.476C806.192 57.956 806.392 57.536 806.792 57.216C807.2 56.896 807.732 56.736 808.388 56.736C809.02 56.736 809.616 56.864 810.176 57.12V57.96C809.552 57.76 808.976 57.66 808.448 57.66C807.68 57.66 807.296 57.92 807.296 58.44C807.296 58.648 807.36 58.812 807.488 58.932C807.616 59.052 807.868 59.184 808.244 59.328L809.18 59.688C809.652 59.872 809.992 60.092 810.2 60.348C810.408 60.596 810.512 60.92 810.512 61.32C810.512 61.888 810.3 62.34 809.876 62.676C809.452 63.012 808.888 63.18 808.184 63.18C807.392 63.18 806.704 63.028 806.12 62.724V61.884C806.872 62.132 807.568 62.256 808.208 62.256C808.6 62.256 808.896 62.18 809.096 62.028C809.304 61.876 809.408 61.656 809.408 61.368Z" fill="#232F3E"/>
</g>
<defs>
<filter id="filter0_d_751_3232" x="0" y="0" width="860" height="307" filterUnits="userSpaceOnUse" color-interpolation-filters="sRGB">
<feFlood flood-opacity="0" result="BackgroundImageFix"/>
<feColorMatrix in="SourceAlpha" type="matrix" values="0 0 0 0 0 0 0 0 0 0 0 0 0 0 0 0 0 0 127 0" result="hardAlpha"/>
<feOffset dx="5" dy="5"/>
<feGaussianBlur stdDeviation="10"/>
<feComposite in2="hardAlpha" operator="out"/>
<feColorMatrix type="matrix" values="0 0 0 0 0.137255 0 0 0 0 0.184314 0 0 0 0 0.243137 0 0 0 0.1 0"/>
<feBlend mode="normal" in2="BackgroundImageFix" result="effect1_dropShadow_751_3232"/>
<feBlend mode="normal" in="SourceGraphic" in2="effect1_dropShadow_751_3232" result="shape"/>
</filter>
</defs>
</svg>
