<svg width="89" height="21" viewBox="0 0 89 21" fill="none" xmlns="http://www.w3.org/2000/svg">
<rect x="0.380371" y="0.732422" width="88" height="20" rx="10" fill="#FF9900" fill-opacity="0.5"/>
<path d="M21.2444 14.5044C20.5964 14.7524 19.8964 14.8764 19.1444 14.8764C17.8324 14.8764 16.8364 14.5164 16.1564 13.7964C15.4844 13.0684 15.1484 12.0044 15.1484 10.6044C15.1484 9.22042 15.4964 8.15642 16.1924 7.41242C16.8964 6.66842 17.9004 6.29642 19.2044 6.29642C19.8844 6.29642 20.5244 6.40442 21.1244 6.62042V7.61642C20.3964 7.44842 19.8044 7.36442 19.3484 7.36442C18.3404 7.36442 17.6044 7.61242 17.1404 8.10842C16.6764 8.59642 16.4444 9.37642 16.4444 10.4484V10.7364C16.4444 11.7924 16.6684 12.5684 17.1164 13.0644C17.5724 13.5604 18.2924 13.8084 19.2764 13.8084C19.7804 13.8084 20.4364 13.7084 21.2444 13.5084V14.5044ZM25.1494 14.9124C24.2374 14.9124 23.5254 14.6284 23.0134 14.0604C22.5014 13.4924 22.2454 12.7004 22.2454 11.6844C22.2454 10.6764 22.5014 9.88842 23.0134 9.32042C23.5254 8.75242 24.2374 8.46842 25.1494 8.46842C26.0614 8.46842 26.7734 8.75242 27.2854 9.32042C27.7974 9.88842 28.0534 10.6764 28.0534 11.6844C28.0534 12.7004 27.7974 13.4924 27.2854 14.0604C26.7734 14.6284 26.0614 14.9124 25.1494 14.9124ZM25.1494 13.9524C26.2774 13.9524 26.8414 13.1964 26.8414 11.6844C26.8414 10.1804 26.2774 9.42842 25.1494 9.42842C24.0214 9.42842 23.4574 10.1804 23.4574 11.6844C23.4574 13.1964 24.0214 13.9524 25.1494 13.9524ZM37.2944 14.7324V10.6044C37.2944 10.2044 37.2184 9.90842 37.0664 9.71642C36.9144 9.52442 36.6744 9.42842 36.3464 9.42842C35.7624 9.42842 35.1744 9.60842 34.5824 9.96842C34.5904 10.0244 34.5944 10.0844 34.5944 10.1484C34.5944 10.2124 34.5944 10.2764 34.5944 10.3404V14.7324H33.4064V10.6044C33.4064 10.2044 33.3304 9.90842 33.1784 9.71642C33.0264 9.52442 32.7864 9.42842 32.4584 9.42842C31.8504 9.42842 31.2664 9.60442 30.7064 9.95642V14.7324H29.5184V8.64842H30.5144L30.6344 9.26042C31.4024 8.73242 32.1504 8.46842 32.8784 8.46842C33.6224 8.46842 34.1264 8.75242 34.3904 9.32042C35.1824 8.75242 35.9744 8.46842 36.7664 8.46842C37.3184 8.46842 37.7424 8.62442 38.0384 8.93642C38.3344 9.24842 38.4824 9.69242 38.4824 10.2684V14.7324H37.2944ZM40.2293 17.2044V8.64842H41.2253L41.3333 9.27242C41.9413 8.73642 42.6173 8.46842 43.3613 8.46842C44.1373 8.46842 44.7493 8.75242 45.1973 9.32042C45.6453 9.88042 45.8693 10.6444 45.8693 11.6124C45.8693 12.5964 45.6333 13.3844 45.1613 13.9764C44.6893 14.5684 44.0613 14.8644 43.2773 14.8644C42.5573 14.8644 41.9373 14.6284 41.4173 14.1564V17.2044H40.2293ZM43.0253 9.42842C42.4573 9.42842 41.9213 9.61242 41.4173 9.98042V13.3284C41.9373 13.7124 42.4653 13.9044 43.0013 13.9044C44.1053 13.9044 44.6573 13.1604 44.6573 11.6724C44.6573 10.9124 44.5213 10.3484 44.2493 9.98042C43.9853 9.61242 43.5773 9.42842 43.0253 9.42842ZM49.5029 14.6484C49.2389 14.7444 48.9509 14.7924 48.6389 14.7924C48.2149 14.7924 47.8909 14.6724 47.6669 14.4324C47.4429 14.1844 47.3309 13.8324 47.3309 13.3764V5.85242H48.5189V13.3044C48.5189 13.4884 48.5549 13.6244 48.6269 13.7124C48.7069 13.7924 48.8349 13.8324 49.0109 13.8324C49.1709 13.8324 49.3349 13.8204 49.5029 13.7964V14.6484ZM51.5927 11.9484C51.6087 12.6364 51.7767 13.1444 52.0967 13.4724C52.4247 13.8004 52.9287 13.9644 53.6087 13.9644C54.2407 13.9644 54.8847 13.8404 55.5407 13.5924V14.4444C54.9647 14.7564 54.2607 14.9124 53.4287 14.9124C52.4447 14.9124 51.7007 14.6404 51.1967 14.0964C50.6927 13.5524 50.4407 12.7484 50.4407 11.6844C50.4407 10.6684 50.6927 9.88042 51.1967 9.32042C51.7007 8.75242 52.4047 8.46842 53.3087 8.46842C54.0687 8.46842 54.6527 8.68442 55.0607 9.11642C55.4687 9.54042 55.6727 10.1444 55.6727 10.9284C55.6727 11.3044 55.6407 11.6444 55.5767 11.9484H51.5927ZM53.2487 9.36842C52.7447 9.36842 52.3527 9.52042 52.0727 9.82442C51.7927 10.1204 51.6327 10.5644 51.5927 11.1564H54.5807C54.5887 11.0924 54.5927 10.9884 54.5927 10.8444C54.5927 10.3564 54.4767 9.98842 54.2447 9.74042C54.0207 9.49242 53.6887 9.36842 53.2487 9.36842ZM60.5243 14.5884C60.1323 14.7404 59.6883 14.8164 59.1923 14.8164C58.0563 14.8164 57.4883 14.2484 57.4883 13.1124V9.58442H56.3843V8.81642L57.5243 8.67242L57.7043 6.94442H58.6763V8.64842H60.4763V9.58442H58.6763V13.0524C58.6763 13.3484 58.7403 13.5564 58.8683 13.6764C59.0043 13.7964 59.2323 13.8564 59.5523 13.8564C59.8803 13.8564 60.2043 13.8164 60.5243 13.7364V14.5884ZM62.5381 11.9484C62.5541 12.6364 62.7221 13.1444 63.0421 13.4724C63.3701 13.8004 63.8741 13.9644 64.5541 13.9644C65.1861 13.9644 65.8301 13.8404 66.4861 13.5924V14.4444C65.9101 14.7564 65.2061 14.9124 64.3741 14.9124C63.3901 14.9124 62.6461 14.6404 62.1421 14.0964C61.6381 13.5524 61.3861 12.7484 61.3861 11.6844C61.3861 10.6684 61.6381 9.88042 62.1421 9.32042C62.6461 8.75242 63.3501 8.46842 64.2541 8.46842C65.0141 8.46842 65.5981 8.68442 66.0061 9.11642C66.4141 9.54042 66.6181 10.1444 66.6181 10.9284C66.6181 11.3044 66.5861 11.6444 66.5221 11.9484H62.5381ZM64.1941 9.36842C63.6901 9.36842 63.2981 9.52042 63.0181 9.82442C62.7381 10.1204 62.5781 10.5644 62.5381 11.1564H65.5261C65.5341 11.0924 65.5381 10.9884 65.5381 10.8444C65.5381 10.3564 65.4221 9.98842 65.1901 9.74042C64.9661 9.49242 64.6341 9.36842 64.1941 9.36842ZM72.3696 14.7324L72.2136 14.1084C71.9496 14.3484 71.6496 14.5364 71.3136 14.6724C70.9776 14.8004 70.6376 14.8644 70.2936 14.8644C69.7896 14.8644 69.3456 14.7404 68.9616 14.4924C68.5776 14.2444 68.2776 13.8844 68.0616 13.4124C67.8456 12.9324 67.7376 12.3684 67.7376 11.7204C67.7376 11.0724 67.8416 10.5044 68.0496 10.0164C68.2576 9.52842 68.5536 9.14842 68.9376 8.87642C69.3296 8.60442 69.7936 8.46842 70.3296 8.46842C71.0096 8.46842 71.6216 8.69242 72.1656 9.14042V5.85242H73.3536V14.7324H72.3696ZM70.6536 13.9044C71.1496 13.9044 71.6536 13.7204 72.1656 13.3524V9.95642C71.9176 9.77242 71.6656 9.64042 71.4096 9.56042C71.1616 9.47242 70.8856 9.42842 70.5816 9.42842C69.4936 9.42842 68.9496 10.1804 68.9496 11.6844C68.9496 13.1644 69.5176 13.9044 70.6536 13.9044Z" fill="#232F3E"/>
</svg>
