<svg width="85" height="20" viewBox="0 0 85 20" fill="none" xmlns="http://www.w3.org/2000/svg">
<rect width="85" height="20" rx="10" fill="#808285"/>
<path d="M29.008 14V5.684H31.744C32.968 5.684 33.9 6.04 34.54 6.752C35.188 7.456 35.512 8.488 35.512 9.848C35.512 11.192 35.184 12.22 34.528 12.932C33.872 13.644 32.932 14 31.708 14H29.008ZM30.232 6.644V13.04H31.576C33.36 13.04 34.252 12.02 34.252 9.98V9.704C34.252 8.688 34.028 7.924 33.58 7.412C33.132 6.9 32.464 6.644 31.576 6.644H30.232ZM37.1732 14V7.916H38.1692L38.3012 8.816C38.5252 8.576 38.7332 8.392 38.9252 8.264C39.1172 8.128 39.3132 8.028 39.5132 7.964C39.7132 7.9 39.9292 7.868 40.1612 7.868C40.3132 7.868 40.4772 7.88 40.6532 7.904V8.984C40.3972 8.952 40.1812 8.936 40.0052 8.936C39.3652 8.936 38.8172 9.128 38.3612 9.512V14H37.1732ZM45.2257 14L45.1297 13.376C44.8417 13.624 44.5217 13.816 44.1697 13.952C43.8257 14.088 43.4817 14.156 43.1377 14.156C42.5697 14.156 42.1137 13.996 41.7697 13.676C41.4337 13.348 41.2657 12.912 41.2657 12.368C41.2657 11.784 41.4737 11.32 41.8897 10.976C42.3057 10.624 42.8657 10.448 43.5697 10.448C44.0337 10.448 44.5377 10.516 45.0817 10.652V9.86C45.0817 9.428 44.9817 9.124 44.7817 8.948C44.5897 8.772 44.2577 8.684 43.7857 8.684C43.1057 8.684 42.4017 8.808 41.6737 9.056V8.216C41.9617 8.064 42.3137 7.948 42.7297 7.868C43.1457 7.78 43.5657 7.736 43.9897 7.736C44.7497 7.736 45.3097 7.896 45.6697 8.216C46.0297 8.528 46.2097 9.008 46.2097 9.656V14H45.2257ZM43.4257 13.256C43.9697 13.256 44.5217 13.052 45.0817 12.644V11.42C44.6657 11.316 44.2417 11.264 43.8097 11.264C42.9057 11.264 42.4537 11.612 42.4537 12.308C42.4537 12.612 42.5377 12.848 42.7057 13.016C42.8737 13.176 43.1137 13.256 43.4257 13.256ZM48.4338 14V8.852H47.3058V8.084L48.4338 7.94V6.956C48.4338 5.62 49.0738 4.952 50.3538 4.952C50.8018 4.952 51.2018 5.024 51.5538 5.168V6.008C51.1458 5.944 50.8338 5.912 50.6178 5.912C50.2498 5.912 49.9898 5.984 49.8378 6.128C49.6938 6.264 49.6218 6.492 49.6218 6.812V7.916H51.4818V8.852H49.6218V14H48.4338ZM56.0502 13.856C55.6582 14.008 55.2142 14.084 54.7182 14.084C53.5822 14.084 53.0142 13.516 53.0142 12.38V8.852H51.9102V8.084L53.0502 7.94L53.2302 6.212H54.2022V7.916H56.0022V8.852H54.2022V12.32C54.2022 12.616 54.2662 12.824 54.3942 12.944C54.5302 13.064 54.7582 13.124 55.0782 13.124C55.4062 13.124 55.7302 13.084 56.0502 13.004V13.856Z" fill="white"/>
</svg>
