<svg width="17" height="16" viewBox="0 0 17 16" fill="none" xmlns="http://www.w3.org/2000/svg">
<path d="M0.971415 10.6601L0.0241923 14.7481C-0.00848372 14.8976 -0.00736357 15.0524 0.0274708 15.2014C0.0623052 15.3503 0.129974 15.4896 0.225533 15.609C0.321093 15.7285 0.44213 15.8251 0.579801 15.8918C0.717473 15.9585 0.868301 15.9935 1.02127 15.9945C1.09254 16.0017 1.16436 16.0017 1.23564 15.9945L5.34858 15.0472L13.2454 7.18031L8.83834 2.7832L0.971415 10.6601Z" fill="white"/>
<path d="M15.7271 3.24179L12.7858 0.300413C12.5924 0.108009 12.3307 0 12.0579 0C11.7851 0 11.5234 0.108009 11.33 0.300413L9.69482 1.93562L14.0969 6.33771L15.7321 4.7025C15.8278 4.60633 15.9036 4.49222 15.9552 4.36672C16.0067 4.24122 16.033 4.10679 16.0325 3.97111C16.0321 3.83544 16.0049 3.70119 15.9525 3.57604C15.9 3.45089 15.8235 3.33731 15.7271 3.24179Z" fill="white"/>
</svg>
