<svg width="86" height="21" viewBox="0 0 86 21" fill="none" xmlns="http://www.w3.org/2000/svg">
<rect x="0.881104" y="0.476074" width="85" height="20" rx="10" fill="#005A95"/>
<path d="M13.9371 14.4761V6.16007H15.1611V14.4761H13.9371ZM21.2249 14.4761V10.4081C21.2249 9.98407 21.1369 9.67207 20.9609 9.47207C20.7929 9.27207 20.5249 9.17207 20.1569 9.17207C19.5249 9.17207 18.9049 9.37607 18.2969 9.78407V14.4761H17.1089V8.39207H18.1049L18.2249 9.06407C18.9849 8.49607 19.7849 8.21207 20.6249 8.21207C21.2089 8.21207 21.6529 8.36807 21.9569 8.68007C22.2609 8.98407 22.4129 9.42807 22.4129 10.0121V14.4761H21.2249ZM28.6123 11.2601V14.4761H27.4243V6.16007H30.4363C31.2443 6.16007 31.8883 6.39207 32.3683 6.85607C32.8483 7.31207 33.0883 7.93207 33.0883 8.71607C33.0883 9.49207 32.8483 10.1121 32.3683 10.5761C31.8883 11.0321 31.2443 11.2601 30.4363 11.2601H28.6123ZM28.6123 10.2881H30.3283C30.8323 10.2881 31.2123 10.1561 31.4683 9.89207C31.7243 9.62007 31.8523 9.22807 31.8523 8.71607C31.8523 7.66007 31.3443 7.13207 30.3283 7.13207H28.6123V10.2881ZM34.4996 14.4761V8.39207H35.4956L35.6276 9.29207C35.8516 9.05207 36.0596 8.86807 36.2516 8.74007C36.4436 8.60407 36.6396 8.50407 36.8396 8.44007C37.0396 8.37607 37.2556 8.34407 37.4876 8.34407C37.6396 8.34407 37.8036 8.35607 37.9796 8.38007V9.46007C37.7236 9.42807 37.5076 9.41207 37.3316 9.41207C36.6916 9.41207 36.1436 9.60407 35.6876 9.98807V14.4761H34.4996ZM41.4509 14.6561C40.5389 14.6561 39.8269 14.3721 39.3149 13.8041C38.8029 13.2361 38.5469 12.4441 38.5469 11.4281C38.5469 10.4201 38.8029 9.63207 39.3149 9.06407C39.8269 8.49607 40.5389 8.21207 41.4509 8.21207C42.3629 8.21207 43.0749 8.49607 43.5869 9.06407C44.0989 9.63207 44.3549 10.4201 44.3549 11.4281C44.3549 12.4441 44.0989 13.2361 43.5869 13.8041C43.0749 14.3721 42.3629 14.6561 41.4509 14.6561ZM41.4509 13.6961C42.5789 13.6961 43.1429 12.9401 43.1429 11.4281C43.1429 9.92407 42.5789 9.17207 41.4509 9.17207C40.3229 9.17207 39.7589 9.92407 39.7589 11.4281C39.7589 12.9401 40.3229 13.6961 41.4509 13.6961ZM49.8279 13.6481C49.5559 13.8801 49.2639 14.0601 48.9519 14.1881C48.6399 14.3081 48.3239 14.3681 48.0039 14.3681C47.5159 14.3681 47.0839 14.2481 46.7079 14.0081C46.3319 13.7681 46.0359 13.4201 45.8199 12.9641C45.6119 12.5001 45.5079 11.9601 45.5079 11.3441C45.5079 10.3841 45.7359 9.62407 46.1919 9.06407C46.6479 8.49607 47.2599 8.21207 48.0279 8.21207C48.7479 8.21207 49.3759 8.46007 49.9119 8.95607L50.0079 8.39207H51.0039V14.1041C51.0039 15.0561 50.7479 15.7921 50.2359 16.3121C49.7319 16.8321 49.0119 17.0921 48.0759 17.0921C47.3239 17.0921 46.6319 16.9321 45.9999 16.6121V15.7601C46.7359 16.0081 47.3959 16.1321 47.9799 16.1321C48.6199 16.1321 49.0879 15.9761 49.3839 15.6641C49.6799 15.3601 49.8279 14.8681 49.8279 14.1881V13.6481ZM48.3519 13.4081C48.8479 13.4081 49.3399 13.2241 49.8279 12.8561V9.70007C49.5879 9.51607 49.3439 9.38407 49.0959 9.30407C48.8479 9.21607 48.5759 9.17207 48.2799 9.17207C47.2399 9.17207 46.7199 9.88007 46.7199 11.2961C46.7199 11.9921 46.8559 12.5201 47.1279 12.8801C47.4079 13.2321 47.8159 13.4081 48.3519 13.4081ZM52.7808 14.4761V8.39207H53.7768L53.9088 9.29207C54.1328 9.05207 54.3408 8.86807 54.5328 8.74007C54.7248 8.60407 54.9208 8.50407 55.1208 8.44007C55.3208 8.37607 55.5368 8.34407 55.7688 8.34407C55.9208 8.34407 56.0848 8.35607 56.2608 8.38007V9.46007C56.0048 9.42807 55.7888 9.41207 55.6128 9.41207C54.9728 9.41207 54.4248 9.60407 53.9688 9.98807V14.4761H52.7808ZM57.9802 11.6921C57.9962 12.3801 58.1642 12.8881 58.4842 13.2161C58.8122 13.5441 59.3162 13.7081 59.9962 13.7081C60.6282 13.7081 61.2722 13.5841 61.9282 13.3361V14.1881C61.3522 14.5001 60.6482 14.6561 59.8162 14.6561C58.8322 14.6561 58.0882 14.3841 57.5842 13.8401C57.0802 13.2961 56.8282 12.4921 56.8282 11.4281C56.8282 10.4121 57.0802 9.62407 57.5842 9.06407C58.0882 8.49607 58.7922 8.21207 59.6962 8.21207C60.4562 8.21207 61.0402 8.42807 61.4482 8.86007C61.8562 9.28407 62.0602 9.88807 62.0602 10.6721C62.0602 11.0481 62.0282 11.3881 61.9642 11.6921H57.9802ZM59.6362 9.11207C59.1322 9.11207 58.7402 9.26407 58.4602 9.56807C58.1802 9.86407 58.0202 10.3081 57.9802 10.9001H60.9682C60.9762 10.8361 60.9802 10.7321 60.9802 10.5881C60.9802 10.1001 60.8642 9.73207 60.6322 9.48407C60.4082 9.23607 60.0762 9.11207 59.6362 9.11207ZM66.3478 12.8441C66.3478 12.6521 66.2838 12.4961 66.1558 12.3761C66.0358 12.2561 65.8118 12.1361 65.4838 12.0161L64.4638 11.6321C63.5758 11.3041 63.1318 10.7441 63.1318 9.95207C63.1318 9.43207 63.3318 9.01207 63.7318 8.69207C64.1398 8.37207 64.6718 8.21207 65.3278 8.21207C65.9598 8.21207 66.5558 8.34007 67.1158 8.59607V9.43607C66.4918 9.23607 65.9158 9.13607 65.3878 9.13607C64.6198 9.13607 64.2358 9.39607 64.2358 9.91607C64.2358 10.1241 64.2998 10.2881 64.4278 10.4081C64.5558 10.5281 64.8078 10.6601 65.1838 10.8041L66.1198 11.1641C66.5918 11.3481 66.9318 11.5681 67.1398 11.8241C67.3478 12.0721 67.4518 12.3961 67.4518 12.7961C67.4518 13.3641 67.2398 13.8161 66.8158 14.1521C66.3918 14.4881 65.8278 14.6561 65.1238 14.6561C64.3318 14.6561 63.6438 14.5041 63.0598 14.2001V13.3601C63.8118 13.6081 64.5078 13.7321 65.1478 13.7321C65.5398 13.7321 65.8358 13.6561 66.0358 13.5041C66.2438 13.3521 66.3478 13.1321 66.3478 12.8441ZM71.5274 12.8441C71.5274 12.6521 71.4634 12.4961 71.3354 12.3761C71.2154 12.2561 70.9914 12.1361 70.6634 12.0161L69.6434 11.6321C68.7554 11.3041 68.3114 10.7441 68.3114 9.95207C68.3114 9.43207 68.5114 9.01207 68.9114 8.69207C69.3194 8.37207 69.8514 8.21207 70.5074 8.21207C71.1394 8.21207 71.7354 8.34007 72.2954 8.59607V9.43607C71.6714 9.23607 71.0954 9.13607 70.5674 9.13607C69.7994 9.13607 69.4154 9.39607 69.4154 9.91607C69.4154 10.1241 69.4794 10.2881 69.6074 10.4081C69.7354 10.5281 69.9874 10.6601 70.3634 10.8041L71.2994 11.1641C71.7714 11.3481 72.1114 11.5681 72.3194 11.8241C72.5274 12.0721 72.6314 12.3961 72.6314 12.7961C72.6314 13.3641 72.4194 13.8161 71.9954 14.1521C71.5714 14.4881 71.0074 14.6561 70.3034 14.6561C69.5114 14.6561 68.8234 14.5041 68.2394 14.2001V13.3601C68.9914 13.6081 69.6874 13.7321 70.3274 13.7321C70.7194 13.7321 71.0154 13.6561 71.2154 13.5041C71.4234 13.3521 71.5274 13.1321 71.5274 12.8441Z" fill="white"/>
</svg>
