<svg width="20" height="21" viewBox="0 0 20 21" fill="none" xmlns="http://www.w3.org/2000/svg">
<path d="M9.9975 7.46603C8.16126 7.46603 6.66274 8.96454 6.66274 10.8008C6.66274 12.637 8.16126 14.1355 9.9975 14.1355C11.8337 14.1355 13.3323 12.637 13.3323 10.8008C13.3323 8.96454 11.8337 7.46603 9.9975 7.46603ZM19.9993 10.8008C19.9993 9.41985 20.0118 8.05142 19.9342 6.67299C19.8567 5.07191 19.4914 3.65095 18.3206 2.48016C17.1473 1.30687 15.7289 0.944122 14.1278 0.866569C12.7469 0.789017 11.3784 0.801525 10 0.801525C8.61907 0.801525 7.25064 0.789017 5.87221 0.866569C4.27113 0.944122 2.85017 1.30937 1.67938 2.48016C0.506086 3.65345 0.14334 5.07191 0.065788 6.67299C-0.0117644 8.05393 0.000744113 9.42235 0.000744113 10.8008C0.000744113 12.1792 -0.0117644 13.5501 0.065788 14.9286C0.14334 16.5297 0.508587 17.9506 1.67938 19.1214C2.85267 20.2947 4.27113 20.6574 5.87221 20.735C7.25314 20.8125 8.62157 20.8 10 20.8C11.3809 20.8 12.7494 20.8125 14.1278 20.735C15.7289 20.6574 17.1498 20.2922 18.3206 19.1214C19.4939 17.9481 19.8567 16.5297 19.9342 14.9286C20.0143 13.5501 19.9993 12.1817 19.9993 10.8008ZM9.9975 15.9317C7.15808 15.9317 4.86653 13.6402 4.86653 10.8008C4.86653 7.96136 7.15808 5.66981 9.9975 5.66981C12.8369 5.66981 15.1285 7.96136 15.1285 10.8008C15.1285 13.6402 12.8369 15.9317 9.9975 15.9317ZM15.3386 6.65798C14.6757 6.65798 14.1403 6.12262 14.1403 5.45967C14.1403 4.79672 14.6757 4.26136 15.3386 4.26136C16.0016 4.26136 16.5369 4.79672 16.5369 5.45967C16.5371 5.61709 16.5063 5.773 16.4461 5.91848C16.386 6.06395 16.2977 6.19613 16.1864 6.30745C16.0751 6.41876 15.9429 6.50702 15.7974 6.56717C15.6519 6.62732 15.496 6.65818 15.3386 6.65798Z" fill="#232F3E"/>
</svg>
