<svg width="36" height="37" viewBox="0 0 36 37" fill="none" xmlns="http://www.w3.org/2000/svg">
<circle cx="18.2173" cy="18.6047" r="17.636" fill="#005A95"/>
<path d="M16.6894 25.6338C15.9414 25.6338 15.2008 25.5164 14.4674 25.2818C14.2328 25.2084 14.0788 25.1204 14.0054 25.0178C13.9321 24.9151 13.8954 24.7538 13.8954 24.5338V23.4778C13.8954 23.1698 14.0201 23.0158 14.2694 23.0158C14.4014 23.0158 14.6068 23.0524 14.8854 23.1258C15.5161 23.2724 16.0074 23.3458 16.3594 23.3458C17.2248 23.3458 17.8408 23.1331 18.2074 22.7078C18.5741 22.2824 18.7574 21.5784 18.7574 20.5958V10.4978C18.7574 10.1751 18.9188 10.0138 19.2414 10.0138H20.9574C21.2801 10.0138 21.4414 10.1751 21.4414 10.4978V20.5518C21.4414 22.2238 21.0381 23.4924 20.2314 24.3578C19.4394 25.2084 18.2588 25.6338 16.6894 25.6338Z" fill="white"/>
</svg>
