<svg width="23" height="23" viewBox="0 0 23 23" fill="none" xmlns="http://www.w3.org/2000/svg">
<path d="M11.3811 0.367188C17.5969 0.367188 22.3025 5.46344 22.3025 11.294C22.3025 18.0561 16.7871 22.2537 11.3593 22.2537C9.56456 22.2537 7.57289 21.7714 5.97518 20.8289C5.41708 20.4892 4.94652 20.2371 4.34464 20.4344L2.1341 21.0919C1.576 21.2673 1.07261 20.8289 1.23676 20.2371L1.96996 17.7821C2.09033 17.4424 2.06844 17.0807 1.89335 16.7957C0.952234 15.0641 0.416016 13.1681 0.416016 11.3269C0.416016 5.56207 5.02312 0.367188 11.3811 0.367188ZM16.3822 9.93499C15.6052 9.93499 14.9815 10.5597 14.9815 11.3378C14.9815 12.105 15.6052 12.7407 16.3822 12.7407C17.1592 12.7407 17.7829 12.105 17.7829 11.3378C17.7829 10.5597 17.1592 9.93499 16.3822 9.93499ZM11.3374 9.93499C10.5713 9.92403 9.93663 10.5597 9.93663 11.3269C9.93663 12.105 10.5604 12.7297 11.3374 12.7407C12.1143 12.7407 12.7381 12.105 12.7381 11.3378C12.7381 10.5597 12.1143 9.93499 11.3374 9.93499ZM6.29253 9.93499C5.51556 9.93499 4.8918 10.5597 4.8918 11.3378C4.8918 12.105 5.52651 12.7407 6.29253 12.7407C7.0695 12.7297 7.69327 12.105 7.69327 11.3378C7.69327 10.5597 7.0695 9.93499 6.29253 9.93499Z" fill="#232F3E"/>
</svg>
