<svg width="22" height="22" viewBox="0 0 22 22" fill="none" xmlns="http://www.w3.org/2000/svg">
<path d="M16.293 0.673828C19.8952 0.673828 21.9506 2.70803 21.9506 6.32087V16.2164C21.9506 19.8081 19.9058 21.8635 16.3036 21.8635H6.40803C2.79519 21.8635 0.760986 19.8081 0.760986 16.2164V6.32087C0.760986 2.70803 2.79519 0.673828 6.40803 0.673828H16.293ZM11.3452 6.51158C10.8579 6.51158 10.4658 6.90359 10.4658 7.39095V10.3787H7.46751C7.23443 10.3787 7.01193 10.474 6.84242 10.633C6.6835 10.8025 6.58814 11.0239 6.58814 11.2581C6.58814 11.7454 6.98015 12.1374 7.46751 12.148H10.4658V15.1464C10.4658 15.6337 10.8579 16.0257 11.3452 16.0257C11.8326 16.0257 12.2246 15.6337 12.2246 15.1464V12.148H15.2335C15.7209 12.1374 16.1129 11.7454 16.1129 11.2581C16.1129 10.7707 15.7209 10.3787 15.2335 10.3787H12.2246V7.39095C12.2246 6.90359 11.8326 6.51158 11.3452 6.51158Z" fill="white"/>
</svg>
