<svg width="88" height="20" viewBox="0 0 88 20" fill="none" xmlns="http://www.w3.org/2000/svg">
<rect width="88" height="20" rx="10" fill="#651D32" fill-opacity="0.4"/>
<path d="M23.696 10.784V14H22.508V5.684H25.52C26.328 5.684 26.972 5.916 27.452 6.38C27.932 6.836 28.172 7.456 28.172 8.24C28.172 9.016 27.932 9.636 27.452 10.1C26.972 10.556 26.328 10.784 25.52 10.784H23.696ZM23.696 9.812H25.412C25.916 9.812 26.296 9.68 26.552 9.416C26.808 9.144 26.936 8.752 26.936 8.24C26.936 7.184 26.428 6.656 25.412 6.656H23.696V9.812ZM30.3061 11.216C30.3221 11.904 30.4901 12.412 30.8101 12.74C31.1381 13.068 31.6421 13.232 32.3221 13.232C32.9541 13.232 33.5981 13.108 34.2541 12.86V13.712C33.6781 14.024 32.9741 14.18 32.1421 14.18C31.1581 14.18 30.4141 13.908 29.9101 13.364C29.4061 12.82 29.1541 12.016 29.1541 10.952C29.1541 9.936 29.4061 9.148 29.9101 8.588C30.4141 8.02 31.1181 7.736 32.0221 7.736C32.7821 7.736 33.3661 7.952 33.7741 8.384C34.1821 8.808 34.3861 9.412 34.3861 10.196C34.3861 10.572 34.3541 10.912 34.2901 11.216H30.3061ZM31.9621 8.636C31.4581 8.636 31.0661 8.788 30.7861 9.092C30.5061 9.388 30.3461 9.832 30.3061 10.424H33.2941C33.3021 10.36 33.3061 10.256 33.3061 10.112C33.3061 9.624 33.1901 9.256 32.9581 9.008C32.7341 8.76 32.4021 8.636 31.9621 8.636ZM39.9337 14V9.932C39.9337 9.508 39.8457 9.196 39.6697 8.996C39.5017 8.796 39.2337 8.696 38.8657 8.696C38.2337 8.696 37.6137 8.9 37.0057 9.308V14H35.8177V7.916H36.8137L36.9337 8.588C37.6937 8.02 38.4937 7.736 39.3337 7.736C39.9177 7.736 40.3617 7.892 40.6657 8.204C40.9697 8.508 41.1217 8.952 41.1217 9.536V14H39.9337ZM47.1924 14L47.0364 13.376C46.7724 13.616 46.4724 13.804 46.1364 13.94C45.8004 14.068 45.4604 14.132 45.1164 14.132C44.6124 14.132 44.1684 14.008 43.7844 13.76C43.4004 13.512 43.1004 13.152 42.8844 12.68C42.6684 12.2 42.5604 11.636 42.5604 10.988C42.5604 10.34 42.6644 9.772 42.8724 9.284C43.0804 8.796 43.3764 8.416 43.7604 8.144C44.1524 7.872 44.6164 7.736 45.1524 7.736C45.8324 7.736 46.4444 7.96 46.9884 8.408V5.12H48.1764V14H47.1924ZM45.4764 13.172C45.9724 13.172 46.4764 12.988 46.9884 12.62V9.224C46.7404 9.04 46.4884 8.908 46.2324 8.828C45.9844 8.74 45.7084 8.696 45.4044 8.696C44.3164 8.696 43.7724 9.448 43.7724 10.952C43.7724 12.432 44.3404 13.172 45.4764 13.172ZM49.9985 14V7.916H51.1865V14H49.9985ZM50.5985 6.836C50.3665 6.836 50.1825 6.772 50.0465 6.644C49.9185 6.508 49.8545 6.332 49.8545 6.116C49.8545 5.9 49.9185 5.728 50.0465 5.6C50.1825 5.464 50.3665 5.396 50.5985 5.396C50.8305 5.396 51.0105 5.464 51.1385 5.6C51.2745 5.728 51.3425 5.9 51.3425 6.116C51.3425 6.332 51.2745 6.508 51.1385 6.644C51.0105 6.772 50.8305 6.836 50.5985 6.836ZM57.1251 14V9.932C57.1251 9.508 57.0371 9.196 56.8611 8.996C56.6931 8.796 56.4251 8.696 56.0571 8.696C55.4251 8.696 54.8051 8.9 54.1971 9.308V14H53.0091V7.916H54.0051L54.1251 8.588C54.8851 8.02 55.6851 7.736 56.5251 7.736C57.1091 7.736 57.5531 7.892 57.8571 8.204C58.1611 8.508 58.3131 8.952 58.3131 9.536V14H57.1251ZM64.0718 13.172C63.7998 13.404 63.5078 13.584 63.1958 13.712C62.8838 13.832 62.5678 13.892 62.2478 13.892C61.7598 13.892 61.3278 13.772 60.9518 13.532C60.5758 13.292 60.2798 12.944 60.0638 12.488C59.8558 12.024 59.7518 11.484 59.7518 10.868C59.7518 9.908 59.9798 9.148 60.4358 8.588C60.8918 8.02 61.5038 7.736 62.2718 7.736C62.9918 7.736 63.6198 7.984 64.1558 8.48L64.2518 7.916H65.2478V13.628C65.2478 14.58 64.9918 15.316 64.4798 15.836C63.9758 16.356 63.2558 16.616 62.3198 16.616C61.5678 16.616 60.8758 16.456 60.2438 16.136V15.284C60.9798 15.532 61.6398 15.656 62.2238 15.656C62.8638 15.656 63.3318 15.5 63.6278 15.188C63.9238 14.884 64.0718 14.392 64.0718 13.712V13.172ZM62.5958 12.932C63.0918 12.932 63.5838 12.748 64.0718 12.38V9.224C63.8318 9.04 63.5878 8.908 63.3398 8.828C63.0918 8.74 62.8198 8.696 62.5238 8.696C61.4838 8.696 60.9638 9.404 60.9638 10.82C60.9638 11.516 61.0998 12.044 61.3718 12.404C61.6518 12.756 62.0598 12.932 62.5958 12.932Z" fill="#232F3E"/>
</svg>
