<svg width="16" height="17" viewBox="0 0 16 17" fill="none" xmlns="http://www.w3.org/2000/svg">
<path d="M15.5488 1.26637C15.1486 0.85566 14.5564 0.702651 14.0042 0.863713L1.12689 4.6084C0.544247 4.77027 0.131278 5.23493 0.0200324 5.82522C-0.0936141 6.42598 0.303348 7.18861 0.821961 7.50751L4.84841 9.98223C5.26138 10.2359 5.7944 10.1723 6.13614 9.82761L10.7468 5.18822C10.9789 4.94663 11.3631 4.94663 11.5952 5.18822C11.8273 5.42176 11.8273 5.80026 11.5952 6.04185L6.97648 10.682C6.63394 11.0259 6.56991 11.5614 6.82202 11.977L9.28222 16.0438C9.57034 16.527 10.0665 16.8008 10.6108 16.8008C10.6748 16.8008 10.7468 16.8008 10.8109 16.7927C11.4351 16.7122 11.9313 16.2854 12.1154 15.6814L15.9329 2.82061C16.101 2.273 15.949 1.67708 15.5488 1.26637Z" fill="white"/>
</svg>
