<svg width="101" height="100" viewBox="0 0 101 100" fill="none" xmlns="http://www.w3.org/2000/svg">
<circle cx="50.5" cy="50" r="50" fill="#FF9900" fill-opacity="0.5"/>
<path d="M70.5884 29.455C69.3379 28.1715 67.4872 27.6933 65.7615 28.1967L25.52 39.8988C23.6992 40.4046 22.4087 41.8567 22.0611 43.7014C21.7059 45.5788 22.9464 47.962 24.5671 48.9585L37.1498 56.692C38.4403 57.4848 40.106 57.2859 41.1739 56.2088L55.5823 41.7108C56.3076 40.9558 57.5081 40.9558 58.2334 41.7108C58.9587 42.4406 58.9587 43.6234 58.2334 44.3783L43.8 58.8789C42.7295 59.9535 42.5295 61.6271 43.3173 62.9256L51.0054 75.6344C51.9058 77.1444 53.4564 78 55.1571 78C55.3572 78 55.5823 78 55.7824 77.9748C57.7332 77.7232 59.2838 76.3894 59.859 74.5019L71.7889 34.312C72.3141 32.6007 71.839 30.7384 70.5884 29.455Z" fill="#232F3E"/>
</svg>
