<svg width="85" height="20" viewBox="0 0 85 20" fill="none" xmlns="http://www.w3.org/2000/svg">
<rect width="85" height="20" rx="10" fill="#2E1A47"/>
<path d="M16.068 10.052C15.412 9.804 14.936 9.504 14.64 9.152C14.344 8.8 14.196 8.356 14.196 7.82C14.196 7.372 14.308 6.976 14.532 6.632C14.756 6.28 15.076 6.004 15.492 5.804C15.916 5.604 16.412 5.504 16.98 5.504C17.7 5.504 18.44 5.648 19.2 5.936V6.908C18.392 6.66 17.68 6.536 17.064 6.536C16.544 6.536 16.14 6.644 15.852 6.86C15.572 7.068 15.432 7.368 15.432 7.76C15.432 8.08 15.528 8.336 15.72 8.528C15.912 8.712 16.268 8.9 16.788 9.092L17.88 9.5C18.528 9.74 18.992 10.032 19.272 10.376C19.56 10.712 19.704 11.148 19.704 11.684C19.704 12.452 19.428 13.064 18.876 13.52C18.332 13.976 17.596 14.204 16.668 14.204C15.748 14.204 14.948 14.04 14.268 13.712V12.752C15.108 13.032 15.9 13.172 16.644 13.172C17.212 13.172 17.656 13.048 17.976 12.8C18.304 12.552 18.468 12.216 18.468 11.792C18.468 11.496 18.372 11.252 18.18 11.06C17.996 10.86 17.68 10.672 17.232 10.496L16.068 10.052ZM25.3718 14L25.2398 13.352C24.4958 13.904 23.7318 14.18 22.9478 14.18C22.3798 14.18 21.9438 14.02 21.6398 13.7C21.3358 13.38 21.1838 12.928 21.1838 12.344V7.916H22.3718V11.96C22.3718 12.392 22.4558 12.712 22.6238 12.92C22.7918 13.12 23.0598 13.22 23.4277 13.22C24.0038 13.22 24.5838 13.028 25.1678 12.644V7.916H26.3558V14H25.3718ZM28.1341 14V5.12H29.3221V8.492C29.9221 7.988 30.5701 7.736 31.2661 7.736C32.0421 7.736 32.6541 8.016 33.1021 8.576C33.5501 9.136 33.7741 9.904 33.7741 10.88C33.7741 11.864 33.5381 12.652 33.0661 13.244C32.5941 13.836 31.9661 14.132 31.1821 14.132C30.4461 14.132 29.8021 13.876 29.2501 13.364L29.1181 14H28.1341ZM30.9301 8.696C30.3621 8.696 29.8261 8.88 29.3221 9.248V12.596C29.8261 12.98 30.3541 13.172 30.9061 13.172C32.0101 13.172 32.5621 12.428 32.5621 10.94C32.5621 10.18 32.4261 9.616 32.1541 9.248C31.8901 8.88 31.4821 8.696 30.9301 8.696ZM43.0117 14V9.872C43.0117 9.472 42.9357 9.176 42.7837 8.984C42.6317 8.792 42.3917 8.696 42.0637 8.696C41.4797 8.696 40.8917 8.876 40.2997 9.236C40.3077 9.292 40.3117 9.352 40.3117 9.416C40.3117 9.48 40.3117 9.544 40.3117 9.608V14H39.1237V9.872C39.1237 9.472 39.0477 9.176 38.8957 8.984C38.7437 8.792 38.5037 8.696 38.1757 8.696C37.5677 8.696 36.9837 8.872 36.4237 9.224V14H35.2357V7.916H36.2317L36.3517 8.528C37.1197 8 37.8677 7.736 38.5957 7.736C39.3397 7.736 39.8437 8.02 40.1077 8.588C40.8997 8.02 41.6917 7.736 42.4837 7.736C43.0357 7.736 43.4597 7.892 43.7557 8.204C44.0517 8.516 44.1997 8.96 44.1997 9.536V14H43.0117ZM45.9946 14V7.916H47.1826V14H45.9946ZM46.5946 6.836C46.3626 6.836 46.1786 6.772 46.0426 6.644C45.9146 6.508 45.8506 6.332 45.8506 6.116C45.8506 5.9 45.9146 5.728 46.0426 5.6C46.1786 5.464 46.3626 5.396 46.5946 5.396C46.8266 5.396 47.0066 5.464 47.1346 5.6C47.2706 5.728 47.3386 5.9 47.3386 6.116C47.3386 6.332 47.2706 6.508 47.1346 6.644C47.0066 6.772 46.8266 6.836 46.5946 6.836ZM52.4252 13.856C52.0332 14.008 51.5892 14.084 51.0932 14.084C49.9572 14.084 49.3892 13.516 49.3892 12.38V8.852H48.2852V8.084L49.4252 7.94L49.6052 6.212H50.5772V7.916H52.3772V8.852H50.5772V12.32C50.5772 12.616 50.6412 12.824 50.7692 12.944C50.9052 13.064 51.1332 13.124 51.4532 13.124C51.7812 13.124 52.1052 13.084 52.4252 13.004V13.856ZM57.1361 13.856C56.7441 14.008 56.3001 14.084 55.8041 14.084C54.6681 14.084 54.1001 13.516 54.1001 12.38V8.852H52.9961V8.084L54.1361 7.94L54.3161 6.212H55.2881V7.916H57.0881V8.852H55.2881V12.32C55.2881 12.616 55.3521 12.824 55.4801 12.944C55.6161 13.064 55.8441 13.124 56.1641 13.124C56.4921 13.124 56.8161 13.084 57.1361 13.004V13.856ZM59.1499 11.216C59.1659 11.904 59.3339 12.412 59.6539 12.74C59.9819 13.068 60.4859 13.232 61.1659 13.232C61.7979 13.232 62.4419 13.108 63.0979 12.86V13.712C62.5219 14.024 61.8179 14.18 60.9859 14.18C60.0019 14.18 59.2579 13.908 58.7539 13.364C58.2499 12.82 57.9979 12.016 57.9979 10.952C57.9979 9.936 58.2499 9.148 58.7539 8.588C59.2579 8.02 59.9619 7.736 60.8659 7.736C61.6259 7.736 62.2099 7.952 62.6179 8.384C63.0259 8.808 63.2299 9.412 63.2299 10.196C63.2299 10.572 63.1979 10.912 63.1339 11.216H59.1499ZM60.8059 8.636C60.3019 8.636 59.9099 8.788 59.6299 9.092C59.3499 9.388 59.1899 9.832 59.1499 10.424H62.1379C62.1459 10.36 62.1499 10.256 62.1499 10.112C62.1499 9.624 62.0339 9.256 61.8019 9.008C61.5779 8.76 61.2459 8.636 60.8059 8.636ZM68.9814 14L68.8254 13.376C68.5614 13.616 68.2614 13.804 67.9254 13.94C67.5894 14.068 67.2494 14.132 66.9054 14.132C66.4014 14.132 65.9574 14.008 65.5734 13.76C65.1894 13.512 64.8894 13.152 64.6734 12.68C64.4574 12.2 64.3494 11.636 64.3494 10.988C64.3494 10.34 64.4534 9.772 64.6614 9.284C64.8694 8.796 65.1654 8.416 65.5494 8.144C65.9414 7.872 66.4054 7.736 66.9414 7.736C67.6214 7.736 68.2334 7.96 68.7774 8.408V5.12H69.9654V14H68.9814ZM67.2654 13.172C67.7614 13.172 68.2654 12.988 68.7774 12.62V9.224C68.5294 9.04 68.2774 8.908 68.0214 8.828C67.7734 8.74 67.4974 8.696 67.1934 8.696C66.1054 8.696 65.5614 9.448 65.5614 10.952C65.5614 12.432 66.1294 13.172 67.2654 13.172Z" fill="white"/>
</svg>
