<svg width="89" height="21" viewBox="0 0 89 21" fill="none" xmlns="http://www.w3.org/2000/svg">
<rect x="0.380371" y="0.618164" width="88" height="20" rx="10" fill="#2E1A47" fill-opacity="0.4"/>
<path d="M17.9484 10.6702C17.2924 10.4222 16.8164 10.1222 16.5204 9.77016C16.2244 9.41816 16.0764 8.97416 16.0764 8.43816C16.0764 7.99016 16.1884 7.59416 16.4124 7.25016C16.6364 6.89816 16.9564 6.62216 17.3724 6.42216C17.7964 6.22216 18.2924 6.12216 18.8604 6.12216C19.5804 6.12216 20.3204 6.26616 21.0804 6.55416V7.52616C20.2724 7.27816 19.5604 7.15416 18.9444 7.15416C18.4244 7.15416 18.0204 7.26216 17.7324 7.47816C17.4524 7.68616 17.3124 7.98616 17.3124 8.37816C17.3124 8.69816 17.4084 8.95416 17.6004 9.14616C17.7924 9.33016 18.1484 9.51816 18.6684 9.71016L19.7604 10.1182C20.4084 10.3582 20.8724 10.6502 21.1524 10.9942C21.4404 11.3302 21.5844 11.7662 21.5844 12.3022C21.5844 13.0702 21.3084 13.6822 20.7564 14.1382C20.2124 14.5942 19.4764 14.8222 18.5484 14.8222C17.6284 14.8222 16.8284 14.6582 16.1484 14.3302V13.3702C16.9884 13.6502 17.7804 13.7902 18.5244 13.7902C19.0924 13.7902 19.5364 13.6662 19.8564 13.4182C20.1844 13.1702 20.3484 12.8342 20.3484 12.4102C20.3484 12.1142 20.2524 11.8702 20.0604 11.6782C19.8764 11.4782 19.5604 11.2902 19.1124 11.1142L17.9484 10.6702ZM27.2521 14.6182L27.1201 13.9702C26.3761 14.5222 25.6121 14.7982 24.8281 14.7982C24.2601 14.7982 23.8241 14.6382 23.5201 14.3182C23.2161 13.9982 23.0641 13.5462 23.0641 12.9622V8.53416H24.2521V12.5782C24.2521 13.0102 24.3361 13.3302 24.5041 13.5382C24.6721 13.7382 24.9401 13.8382 25.3081 13.8382C25.8841 13.8382 26.4641 13.6462 27.0481 13.2622V8.53416H28.2361V14.6182H27.2521ZM30.0145 14.6182V5.73816H31.2025V9.11016C31.8025 8.60616 32.4505 8.35416 33.1465 8.35416C33.9225 8.35416 34.5345 8.63416 34.9825 9.19416C35.4305 9.75416 35.6545 10.5222 35.6545 11.4982C35.6545 12.4822 35.4185 13.2702 34.9465 13.8622C34.4745 14.4542 33.8465 14.7502 33.0625 14.7502C32.3265 14.7502 31.6825 14.4942 31.1305 13.9822L30.9985 14.6182H30.0145ZM32.8105 9.31416C32.2425 9.31416 31.7065 9.49816 31.2025 9.86616V13.2142C31.7065 13.5982 32.2345 13.7902 32.7865 13.7902C33.8905 13.7902 34.4425 13.0462 34.4425 11.5582C34.4425 10.7982 34.3065 10.2342 34.0345 9.86616C33.7705 9.49816 33.3625 9.31416 32.8105 9.31416ZM44.892 14.6182V10.4902C44.892 10.0902 44.816 9.79416 44.664 9.60216C44.512 9.41016 44.272 9.31416 43.944 9.31416C43.36 9.31416 42.772 9.49416 42.18 9.85416C42.188 9.91016 42.192 9.97016 42.192 10.0342C42.192 10.0982 42.192 10.1622 42.192 10.2262V14.6182H41.004V10.4902C41.004 10.0902 40.928 9.79416 40.776 9.60216C40.624 9.41016 40.384 9.31416 40.056 9.31416C39.448 9.31416 38.864 9.49016 38.304 9.84216V14.6182H37.116V8.53416H38.112L38.232 9.14616C39 8.61816 39.748 8.35416 40.476 8.35416C41.22 8.35416 41.724 8.63816 41.988 9.20616C42.78 8.63816 43.572 8.35416 44.364 8.35416C44.916 8.35416 45.34 8.51016 45.636 8.82216C45.932 9.13416 46.08 9.57816 46.08 10.1542V14.6182H44.892ZM47.875 14.6182V8.53416H49.063V14.6182H47.875ZM48.475 7.45416C48.243 7.45416 48.059 7.39016 47.923 7.26216C47.795 7.12616 47.731 6.95016 47.731 6.73416C47.731 6.51816 47.795 6.34616 47.923 6.21816C48.059 6.08216 48.243 6.01416 48.475 6.01416C48.707 6.01416 48.887 6.08216 49.015 6.21816C49.151 6.34616 49.219 6.51816 49.219 6.73416C49.219 6.95016 49.151 7.12616 49.015 7.26216C48.887 7.39016 48.707 7.45416 48.475 7.45416ZM54.3056 14.4742C53.9136 14.6262 53.4696 14.7022 52.9736 14.7022C51.8376 14.7022 51.2696 14.1342 51.2696 12.9982V9.47016H50.1656V8.70216L51.3056 8.55816L51.4856 6.83016H52.4576V8.53416H54.2576V9.47016H52.4576V12.9382C52.4576 13.2342 52.5216 13.4422 52.6496 13.5622C52.7856 13.6822 53.0136 13.7422 53.3336 13.7422C53.6616 13.7422 53.9856 13.7022 54.3056 13.6222V14.4742ZM59.0165 14.4742C58.6245 14.6262 58.1805 14.7022 57.6845 14.7022C56.5485 14.7022 55.9805 14.1342 55.9805 12.9982V9.47016H54.8765V8.70216L56.0165 8.55816L56.1965 6.83016H57.1685V8.53416H58.9685V9.47016H57.1685V12.9382C57.1685 13.2342 57.2325 13.4422 57.3605 13.5622C57.4965 13.6822 57.7245 13.7422 58.0445 13.7422C58.3725 13.7422 58.6965 13.7022 59.0165 13.6222V14.4742ZM61.0302 11.8342C61.0462 12.5222 61.2142 13.0302 61.5342 13.3582C61.8622 13.6862 62.3662 13.8502 63.0462 13.8502C63.6782 13.8502 64.3222 13.7262 64.9782 13.4782V14.3302C64.4022 14.6422 63.6982 14.7982 62.8662 14.7982C61.8822 14.7982 61.1382 14.5262 60.6342 13.9822C60.1302 13.4382 59.8782 12.6342 59.8782 11.5702C59.8782 10.5542 60.1302 9.76616 60.6342 9.20616C61.1382 8.63816 61.8422 8.35416 62.7462 8.35416C63.5062 8.35416 64.0902 8.57016 64.4982 9.00216C64.9062 9.42616 65.1102 10.0302 65.1102 10.8142C65.1102 11.1902 65.0782 11.5302 65.0142 11.8342H61.0302ZM62.6862 9.25416C62.1822 9.25416 61.7902 9.40616 61.5102 9.71016C61.2302 10.0062 61.0702 10.4502 61.0302 11.0422H64.0182C64.0262 10.9782 64.0302 10.8742 64.0302 10.7302C64.0302 10.2422 63.9142 9.87416 63.6822 9.62616C63.4582 9.37816 63.1262 9.25416 62.6862 9.25416ZM70.8618 14.6182L70.7058 13.9942C70.4418 14.2342 70.1418 14.4222 69.8058 14.5582C69.4698 14.6862 69.1298 14.7502 68.7858 14.7502C68.2818 14.7502 67.8378 14.6262 67.4538 14.3782C67.0698 14.1302 66.7698 13.7702 66.5538 13.2982C66.3378 12.8182 66.2298 12.2542 66.2298 11.6062C66.2298 10.9582 66.3338 10.3902 66.5418 9.90216C66.7498 9.41416 67.0458 9.03416 67.4298 8.76216C67.8218 8.49016 68.2858 8.35416 68.8218 8.35416C69.5018 8.35416 70.1138 8.57816 70.6578 9.02616V5.73816H71.8458V14.6182H70.8618ZM69.1458 13.7902C69.6418 13.7902 70.1458 13.6062 70.6578 13.2382V9.84216C70.4098 9.65816 70.1578 9.52616 69.9018 9.44616C69.6538 9.35816 69.3778 9.31416 69.0738 9.31416C67.9858 9.31416 67.4418 10.0662 67.4418 11.5702C67.4418 13.0502 68.0098 13.7902 69.1458 13.7902Z" fill="#232F3E"/>
</svg>
