<svg width="18" height="21" viewBox="0 0 18 21" fill="none" xmlns="http://www.w3.org/2000/svg">
<path d="M15.5092 5.07771C15.3742 5.00789 15.2428 4.93136 15.1155 4.8484C14.7455 4.60373 14.4062 4.31547 14.1049 3.98982C13.3503 3.12679 13.0686 2.25131 12.9655 1.63892H12.969C12.8828 1.12964 12.9184 0.800781 12.9246 0.800781H9.48936V14.0822C9.48936 14.26 9.48936 14.4368 9.48225 14.611C9.48225 14.6324 9.47958 14.6519 9.47869 14.6759C9.47869 14.6848 9.47869 14.6955 9.47602 14.7053V14.7133C9.43995 15.1897 9.28733 15.6499 9.03161 16.0535C8.77588 16.4571 8.42488 16.7916 8.0095 17.0277C7.57614 17.2742 7.08598 17.4035 6.58741 17.4028C4.98756 17.4028 3.6899 16.098 3.6899 14.4866C3.6899 12.8743 4.98756 11.5695 6.58741 11.5695C6.89049 11.5695 7.19179 11.6175 7.47977 11.7118L7.48421 8.21342C6.60964 8.10059 5.72117 8.17028 4.87489 8.41811C4.02861 8.66593 3.24289 9.08651 2.56734 9.65329C1.97527 10.1675 1.47747 10.7811 1.09637 11.4664C0.95149 11.7162 0.403986 12.7214 0.338215 14.3515C0.296441 15.2759 0.574637 16.2358 0.707069 16.6313V16.6402C0.789728 16.8731 1.11325 17.6694 1.63943 18.3405C2.06374 18.8791 2.56507 19.3523 3.12729 19.7448V19.7359L3.13529 19.7448C4.79735 20.8736 6.64162 20.7998 6.64162 20.7998C6.9607 20.7865 8.02994 20.7998 9.24405 20.2247C10.5906 19.5866 11.3567 18.6364 11.3567 18.6364C11.8466 18.0686 12.2361 17.4215 12.5086 16.7228C12.8197 15.9051 12.9228 14.9257 12.9228 14.5346V7.48727C12.9646 7.51215 13.5201 7.87923 13.5201 7.87923C13.5201 7.87923 14.32 8.39207 15.567 8.72537C16.4611 8.96268 17.6673 9.01334 17.6673 9.01334V5.603C17.2451 5.64922 16.3874 5.51589 15.5083 5.0786L15.5092 5.07771Z" fill="#232F3E"/>
</svg>
