<svg width="27" height="27" viewBox="0 0 27 27" fill="none" xmlns="http://www.w3.org/2000/svg">
<circle cx="13.7617" cy="13.6758" r="13" fill="#232F3E"/>
<path d="M13.1457 13.3398C13.1991 13.3291 13.2524 13.3238 13.3057 13.3238C13.3591 13.3238 13.4124 13.3238 13.4657 13.3238C14.5217 13.3238 15.3591 13.6118 15.9777 14.1878C16.5964 14.7531 16.9057 15.5158 16.9057 16.4758C16.9057 17.5211 16.5271 18.3584 15.7697 18.9878C15.0231 19.6064 14.0151 19.9158 12.7457 19.9158C11.7431 19.9158 10.7511 19.7024 9.76972 19.2758V17.9958C10.9324 18.3798 11.9244 18.5718 12.7457 18.5718C13.5564 18.5718 14.1804 18.3904 14.6177 18.0278C15.0551 17.6651 15.2737 17.1478 15.2737 16.4758C15.2737 15.1851 14.4577 14.5398 12.8257 14.5398C12.3137 14.5398 11.8071 14.5664 11.3057 14.6198V13.5638L14.6657 9.89978H9.92972V8.58778H16.4417V9.85178L13.1457 13.3398Z" fill="white"/>
</svg>
