<svg width="20" height="17" viewBox="0 0 20 17" fill="none" xmlns="http://www.w3.org/2000/svg">
<path d="M20 2.60046C19.2645 2.92636 18.4744 3.14657 17.6438 3.2461C18.5008 2.73328 19.142 1.92616 19.4477 0.975335C18.6425 1.45361 17.7612 1.79027 16.8422 1.97067C16.2242 1.31081 15.4057 0.873447 14.5136 0.726479C13.6216 0.579512 12.706 0.731163 11.909 1.15789C11.1119 1.58461 10.4781 2.26254 10.1058 3.08641C9.73358 3.91028 9.64374 4.83401 9.85026 5.71417C8.2187 5.63225 6.62259 5.20818 5.16553 4.46948C3.70847 3.73078 2.42301 2.69397 1.39258 1.42632C1.04025 2.03409 0.837664 2.73875 0.837664 3.48921C0.837271 4.1648 1.00364 4.83004 1.32201 5.42591C1.64038 6.02177 2.10091 6.52985 2.66273 6.90505C2.01117 6.88431 1.37397 6.70826 0.804193 6.39153V6.44437C0.804127 7.39191 1.13189 8.31029 1.73186 9.04368C2.33184 9.77707 3.16707 10.2803 4.09583 10.468C3.4914 10.6316 2.85769 10.6557 2.24258 10.5384C2.50462 11.3538 3.01506 12.0667 3.70243 12.5775C4.3898 13.0883 5.21969 13.3713 6.07593 13.387C4.62242 14.5281 2.82735 15.147 0.979477 15.1443C0.652146 15.1444 0.325091 15.1253 0 15.087C1.87569 16.293 4.05914 16.9331 6.28909 16.9306C13.8378 16.9306 17.9644 10.6785 17.9644 5.25614C17.9644 5.07998 17.96 4.90205 17.9521 4.72589C18.7548 4.1454 19.4476 3.42658 19.9982 2.6031L20 2.60046Z" fill="#232F3E"/>
</svg>
